{"glyphs":{"0":{"ha":944,"x_min":21,"x_max":957,"o":"m 390 -14 q 112 67 203 -14 q 21 300 21 147 q 38 447 21 368 q 131 699 69 596 q 302 855 192 801 q 588 908 413 908 q 865 827 774 908 q 957 590 957 746 q 940 447 957 525 q 845 196 908 299 q 672 40 782 93 q 390 -14 563 -14 m 451 272 q 545 315 511 272 q 597 447 579 358 q 606 493 603 472 q 608 532 608 514 q 526 622 608 622 q 433 579 467 622 q 381 447 400 536 q 372 401 375 422 q 369 363 369 381 q 451 272 369 272 z "},"1":{"ha":557,"x_min":61,"x_max":624,"o":"m 94 0 l 218 582 l 61 560 l 121 839 l 624 908 l 431 0 l 94 0 z "},"2":{"ha":743,"x_min":-57,"x_max":775,"o":"m -57 0 l -26 149 q 90 269 29 214 q 228 379 151 324 q 361 482 318 446 q 413 557 404 518 q 414 572 414 563 q 331 622 414 622 q 208 608 268 622 q 90 572 147 594 l 150 851 q 303 893 217 878 q 481 908 390 908 q 698 846 621 908 q 775 681 775 783 q 773 649 775 665 q 768 617 771 633 q 735 518 756 560 q 678 440 714 476 q 583 360 642 403 q 510 306 549 335 q 451 256 471 278 l 699 256 l 644 0 l -57 0 z "},"3":{"ha":764,"x_min":-49,"x_max":792,"o":"m 258 -14 q 161 -7 219 -14 q 45 13 103 0 q -49 40 -12 25 l 6 294 q 132 251 61 264 q 257 239 203 239 q 346 250 314 239 q 385 296 378 261 q 373 330 389 317 q 314 343 357 343 l 150 343 l 217 556 l 351 556 q 410 568 392 556 q 435 607 429 581 q 417 642 440 629 q 335 656 393 656 q 201 640 271 656 q 82 600 132 624 l 136 853 q 285 892 200 876 q 456 908 371 908 q 710 849 629 908 q 792 696 792 790 q 790 669 792 682 q 785 640 788 656 q 743 532 772 581 q 674 449 714 483 q 714 401 699 431 q 729 331 729 372 q 727 302 729 317 q 722 271 725 288 q 569 53 690 121 q 258 -14 449 -14 z "},"4":{"ha":776,"x_min":-54,"x_max":819,"o":"m 294 0 l 325 150 l -54 150 l -8 363 l 532 894 l 819 894 l 719 419 l 794 419 l 736 150 l 661 150 l 631 0 l 294 0 m 325 406 l 443 406 l 469 535 l 325 406 z "},"5":{"ha":743,"x_min":-46,"x_max":782,"o":"m 247 -14 q 155 -8 208 -14 q 47 9 101 -3 q -46 39 -7 21 l 10 294 q 84 267 39 279 q 174 248 129 254 q 246 242 219 242 q 339 263 311 242 q 367 322 367 283 q 296 363 367 363 l 19 363 l 47 494 l 156 894 l 782 894 l 707 639 l 390 639 l 375 582 l 443 582 q 640 527 567 582 q 714 365 714 472 q 706 293 714 333 q 639 135 688 204 q 497 26 590 65 q 247 -14 403 -14 z "},"6":{"ha":839,"x_min":10,"x_max":833,"o":"m 340 -14 q 93 64 176 -14 q 10 268 10 142 q 12 313 10 290 q 19 360 14 336 l 51 513 q 137 715 75 625 q 309 856 199 804 q 586 908 419 908 q 724 899 665 908 q 833 867 782 890 l 782 624 q 685 657 735 647 q 572 667 635 667 q 437 640 488 667 q 379 585 386 613 l 378 576 q 456 601 407 592 q 546 611 504 611 q 747 557 678 611 q 815 396 815 503 q 806 311 815 354 q 735 144 786 218 q 588 28 683 71 q 340 -14 492 -14 m 393 217 q 504 299 486 217 q 506 313 506 306 q 507 326 507 321 q 490 368 507 354 q 431 382 472 382 q 383 375 408 382 q 331 357 357 368 l 321 313 q 317 278 317 294 q 336 231 317 244 q 393 217 356 217 z "},"7":{"ha":700,"x_min":-36,"x_max":804,"o":"m -36 0 l 369 639 l 64 639 l 118 894 l 804 894 l 765 710 l 314 0 l -36 0 z "},"8":{"ha":872,"x_min":-8,"x_max":892,"o":"m 353 -14 q -8 204 -8 -14 q 0 272 -8 238 q 49 382 13 329 q 131 464 86 435 q 92 581 92 511 q 96 624 92 601 q 164 775 115 711 q 306 874 213 839 q 550 908 399 908 q 810 850 728 908 q 892 690 892 792 q 890 658 892 675 q 885 624 889 642 q 848 535 875 581 q 782 460 821 490 q 836 325 836 408 q 835 299 836 313 q 831 272 833 286 q 760 114 811 178 q 613 18 710 50 q 353 -14 515 -14 m 504 546 q 565 617 556 568 q 567 631 567 622 q 500 678 567 678 q 413 617 425 678 q 411 608 411 613 q 411 599 411 603 q 443 558 411 565 l 504 546 m 403 217 q 490 240 464 217 q 515 296 515 263 q 504 325 515 313 q 465 343 493 338 l 389 360 q 346 336 363 353 q 322 290 329 319 q 320 280 321 285 q 319 271 319 275 q 403 217 319 217 z "},"9":{"ha":839,"x_min":40,"x_max":867,"o":"m 286 -14 q 150 -6 207 -14 q 40 24 93 1 l 92 267 q 189 236 140 244 q 300 228 238 228 q 440 256 392 228 q 493 310 488 283 l 494 318 q 417 294 465 304 q 326 283 368 283 q 131 340 203 283 q 58 504 58 396 q 67 583 58 542 q 138 750 86 676 q 284 866 189 824 q 532 908 379 908 q 787 844 707 908 q 867 654 867 779 q 863 597 867 628 q 853 535 860 567 l 821 382 q 653 93 782 200 q 286 -14 524 -14 m 442 513 q 490 519 465 513 q 542 538 515 526 l 551 582 q 556 618 556 603 q 538 664 556 650 q 479 678 519 678 q 368 596 385 678 q 364 567 364 579 q 382 526 364 540 q 442 513 400 513 z "},"A":{"ha":1079,"x_min":-58,"x_max":979,"o":"m -58 0 l 475 894 l 824 894 l 979 0 l 646 0 l 617 167 l 400 167 l 301 0 l -58 0 m 485 396 l 621 396 l 589 567 l 485 396 z "},"Á":{"ha":1079,"x_min":-58,"x_max":993,"o":"m 535 956 l 735 1269 l 993 1269 l 781 956 l 535 956 m -58 0 l 475 894 l 824 894 l 979 0 l 646 0 l 617 167 l 400 167 l 301 0 l -58 0 m 485 396 l 621 396 l 589 567 l 485 396 z "},"Ă":{"ha":1079,"x_min":-58,"x_max":1033,"o":"m 661 956 q 479 1012 546 956 q 413 1175 413 1068 q 415 1217 413 1194 q 422 1261 417 1239 l 626 1261 q 622 1238 624 1250 q 621 1215 621 1226 q 636 1161 621 1183 q 690 1139 651 1139 q 771 1176 743 1139 q 808 1261 799 1214 l 1033 1261 q 901 1034 1001 1113 q 661 956 801 956 m -58 0 l 475 894 l 824 894 l 979 0 l 646 0 l 617 167 l 400 167 l 301 0 l -58 0 m 485 396 l 621 396 l 589 567 l 485 396 z "},"Ắ":{"ha":1079,"x_min":-58,"x_max":1000,"o":"m 631 1243 l 785 1482 l 1000 1482 l 836 1243 l 631 1243 m 664 956 q 501 1002 567 956 q 436 1146 436 1049 q 444 1217 436 1179 l 621 1217 q 617 1197 619 1207 q 615 1181 615 1188 q 688 1118 615 1118 q 766 1147 742 1118 q 800 1217 790 1175 l 996 1217 q 878 1019 967 1082 q 664 956 790 956 m -58 0 l 475 894 l 824 894 l 979 0 l 646 0 l 617 167 l 400 167 l 301 0 l -58 0 m 485 396 l 621 396 l 589 567 l 485 396 z "},"Ặ":{"ha":1079,"x_min":-58,"x_max":1033,"o":"m 661 956 q 479 1012 546 956 q 413 1175 413 1068 q 415 1217 413 1194 q 422 1261 417 1239 l 626 1261 q 622 1238 624 1250 q 621 1215 621 1226 q 636 1161 621 1183 q 690 1139 651 1139 q 771 1176 743 1139 q 808 1261 799 1214 l 1033 1261 q 901 1034 1001 1113 q 661 956 801 956 m -58 0 l 475 894 l 824 894 l 979 0 l 646 0 l 617 167 l 400 167 l 301 0 l -58 0 m 485 396 l 621 396 l 589 567 l 485 396 m 289 -296 l 331 -100 l 547 -100 l 506 -296 l 289 -296 z "},"Ằ":{"ha":1079,"x_min":-58,"x_max":996,"o":"m 615 1243 l 550 1482 l 767 1482 l 821 1243 l 615 1243 m 664 956 q 501 1002 567 956 q 436 1146 436 1049 q 444 1217 436 1179 l 621 1217 q 617 1197 619 1207 q 615 1181 615 1188 q 688 1118 615 1118 q 766 1147 742 1118 q 800 1217 790 1175 l 996 1217 q 878 1019 967 1082 q 664 956 790 956 m -58 0 l 475 894 l 824 894 l 979 0 l 646 0 l 617 167 l 400 167 l 301 0 l -58 0 m 485 396 l 621 396 l 589 567 l 485 396 z "},"Ẳ":{"ha":1079,"x_min":-58,"x_max":996,"o":"m 615 1244 l 633 1332 q 721 1349 694 1335 q 747 1386 747 1364 q 734 1407 747 1401 q 693 1413 721 1413 q 656 1408 675 1413 q 622 1397 638 1403 l 647 1511 q 722 1524 676 1518 q 811 1529 768 1529 q 928 1499 889 1529 q 967 1425 967 1469 q 966 1414 967 1419 q 964 1401 965 1408 q 926 1326 954 1354 q 842 1282 899 1299 l 833 1244 l 615 1244 m 664 956 q 501 1002 567 956 q 436 1146 436 1049 q 444 1217 436 1179 l 621 1217 q 617 1197 619 1207 q 615 1181 615 1188 q 688 1118 615 1118 q 766 1147 742 1118 q 800 1217 790 1175 l 996 1217 q 878 1019 967 1082 q 664 956 790 956 m -58 0 l 475 894 l 824 894 l 979 0 l 646 0 l 617 167 l 400 167 l 301 0 l -58 0 m 485 396 l 621 396 l 589 567 l 485 396 z "},"Ẵ":{"ha":1079,"x_min":-58,"x_max":1040,"o":"m 869 1251 q 780 1266 822 1251 q 697 1295 738 1281 q 615 1310 657 1310 q 531 1294 569 1310 q 465 1256 493 1279 l 501 1429 q 565 1461 525 1447 q 646 1475 604 1475 q 735 1460 694 1475 q 816 1431 776 1446 q 900 1417 856 1417 q 983 1433 946 1417 q 1040 1471 1021 1449 l 1004 1297 q 950 1265 989 1279 q 869 1251 911 1251 m 664 956 q 501 1002 567 956 q 436 1146 436 1049 q 444 1217 436 1179 l 621 1217 q 617 1197 619 1207 q 615 1181 615 1188 q 688 1118 615 1118 q 766 1147 742 1118 q 800 1217 790 1175 l 996 1217 q 878 1019 967 1082 q 664 956 790 956 m -58 0 l 475 894 l 824 894 l 979 0 l 646 0 l 617 167 l 400 167 l 301 0 l -58 0 m 485 396 l 621 396 l 589 567 l 485 396 z "},"Ǎ":{"ha":1079,"x_min":-58,"x_max":1067,"o":"m 565 956 l 386 1256 l 615 1256 l 686 1107 l 824 1256 l 1067 1256 l 760 956 l 565 956 m -58 0 l 475 894 l 824 894 l 979 0 l 646 0 l 617 167 l 400 167 l 301 0 l -58 0 m 485 396 l 621 396 l 589 567 l 485 396 z "},"Â":{"ha":1079,"x_min":-58,"x_max":1003,"o":"m 322 956 l 628 1256 l 824 1256 l 1003 956 l 779 956 l 704 1104 l 572 956 l 322 956 m -58 0 l 475 894 l 824 894 l 979 0 l 646 0 l 617 167 l 400 167 l 301 0 l -58 0 m 485 396 l 621 396 l 589 567 l 485 396 z "},"Ấ":{"ha":1078,"x_min":-58,"x_max":1290,"o":"m 892 1139 l 1046 1378 l 1290 1378 l 1124 1139 l 892 1139 m 313 956 l 582 1189 l 825 1189 l 993 956 l 742 956 l 686 1061 l 590 956 l 313 956 m -58 0 l 475 894 l 824 894 l 979 0 l 646 0 l 617 167 l 400 167 l 301 0 l -58 0 m 485 396 l 621 396 l 589 567 l 485 396 z "},"Ậ":{"ha":1079,"x_min":-58,"x_max":1004,"o":"m 324 956 l 629 1256 l 825 1256 l 1004 956 l 781 956 l 706 1104 l 574 956 l 324 956 m -58 0 l 475 894 l 824 894 l 979 0 l 646 0 l 617 167 l 400 167 l 301 0 l -58 0 m 485 396 l 621 396 l 589 567 l 485 396 m 289 -296 l 331 -100 l 547 -100 l 506 -296 l 289 -296 z "},"Ầ":{"ha":1079,"x_min":-58,"x_max":1004,"o":"m 271 1139 l 207 1378 l 451 1378 l 504 1139 l 271 1139 m 324 956 l 593 1189 l 836 1189 l 1004 956 l 747 956 l 696 1061 l 596 956 l 324 956 m -58 0 l 475 894 l 824 894 l 979 0 l 646 0 l 617 167 l 400 167 l 301 0 l -58 0 m 485 396 l 621 396 l 589 567 l 485 396 z "},"Ẩ":{"ha":1078,"x_min":-58,"x_max":1258,"o":"m 906 1107 l 929 1218 q 1006 1231 988 1221 q 1024 1254 1024 1240 q 981 1271 1024 1271 q 946 1267 964 1271 q 913 1257 928 1263 l 940 1385 q 1010 1397 968 1392 q 1103 1401 1051 1401 q 1219 1371 1181 1401 q 1258 1296 1258 1340 q 1258 1285 1258 1290 q 1256 1274 1257 1279 q 1215 1193 1246 1226 q 1132 1150 1185 1160 l 1122 1107 l 906 1107 m 318 956 l 588 1189 l 831 1189 l 999 956 l 747 956 l 692 1061 l 596 956 l 318 956 m -58 0 l 475 894 l 824 894 l 979 0 l 646 0 l 617 167 l 400 167 l 301 0 l -58 0 m 485 396 l 621 396 l 589 567 l 485 396 z "},"Ẫ":{"ha":1079,"x_min":-58,"x_max":1042,"o":"m 867 1210 q 777 1224 819 1210 q 694 1253 735 1239 q 613 1268 654 1268 q 528 1253 567 1268 q 463 1214 490 1238 l 501 1401 q 565 1433 525 1419 q 646 1447 604 1447 q 735 1433 694 1447 q 816 1403 776 1418 q 900 1389 856 1389 q 983 1405 946 1389 q 1042 1443 1021 1421 l 1001 1256 q 947 1224 985 1238 q 867 1210 908 1210 m 322 956 l 592 1189 l 835 1189 l 1003 956 l 751 956 l 696 1061 l 600 956 l 322 956 m -58 0 l 475 894 l 824 894 l 979 0 l 646 0 l 617 167 l 400 167 l 301 0 l -58 0 m 485 396 l 621 396 l 589 567 l 485 396 z "},"Ä":{"ha":1079,"x_min":-58,"x_max":983,"o":"m 400 996 l 442 1192 l 657 1192 l 615 996 l 400 996 m 725 996 l 767 1192 l 983 1192 l 942 996 l 725 996 m -58 0 l 475 894 l 824 894 l 979 0 l 646 0 l 617 167 l 400 167 l 301 0 l -58 0 m 485 396 l 621 396 l 589 567 l 485 396 z "},"Ạ":{"ha":1079,"x_min":-58,"x_max":979,"o":"m -58 0 l 475 894 l 824 894 l 979 0 l 646 0 l 617 167 l 400 167 l 301 0 l -58 0 m 485 396 l 621 396 l 589 567 l 485 396 m 290 -296 l 332 -100 l 549 -100 l 507 -296 l 290 -296 z "},"À":{"ha":1079,"x_min":-58,"x_max":979,"o":"m 536 956 l 457 1269 l 715 1269 l 782 956 l 536 956 m -58 0 l 475 894 l 824 894 l 979 0 l 646 0 l 617 167 l 400 167 l 301 0 l -58 0 m 485 396 l 621 396 l 589 567 l 485 396 z "},"Ả":{"ha":1079,"x_min":-58,"x_max":979,"o":"m 546 956 l 569 1068 q 667 1087 639 1072 q 699 1122 694 1101 q 638 1161 708 1161 q 557 1147 596 1161 l 585 1278 q 665 1293 621 1288 q 769 1299 710 1299 q 906 1265 860 1299 q 951 1178 951 1231 q 951 1164 951 1171 q 949 1150 950 1157 q 901 1056 935 1088 q 804 1006 868 1025 l 793 956 l 546 956 m -58 0 l 475 894 l 824 894 l 979 0 l 646 0 l 617 167 l 400 167 l 301 0 l -58 0 m 485 396 l 621 396 l 589 567 l 485 396 z "},"Ā":{"ha":1079,"x_min":-58,"x_max":979,"o":"m 424 969 l 465 1164 l 949 1164 l 907 969 l 424 969 m -58 0 l 475 894 l 824 894 l 979 0 l 646 0 l 617 167 l 400 167 l 301 0 l -58 0 m 485 396 l 621 396 l 589 567 l 485 396 z "},"Ą":{"ha":1079,"x_min":-58,"x_max":979,"o":"m -58 0 l 475 894 l 824 894 l 979 0 l 896 0 q 837 -49 861 -22 q 806 -106 813 -75 q 804 -117 804 -110 q 819 -142 804 -135 q 861 -149 835 -149 q 900 -144 879 -149 q 935 -133 921 -140 l 904 -281 q 832 -297 878 -289 q 733 -306 786 -306 q 602 -278 650 -306 q 554 -194 554 -251 q 598 -77 554 -128 q 696 0 642 -26 l 646 0 l 617 167 l 400 167 l 301 0 l -58 0 m 485 396 l 621 396 l 589 567 l 485 396 z "},"Å":{"ha":1079,"x_min":-58,"x_max":979,"o":"m -58 0 l 475 894 q 462 930 467 911 q 457 969 457 949 q 459 992 457 981 q 463 1015 461 1003 q 546 1158 481 1100 q 717 1215 611 1215 q 848 1172 803 1215 q 893 1061 893 1128 q 892 1038 893 1050 q 888 1015 890 1026 q 824 893 874 944 l 979 0 l 646 0 l 617 167 l 400 167 l 301 0 l -58 0 m 658 944 q 726 972 703 944 q 750 1033 750 1000 q 735 1071 750 1056 q 689 1086 721 1086 q 621 1058 644 1086 q 597 997 597 1031 q 612 960 597 975 q 658 944 626 944 m 485 396 l 621 396 l 589 567 l 485 396 z "},"Ǻ":{"ha":1079,"x_min":-58,"x_max":1085,"o":"m 626 1260 l 826 1510 l 1085 1510 l 872 1260 l 626 1260 m -58 0 l 475 894 l 476 894 q 458 971 458 928 q 463 1015 458 993 q 546 1158 481 1100 q 717 1215 611 1215 q 848 1172 803 1215 q 893 1061 893 1128 q 892 1038 893 1050 q 888 1015 890 1026 q 824 893 872 943 l 979 0 l 646 0 l 617 167 l 400 167 l 301 0 l -58 0 m 658 944 q 726 972 703 944 q 750 1033 750 1000 q 735 1071 750 1056 q 689 1086 721 1086 q 621 1058 644 1086 q 597 997 597 1031 q 612 960 597 975 q 658 944 626 944 m 485 396 l 621 396 l 589 567 l 485 396 z "},"Ã":{"ha":1079,"x_min":-58,"x_max":996,"o":"m 813 963 q 717 978 763 963 q 631 1008 672 993 q 546 1024 589 1024 q 458 1008 499 1024 q 388 967 418 992 l 429 1163 q 497 1197 454 1182 q 582 1211 539 1211 q 675 1196 633 1211 q 758 1165 717 1181 q 847 1150 800 1150 q 935 1167 896 1150 q 996 1207 974 1185 l 954 1011 q 897 978 936 993 q 813 963 857 963 m -58 0 l 475 894 l 824 894 l 979 0 l 646 0 l 617 167 l 400 167 l 301 0 l -58 0 m 485 396 l 621 396 l 589 567 l 485 396 z "},"Æ":{"ha":1214,"x_min":-58,"x_max":1303,"o":"m -58 0 l 475 894 l 1303 894 l 1251 653 l 942 653 l 925 572 l 1182 572 l 1129 322 l 872 322 l 854 242 l 1164 242 l 1114 0 l 482 0 l 517 167 l 390 167 l 292 0 l -58 0 m 475 396 l 565 396 l 619 653 l 611 653 l 475 396 z "},"Ǽ":{"ha":1214,"x_min":-58,"x_max":1303,"o":"m 690 956 l 890 1269 l 1149 1269 l 936 956 l 690 956 m -58 0 l 475 894 l 1303 894 l 1251 653 l 942 653 l 925 572 l 1182 572 l 1129 322 l 872 322 l 854 242 l 1164 242 l 1114 0 l 482 0 l 517 167 l 390 167 l 292 0 l -58 0 m 475 396 l 565 396 l 619 653 l 611 653 l 475 396 z "},"B":{"ha":921,"x_min":-29,"x_max":932,"o":"m -29 0 l 160 894 l 690 894 q 865 839 797 894 q 932 693 932 783 q 926 642 932 665 q 880 528 913 575 q 803 453 847 481 q 863 405 840 433 q 885 328 885 376 q 883 301 885 315 q 878 271 881 286 q 762 72 851 144 q 507 0 672 0 l -29 0 m 403 551 l 528 551 q 607 611 594 551 q 608 625 608 617 q 553 667 608 667 l 428 667 l 403 551 m 333 228 l 458 228 q 538 288 525 228 q 539 296 539 292 q 539 303 539 300 q 483 343 539 343 l 358 343 l 333 228 z "},"C":{"ha":858,"x_min":24,"x_max":938,"o":"m 472 -14 q 234 25 335 -14 q 78 141 133 64 q 24 332 24 218 q 36 447 24 385 q 251 792 85 675 q 667 908 418 908 q 816 896 753 908 q 938 860 879 883 l 875 567 q 628 625 760 625 q 462 587 522 625 q 379 447 401 549 q 374 415 375 431 q 372 386 372 400 q 417 295 372 321 q 556 269 463 269 q 828 328 688 269 l 765 35 q 628 -1 697 13 q 472 -14 558 -14 z "},"Ć":{"ha":858,"x_min":24,"x_max":983,"o":"m 525 956 l 725 1269 l 983 1269 l 771 956 l 525 956 m 472 -14 q 234 25 335 -14 q 78 141 133 64 q 24 332 24 218 q 36 447 24 385 q 251 792 85 675 q 667 908 418 908 q 816 896 753 908 q 938 860 879 883 l 875 567 q 628 625 760 625 q 462 587 522 625 q 379 447 401 549 q 374 415 375 431 q 372 386 372 400 q 417 295 372 321 q 556 269 463 269 q 828 328 688 269 l 765 35 q 628 -1 697 13 q 472 -14 558 -14 z "},"Č":{"ha":857,"x_min":24,"x_max":1061,"o":"m 560 956 l 381 1256 l 610 1256 l 681 1107 l 818 1256 l 1061 1256 l 754 956 l 560 956 m 472 -14 q 234 25 335 -14 q 78 141 133 64 q 24 332 24 218 q 36 447 24 385 q 251 792 85 675 q 667 908 418 908 q 816 896 753 908 q 938 860 879 883 l 875 567 q 628 625 760 625 q 462 587 522 625 q 379 447 401 549 q 374 415 375 431 q 372 386 372 400 q 417 295 372 321 q 556 269 463 269 q 828 328 688 269 l 765 35 q 628 -1 697 13 q 472 -14 558 -14 z "},"Ç":{"ha":858,"x_min":22,"x_max":938,"o":"m 367 -333 q 325 -332 350 -333 q 278 -328 300 -331 q 247 -322 257 -325 l 271 -215 q 349 -226 307 -226 q 451 -178 443 -226 q 444 -147 457 -156 q 408 -139 432 -139 l 306 -139 l 369 -7 q 116 97 210 13 q 22 332 22 182 q 26 388 22 358 q 36 447 31 417 q 251 792 85 675 q 667 908 418 908 q 816 896 753 908 q 938 860 879 883 l 875 567 q 628 625 760 625 q 462 587 522 625 q 379 447 401 549 q 374 415 375 431 q 372 386 372 400 q 417 295 372 321 q 556 269 463 269 q 828 328 688 269 l 765 35 q 654 5 710 17 q 535 -11 599 -7 l 513 -51 q 605 -81 574 -51 q 636 -154 636 -110 q 636 -169 636 -161 q 633 -185 636 -178 q 551 -293 619 -253 q 367 -333 483 -333 z "},"Ĉ":{"ha":858,"x_min":24,"x_max":944,"o":"m 264 956 l 569 1256 l 765 1256 l 944 956 l 721 956 l 646 1104 l 514 956 l 264 956 m 472 -14 q 234 25 335 -14 q 78 141 133 64 q 24 332 24 218 q 36 447 24 385 q 251 792 85 675 q 667 908 418 908 q 816 896 753 908 q 938 860 879 883 l 875 567 q 628 625 760 625 q 462 587 522 625 q 379 447 401 549 q 374 415 375 431 q 372 386 372 400 q 417 295 372 321 q 556 269 463 269 q 828 328 688 269 l 765 35 q 628 -1 697 13 q 472 -14 558 -14 z "},"Ċ":{"ha":858,"x_min":24,"x_max":938,"o":"m 532 997 l 572 1193 l 789 1193 l 747 997 l 532 997 m 472 -14 q 234 25 335 -14 q 78 141 133 64 q 24 332 24 218 q 36 447 24 385 q 251 792 85 675 q 667 908 418 908 q 816 896 753 908 q 938 860 879 883 l 875 567 q 628 625 760 625 q 462 587 522 625 q 379 447 401 549 q 374 415 375 431 q 372 386 372 400 q 417 295 372 321 q 556 269 463 269 q 828 328 688 269 l 765 35 q 628 -1 697 13 q 472 -14 558 -14 z "},"D":{"ha":958,"x_min":-29,"x_max":967,"o":"m -29 0 l 160 894 l 585 894 q 782 854 696 894 q 917 738 868 814 q 967 554 967 663 q 963 500 967 528 q 953 442 960 472 q 851 190 918 288 q 674 46 785 92 q 396 0 564 0 l -29 0 m 361 256 l 411 256 q 505 269 467 256 q 569 324 543 283 q 611 442 594 364 q 620 491 618 469 q 622 531 622 513 q 590 603 622 588 q 488 619 557 619 l 438 619 l 361 256 z "},"Ð":{"ha":978,"x_min":-15,"x_max":986,"o":"m -10 0 l 60 331 l -15 331 l 31 544 l 106 544 l 179 894 l 604 894 q 801 854 715 894 q 937 738 888 814 q 986 554 986 663 q 983 500 986 528 q 972 442 979 472 q 871 190 938 288 q 694 46 804 92 q 415 0 583 0 l -10 0 m 381 256 l 431 256 q 524 269 486 256 q 588 324 563 283 q 631 442 614 364 q 640 491 638 469 q 642 531 642 513 q 609 603 642 588 q 507 619 576 619 l 457 619 l 440 544 l 568 544 l 522 331 l 396 331 l 381 256 z "},"Ď":{"ha":958,"x_min":-29,"x_max":967,"o":"m 453 956 l 274 1256 l 503 1256 l 574 1107 l 711 1256 l 954 1256 l 647 956 l 453 956 m -29 0 l 160 894 l 585 894 q 782 854 696 894 q 917 738 868 814 q 967 554 967 663 q 963 500 967 528 q 953 442 960 472 q 851 190 918 288 q 674 46 785 92 q 396 0 564 0 l -29 0 m 361 256 l 411 256 q 505 269 467 256 q 569 324 543 283 q 611 442 594 364 q 620 491 618 469 q 622 531 622 513 q 590 603 622 588 q 488 619 557 619 l 438 619 l 361 256 z "},"Đ":{"ha":950,"x_min":-37,"x_max":958,"o":"m -37 0 l 32 331 l -29 331 l 17 544 l 78 544 l 151 894 l 576 894 q 774 854 688 894 q 909 738 860 814 q 958 554 958 663 q 955 500 958 528 q 944 442 951 472 q 843 190 910 288 q 666 46 776 92 q 388 0 556 0 l -37 0 m 353 256 l 403 256 q 497 269 458 256 q 560 324 535 283 q 603 442 586 364 q 612 491 610 469 q 614 531 614 513 q 581 603 614 588 q 479 619 549 619 l 429 619 l 413 544 l 554 544 l 508 331 l 368 331 l 353 256 z "},"Ḍ":{"ha":958,"x_min":-29,"x_max":967,"o":"m -29 0 l 160 894 l 585 894 q 782 854 696 894 q 917 738 868 814 q 967 554 967 663 q 963 500 967 528 q 953 442 960 472 q 851 190 918 288 q 674 46 785 92 q 396 0 564 0 l -29 0 m 361 256 l 411 256 q 505 269 467 256 q 569 324 543 283 q 611 442 594 364 q 620 491 618 469 q 622 531 622 513 q 590 603 622 588 q 488 619 557 619 l 438 619 l 361 256 m 179 -296 l 221 -100 l 438 -100 l 396 -296 l 179 -296 z "},"Ḏ":{"ha":958,"x_min":-29,"x_max":967,"o":"m -29 0 l 160 894 l 585 894 q 782 854 696 894 q 917 738 868 814 q 967 554 967 663 q 963 500 967 528 q 953 442 960 472 q 851 190 918 288 q 674 46 785 92 q 396 0 564 0 l -29 0 m 361 256 l 411 256 q 505 269 467 256 q 569 324 543 283 q 611 442 594 364 q 620 491 618 469 q 622 531 622 513 q 590 603 622 588 q 488 619 557 619 l 438 619 l 361 256 m 18 -281 l 60 -86 l 543 -86 l 501 -281 l 18 -281 z "},"E":{"ha":772,"x_min":-29,"x_max":875,"o":"m -29 0 l 160 894 l 875 894 l 824 653 l 444 653 l 428 572 l 754 572 l 701 322 l 375 322 l 357 242 l 736 242 l 686 0 l -29 0 z "},"É":{"ha":772,"x_min":-29,"x_max":875,"o":"m 372 956 l 572 1269 l 831 1269 l 618 956 l 372 956 m -29 0 l 160 894 l 875 894 l 824 653 l 444 653 l 428 572 l 754 572 l 701 322 l 375 322 l 357 242 l 736 242 l 686 0 l -29 0 z "},"Ĕ":{"ha":772,"x_min":-29,"x_max":904,"o":"m 532 956 q 350 1012 417 956 q 283 1175 283 1068 q 285 1217 283 1194 q 293 1261 288 1239 l 497 1261 q 493 1238 494 1250 q 492 1215 492 1226 q 507 1161 492 1183 q 561 1139 522 1139 q 642 1176 614 1139 q 679 1261 669 1214 l 904 1261 q 772 1034 872 1113 q 532 956 672 956 m -29 0 l 160 894 l 875 894 l 824 653 l 444 653 l 428 572 l 754 572 l 701 322 l 375 322 l 357 242 l 736 242 l 686 0 l -29 0 z "},"Ě":{"ha":772,"x_min":-29,"x_max":940,"o":"m 439 956 l 260 1256 l 489 1256 l 560 1107 l 697 1256 l 940 1256 l 633 956 l 439 956 m -29 0 l 160 894 l 875 894 l 824 653 l 444 653 l 428 572 l 754 572 l 701 322 l 375 322 l 357 242 l 736 242 l 686 0 l -29 0 z "},"Ê":{"ha":772,"x_min":-29,"x_max":875,"o":"m 192 956 l 497 1256 l 693 1256 l 872 956 l 649 956 l 574 1104 l 442 956 l 192 956 m -29 0 l 160 894 l 875 894 l 824 653 l 444 653 l 428 572 l 754 572 l 701 322 l 375 322 l 357 242 l 736 242 l 686 0 l -29 0 z "},"Ế":{"ha":771,"x_min":-29,"x_max":1176,"o":"m 778 1139 l 932 1378 l 1176 1378 l 1010 1139 l 778 1139 m 199 956 l 468 1189 l 711 1189 l 879 956 l 628 956 l 572 1061 l 476 956 l 199 956 m -29 0 l 160 894 l 875 894 l 824 653 l 444 653 l 428 572 l 754 572 l 701 322 l 375 322 l 357 242 l 736 242 l 686 0 l -29 0 z "},"Ệ":{"ha":772,"x_min":-29,"x_max":875,"o":"m 188 956 l 493 1256 l 689 1256 l 868 956 l 644 956 l 569 1104 l 438 956 l 188 956 m -29 0 l 160 894 l 875 894 l 824 653 l 444 653 l 428 572 l 754 572 l 701 322 l 375 322 l 357 242 l 736 242 l 686 0 l -29 0 m 156 -296 l 197 -100 l 414 -100 l 372 -296 l 156 -296 z "},"Ề":{"ha":771,"x_min":-31,"x_max":874,"o":"m 140 1139 l 76 1378 l 321 1378 l 374 1139 l 140 1139 m 193 956 l 463 1189 l 706 1189 l 874 956 l 617 956 l 565 1061 l 465 956 l 193 956 m -31 0 l 158 894 l 874 894 l 822 653 l 443 653 l 426 572 l 753 572 l 700 322 l 374 322 l 356 242 l 735 242 l 685 0 l -31 0 z "},"Ể":{"ha":771,"x_min":-29,"x_max":1128,"o":"m 775 1107 l 799 1218 q 875 1231 857 1221 q 893 1254 893 1240 q 850 1271 893 1271 q 815 1267 833 1271 q 782 1257 797 1263 l 810 1385 q 879 1397 838 1392 q 972 1401 921 1401 q 1089 1371 1050 1401 q 1128 1296 1128 1340 q 1127 1285 1128 1290 q 1125 1274 1126 1279 q 1085 1193 1115 1226 q 1001 1150 1054 1160 l 992 1107 l 775 1107 m 188 956 l 457 1189 l 700 1189 l 868 956 l 617 956 l 561 1061 l 465 956 l 188 956 m -29 0 l 160 894 l 875 894 l 824 653 l 444 653 l 428 572 l 754 572 l 701 322 l 375 322 l 357 242 l 736 242 l 686 0 l -29 0 z "},"Ễ":{"ha":772,"x_min":-29,"x_max":907,"o":"m 732 1210 q 642 1224 685 1210 q 560 1253 600 1239 q 478 1268 519 1268 q 394 1253 432 1268 q 328 1214 356 1238 l 367 1401 q 430 1433 390 1419 q 511 1447 469 1447 q 601 1433 560 1447 q 681 1403 642 1418 q 765 1389 721 1389 q 849 1405 811 1389 q 907 1443 886 1421 l 867 1256 q 812 1224 850 1238 q 732 1210 774 1210 m 188 956 l 457 1189 l 700 1189 l 868 956 l 617 956 l 561 1061 l 465 956 l 188 956 m -29 0 l 160 894 l 875 894 l 824 653 l 444 653 l 428 572 l 754 572 l 701 322 l 375 322 l 357 242 l 736 242 l 686 0 l -29 0 z "},"Ë":{"ha":772,"x_min":-29,"x_max":875,"o":"m 274 997 l 315 1193 l 531 1193 l 489 997 l 274 997 m 599 997 l 640 1193 l 857 1193 l 815 997 l 599 997 m -29 0 l 160 894 l 875 894 l 824 653 l 444 653 l 428 572 l 754 572 l 701 322 l 375 322 l 357 242 l 736 242 l 686 0 l -29 0 z "},"Ė":{"ha":772,"x_min":-29,"x_max":875,"o":"m 424 997 l 464 1193 l 681 1193 l 639 997 l 424 997 m -29 0 l 160 894 l 875 894 l 824 653 l 444 653 l 428 572 l 754 572 l 701 322 l 375 322 l 357 242 l 736 242 l 686 0 l -29 0 z "},"Ẹ":{"ha":772,"x_min":-29,"x_max":875,"o":"m -29 0 l 160 894 l 875 894 l 824 653 l 444 653 l 428 572 l 754 572 l 701 322 l 375 322 l 357 242 l 736 242 l 686 0 l -29 0 m 143 -296 l 185 -100 l 401 -100 l 360 -296 l 143 -296 z "},"È":{"ha":772,"x_min":-29,"x_max":875,"o":"m 433 956 l 354 1269 l 613 1269 l 679 956 l 433 956 m -29 0 l 160 894 l 875 894 l 824 653 l 444 653 l 428 572 l 754 572 l 701 322 l 375 322 l 357 242 l 736 242 l 686 0 l -29 0 z "},"Ẻ":{"ha":772,"x_min":-29,"x_max":875,"o":"m 407 956 l 431 1068 q 528 1087 500 1072 q 560 1122 556 1101 q 499 1161 569 1161 q 418 1147 457 1161 l 446 1278 q 526 1293 482 1288 q 631 1299 571 1299 q 767 1265 721 1299 q 813 1178 813 1231 q 812 1164 813 1171 q 810 1150 811 1157 q 763 1056 796 1088 q 665 1006 729 1025 l 654 956 l 407 956 m -29 0 l 160 894 l 875 894 l 824 653 l 444 653 l 428 572 l 754 572 l 701 322 l 375 322 l 357 242 l 736 242 l 686 0 l -29 0 z "},"Ē":{"ha":772,"x_min":-29,"x_max":875,"o":"m 279 1011 l 321 1206 l 804 1206 l 763 1011 l 279 1011 m -29 0 l 160 894 l 875 894 l 824 653 l 444 653 l 428 572 l 754 572 l 701 322 l 375 322 l 357 242 l 736 242 l 686 0 l -29 0 z "},"Ę":{"ha":772,"x_min":-29,"x_max":875,"o":"m -29 0 l 160 894 l 875 894 l 824 653 l 444 653 l 428 572 l 754 572 l 701 322 l 375 322 l 357 242 l 736 242 l 686 0 l 596 0 q 537 -49 561 -22 q 506 -106 513 -75 q 504 -117 504 -110 q 519 -142 504 -135 q 561 -149 535 -149 q 600 -144 579 -149 q 635 -133 621 -140 l 604 -281 q 532 -297 578 -289 q 433 -306 486 -306 q 302 -278 350 -306 q 254 -194 254 -251 q 298 -77 254 -128 q 396 0 342 -26 l -29 0 z "},"Ẽ":{"ha":772,"x_min":-29,"x_max":875,"o":"m 679 963 q 584 978 629 963 q 497 1008 539 993 q 413 1024 456 1024 q 325 1008 365 1024 q 254 967 285 992 l 296 1163 q 363 1197 321 1182 q 449 1211 406 1211 q 542 1196 500 1211 q 625 1165 583 1181 q 714 1150 667 1150 q 801 1167 763 1150 q 863 1207 840 1185 l 821 1011 q 763 978 803 993 q 679 963 724 963 m -29 0 l 160 894 l 875 894 l 824 653 l 444 653 l 428 572 l 754 572 l 701 322 l 375 322 l 357 242 l 736 242 l 686 0 l -29 0 z "},"F":{"ha":764,"x_min":-29,"x_max":875,"o":"m -29 0 l 160 894 l 875 894 l 824 653 l 444 653 l 428 572 l 754 572 l 701 322 l 375 322 l 307 0 l -29 0 z "},"G":{"ha":936,"x_min":24,"x_max":957,"o":"m 460 -14 q 140 72 256 -14 q 24 326 24 158 q 27 385 24 354 q 38 447 31 415 q 244 792 86 675 q 681 908 401 908 q 833 897 767 908 q 957 863 899 885 l 899 582 q 775 616 839 607 q 642 625 711 625 q 474 587 544 625 q 381 447 403 549 q 371 371 371 407 q 406 292 371 315 q 518 269 440 269 q 603 279 563 269 l 615 333 l 467 333 l 510 536 l 936 536 l 838 74 q 678 13 774 39 q 460 -14 583 -14 z "},"Ğ":{"ha":922,"x_min":24,"x_max":1033,"o":"m 661 956 q 479 1012 546 956 q 413 1175 413 1068 q 415 1217 413 1194 q 422 1261 417 1239 l 626 1261 q 622 1238 624 1250 q 621 1215 621 1226 q 636 1161 621 1183 q 690 1139 651 1139 q 771 1176 743 1139 q 808 1261 799 1214 l 1033 1261 q 901 1034 1001 1113 q 661 956 801 956 m 460 -14 q 140 72 256 -14 q 24 326 24 158 q 27 385 24 354 q 38 447 31 415 q 244 792 86 675 q 681 908 401 908 q 833 897 767 908 q 957 863 899 885 l 899 582 q 775 616 839 607 q 642 625 711 625 q 474 587 544 625 q 381 447 403 549 q 371 371 371 407 q 406 292 371 315 q 518 269 440 269 q 603 279 563 269 l 615 333 l 467 333 l 510 536 l 936 536 l 838 74 q 678 13 774 39 q 460 -14 583 -14 z "},"Ǧ":{"ha":922,"x_min":24,"x_max":1057,"o":"m 556 954 l 376 1254 l 606 1254 l 676 1106 l 814 1254 l 1057 1254 l 750 954 l 556 954 m 460 -14 q 140 72 256 -14 q 24 326 24 158 q 27 385 24 354 q 38 447 31 415 q 244 792 86 675 q 681 908 401 908 q 833 897 767 908 q 957 863 899 885 l 899 582 q 775 616 839 607 q 642 625 711 625 q 474 587 544 625 q 381 447 403 549 q 371 371 371 407 q 406 292 371 315 q 518 269 440 269 q 603 279 563 269 l 615 333 l 467 333 l 510 536 l 936 536 l 838 74 q 678 13 774 39 q 460 -14 583 -14 z "},"Ĝ":{"ha":922,"x_min":24,"x_max":976,"o":"m 296 956 l 601 1256 l 797 1256 l 976 956 l 753 956 l 678 1104 l 546 956 l 296 956 m 460 -14 q 140 72 256 -14 q 24 326 24 158 q 27 385 24 354 q 38 447 31 415 q 244 792 86 675 q 681 908 401 908 q 833 897 767 908 q 957 863 899 885 l 899 582 q 775 616 839 607 q 642 625 711 625 q 474 587 544 625 q 381 447 403 549 q 371 371 371 407 q 406 292 371 315 q 518 269 440 269 q 603 279 563 269 l 615 333 l 467 333 l 510 536 l 936 536 l 838 74 q 678 13 774 39 q 460 -14 583 -14 z "},"Ģ":{"ha":922,"x_min":24,"x_max":957,"o":"m 460 -14 q 140 72 256 -14 q 24 326 24 158 q 27 385 24 354 q 38 447 31 415 q 244 792 86 675 q 681 908 401 908 q 833 897 767 908 q 957 863 899 885 l 899 582 q 775 616 839 607 q 642 625 711 625 q 474 587 544 625 q 381 447 403 549 q 371 371 371 407 q 406 292 371 315 q 518 269 440 269 q 603 279 563 269 l 615 333 l 467 333 l 510 536 l 936 536 l 838 74 q 678 13 774 39 q 460 -14 583 -14 m 222 -397 l 346 -51 l 594 -51 l 431 -397 l 222 -397 z "},"Ġ":{"ha":922,"x_min":24,"x_max":957,"o":"m 579 997 l 619 1193 l 836 1193 l 794 997 l 579 997 m 460 -14 q 140 72 256 -14 q 24 326 24 158 q 27 385 24 354 q 38 447 31 415 q 244 792 86 675 q 681 908 401 908 q 833 897 767 908 q 957 863 899 885 l 899 582 q 775 616 839 607 q 642 625 711 625 q 474 587 544 625 q 381 447 403 549 q 371 371 371 407 q 406 292 371 315 q 518 269 440 269 q 603 279 563 269 l 615 333 l 467 333 l 510 536 l 936 536 l 838 74 q 678 13 774 39 q 460 -14 583 -14 z "},"Ḡ":{"ha":922,"x_min":24,"x_max":961,"o":"m 436 997 l 478 1192 l 961 1192 l 919 997 l 436 997 m 460 -14 q 140 72 256 -14 q 24 326 24 158 q 27 385 24 354 q 38 447 31 415 q 244 792 86 675 q 681 908 401 908 q 833 897 767 908 q 957 863 899 885 l 899 582 q 775 616 839 607 q 642 625 711 625 q 474 587 544 625 q 381 447 403 549 q 371 371 371 407 q 406 292 371 315 q 518 269 440 269 q 603 279 563 269 l 615 333 l 467 333 l 510 536 l 936 536 l 838 74 q 678 13 774 39 q 460 -14 583 -14 z "},"H":{"ha":994,"x_min":-29,"x_max":1056,"o":"m -29 0 l 160 894 l 496 894 l 435 603 l 658 603 l 719 894 l 1056 894 l 867 0 l 531 0 l 592 292 l 368 292 l 307 0 l -29 0 z "},"Ħ":{"ha":1025,"x_min":-14,"x_max":1100,"o":"m -14 0 l 126 667 l 85 667 l 118 826 l 160 826 l 175 894 l 511 894 l 496 826 l 719 826 l 735 894 l 1071 894 l 1056 826 l 1100 826 l 1067 667 l 1022 667 l 882 0 l 546 0 l 607 292 l 383 292 l 322 0 l -14 0 m 450 603 l 674 603 l 686 667 l 463 667 l 450 603 z "},"Ḫ":{"ha":994,"x_min":-29,"x_max":1056,"o":"m -29 0 l 160 894 l 496 894 l 435 603 l 658 603 l 719 894 l 1056 894 l 867 0 l 531 0 l 592 292 l 368 292 l 307 0 l -29 0 m 343 -361 q 160 -305 226 -361 q 93 -140 93 -249 q 95 -99 93 -121 q 103 -56 97 -78 l 308 -56 q 304 -78 306 -67 q 303 -101 303 -90 q 318 -156 303 -133 q 372 -178 333 -178 q 454 -142 425 -178 q 489 -56 483 -107 l 714 -56 q 591 -283 683 -204 q 343 -361 499 -361 z "},"Ĥ":{"ha":994,"x_min":-29,"x_max":1056,"o":"m 279 956 l 585 1256 l 781 1256 l 960 956 l 736 956 l 661 1104 l 529 956 l 279 956 m -29 0 l 160 894 l 496 894 l 435 603 l 658 603 l 719 894 l 1056 894 l 867 0 l 531 0 l 592 292 l 368 292 l 307 0 l -29 0 z "},"Ḥ":{"ha":994,"x_min":-29,"x_max":1056,"o":"m -29 0 l 160 894 l 496 894 l 435 603 l 658 603 l 719 894 l 1056 894 l 867 0 l 531 0 l 592 292 l 368 292 l 307 0 l -29 0 m 246 -296 l 288 -100 l 504 -100 l 463 -296 l 246 -296 z "},"I":{"ha":435,"x_min":-29,"x_max":496,"o":"m -29 0 l 160 894 l 496 894 l 307 0 l -29 0 z "},"Ĳ":{"ha":1069,"x_min":-29,"x_max":1139,"o":"m 564 -14 q 451 -7 504 -14 q 347 18 397 0 l 406 297 q 476 277 438 283 q 556 271 515 271 q 653 296 626 271 q 694 382 681 321 l 803 894 l 1139 894 l 1013 300 q 940 128 992 199 q 797 22 888 58 q 564 -14 706 -14 m -29 0 l 160 894 l 496 894 l 307 0 l -29 0 z "},"Í":{"ha":435,"x_min":-29,"x_max":671,"o":"m 213 956 l 413 1269 l 671 1269 l 458 956 l 213 956 m -29 0 l 160 894 l 496 894 l 307 0 l -29 0 z "},"Ĭ":{"ha":432,"x_min":-31,"x_max":719,"o":"m 347 992 q 165 1048 232 992 q 99 1211 99 1104 q 101 1253 99 1231 q 108 1297 103 1275 l 313 1297 q 308 1274 310 1286 q 307 1251 307 1263 q 322 1197 307 1219 q 376 1175 338 1175 q 457 1213 429 1175 q 494 1297 485 1250 l 719 1297 q 588 1070 688 1149 q 347 992 488 992 m -31 0 l 158 894 l 494 894 l 306 0 l -31 0 z "},"Ǐ":{"ha":432,"x_min":-31,"x_max":744,"o":"m 243 956 l 64 1256 l 293 1256 l 364 1107 l 501 1256 l 744 1256 l 438 956 l 243 956 m -31 0 l 158 894 l 494 894 l 306 0 l -31 0 z "},"Î":{"ha":432,"x_min":-31,"x_max":681,"o":"m 0 956 l 306 1256 l 501 1256 l 681 956 l 457 956 l 382 1104 l 250 956 l 0 956 m -31 0 l 158 894 l 494 894 l 306 0 l -31 0 z "},"Ï":{"ha":432,"x_min":-29,"x_max":665,"o":"m 82 1011 l 124 1207 l 339 1207 l 297 1011 l 82 1011 m 407 1011 l 449 1207 l 665 1207 l 624 1011 l 407 1011 m -29 0 l 160 894 l 496 894 l 307 0 l -29 0 z "},"İ":{"ha":435,"x_min":-29,"x_max":501,"o":"m 244 1011 l 285 1207 l 501 1207 l 460 1011 l 244 1011 m -29 0 l 160 894 l 496 894 l 307 0 l -29 0 z "},"Ị":{"ha":435,"x_min":-32,"x_max":496,"o":"m -29 0 l 160 894 l 496 894 l 307 0 l -29 0 m -32 -296 l 10 -100 l 226 -100 l 185 -296 l -32 -296 z "},"Ì":{"ha":433,"x_min":-31,"x_max":494,"o":"m 215 956 l 136 1269 l 394 1269 l 461 956 l 215 956 m -31 0 l 158 894 l 494 894 l 306 0 l -31 0 z "},"Ỉ":{"ha":435,"x_min":-29,"x_max":621,"o":"m 215 956 l 239 1068 q 336 1087 308 1072 q 368 1122 364 1101 q 307 1161 378 1161 q 226 1147 265 1161 l 254 1278 q 335 1293 290 1288 q 439 1299 379 1299 q 575 1265 529 1299 q 621 1178 621 1231 q 620 1164 621 1171 q 618 1150 619 1157 q 571 1056 604 1088 q 474 1006 538 1025 l 463 956 l 215 956 m -29 0 l 160 894 l 496 894 l 307 0 l -29 0 z "},"Ī":{"ha":433,"x_min":-29,"x_max":638,"o":"m 111 1011 l 153 1206 l 638 1206 l 596 1011 l 111 1011 m -29 0 l 160 894 l 496 894 l 307 0 l -29 0 z "},"Į":{"ha":433,"x_min":-104,"x_max":494,"o":"m 75 -306 q -56 -278 -8 -306 q -104 -194 -104 -251 q -60 -77 -104 -128 q 38 0 -17 -26 l -31 0 l 158 894 l 494 894 l 306 0 l 238 0 q 178 -49 203 -22 q 147 -106 154 -75 q 146 -117 146 -110 q 161 -142 146 -135 q 203 -149 176 -149 q 242 -144 221 -149 q 276 -133 263 -140 l 246 -281 q 174 -297 219 -289 q 75 -306 128 -306 z "},"Ĩ":{"ha":433,"x_min":-31,"x_max":682,"o":"m 499 1004 q 403 1019 449 1004 q 317 1050 358 1035 q 232 1065 275 1065 q 144 1049 185 1065 q 74 1008 104 1033 l 115 1204 q 183 1238 140 1224 q 268 1253 225 1253 q 361 1238 319 1253 q 444 1207 403 1222 q 533 1192 486 1192 q 621 1209 582 1192 q 682 1249 660 1226 l 640 1053 q 583 1019 622 1035 q 499 1004 543 1004 m -31 0 l 158 894 l 494 894 l 306 0 l -31 0 z "},"J":{"ha":649,"x_min":-74,"x_max":718,"o":"m 143 -14 q 30 -7 83 -14 q -74 18 -24 0 l -15 297 q 56 277 17 283 q 135 271 94 271 q 233 296 206 271 q 274 382 260 321 l 382 894 l 718 894 l 592 300 q 519 128 571 199 q 376 22 467 58 q 143 -14 285 -14 z "},"Ĵ":{"ha":642,"x_min":-81,"x_max":904,"o":"m 224 956 l 529 1256 l 725 1256 l 904 956 l 681 956 l 606 1104 l 474 956 l 224 956 m 136 -14 q 23 -7 76 -14 q -81 18 -31 0 l -22 297 q 49 277 10 283 q 128 271 88 271 q 226 296 199 271 q 267 382 253 321 l 375 894 l 711 894 l 585 300 q 512 128 564 199 q 369 22 460 58 q 136 -14 278 -14 z "},"K":{"ha":989,"x_min":-29,"x_max":1071,"o":"m -29 0 l 160 894 l 496 894 l 443 644 l 692 894 l 1071 894 l 688 524 l 910 0 l 554 0 l 436 311 l 356 233 l 307 0 l -29 0 z "},"Ķ":{"ha":1010,"x_min":-29,"x_max":1071,"o":"m -29 0 l 160 894 l 496 894 l 443 644 l 692 894 l 1071 894 l 688 524 l 910 0 l 554 0 l 436 311 l 356 233 l 307 0 l -29 0 m 186 -397 l 310 -51 l 558 -51 l 394 -397 l 186 -397 z "},"L":{"ha":751,"x_min":-29,"x_max":726,"o":"m -29 0 l 160 894 l 496 894 l 361 256 l 726 256 l 672 0 l -29 0 z "},"Ĺ":{"ha":744,"x_min":-29,"x_max":726,"o":"m 222 956 l 422 1269 l 681 1269 l 468 956 l 222 956 m -29 0 l 160 894 l 496 894 l 361 256 l 726 256 l 672 0 l -29 0 z "},"Ľ":{"ha":744,"x_min":-29,"x_max":894,"o":"m -29 0 l 160 894 l 496 894 l 361 256 l 726 256 l 672 0 l -29 0 m 522 549 l 646 894 l 894 894 l 732 549 l 522 549 z "},"Ļ":{"ha":744,"x_min":-29,"x_max":726,"o":"m -29 0 l 160 894 l 496 894 l 361 256 l 726 256 l 672 0 l -29 0 m 119 -397 l 243 -51 l 492 -51 l 328 -397 l 119 -397 z "},"Ŀ":{"ha":744,"x_min":-29,"x_max":753,"o":"m -29 0 l 160 894 l 496 894 l 361 256 l 726 256 l 672 0 l -29 0 m 494 431 l 536 626 l 753 626 l 711 431 l 494 431 z "},"Ḷ":{"ha":744,"x_min":-29,"x_max":726,"o":"m -29 0 l 160 894 l 496 894 l 361 256 l 726 256 l 672 0 l -29 0 m 136 -296 l 178 -100 l 394 -100 l 353 -296 l 136 -296 z "},"Ḹ":{"ha":750,"x_min":-24,"x_max":732,"o":"m 107 997 l 149 1192 l 632 1192 l 590 997 l 107 997 m -24 0 l 165 894 l 501 894 l 367 256 l 732 256 l 678 0 l -24 0 m 139 -296 l 181 -100 l 397 -100 l 356 -296 l 139 -296 z "},"Ḻ":{"ha":744,"x_min":-29,"x_max":726,"o":"m -29 0 l 160 894 l 496 894 l 361 256 l 726 256 l 672 0 l -29 0 m 0 -297 l 42 -103 l 525 -103 l 483 -297 l 0 -297 z "},"Ł":{"ha":801,"x_min":-3,"x_max":783,"o":"m 28 0 l 90 297 l -3 260 l 47 494 l 139 531 l 217 894 l 553 894 l 507 678 l 613 721 l 563 486 l 457 444 l 418 256 l 783 256 l 729 0 l 28 0 z "},"M":{"ha":1100,"x_min":-29,"x_max":1161,"o":"m -29 0 l 160 894 l 471 894 l 575 525 l 833 894 l 1161 894 l 972 0 l 636 0 l 703 314 l 589 153 l 418 153 l 374 314 l 307 0 l -29 0 z "},"Ṃ":{"ha":1100,"x_min":-29,"x_max":1161,"o":"m -29 0 l 160 894 l 471 894 l 575 525 l 833 894 l 1161 894 l 972 0 l 636 0 l 703 314 l 589 153 l 418 153 l 374 314 l 307 0 l -29 0 m 301 -296 l 343 -100 l 560 -100 l 518 -296 l 301 -296 z "},"N":{"ha":967,"x_min":-29,"x_max":1028,"o":"m -29 0 l 160 894 l 442 894 l 618 544 l 692 894 l 1028 894 l 839 0 l 556 0 l 381 350 l 307 0 l -29 0 z "},"Ń":{"ha":967,"x_min":-29,"x_max":1028,"o":"m 439 956 l 639 1269 l 897 1269 l 685 956 l 439 956 m -29 0 l 160 894 l 442 894 l 618 544 l 692 894 l 1028 894 l 839 0 l 556 0 l 381 350 l 307 0 l -29 0 z "},"Ň":{"ha":967,"x_min":-29,"x_max":1028,"o":"m 501 956 l 322 1256 l 551 1256 l 622 1107 l 760 1256 l 1003 1256 l 696 956 l 501 956 m -29 0 l 160 894 l 442 894 l 618 544 l 692 894 l 1028 894 l 839 0 l 556 0 l 381 350 l 307 0 l -29 0 z "},"Ņ":{"ha":967,"x_min":-29,"x_max":1028,"o":"m -29 0 l 160 894 l 442 894 l 618 544 l 692 894 l 1028 894 l 839 0 l 556 0 l 381 350 l 307 0 l -29 0 m 172 -397 l 296 -51 l 544 -51 l 381 -397 l 172 -397 z "},"Ṅ":{"ha":967,"x_min":-29,"x_max":1028,"o":"m 504 997 l 544 1193 l 761 1193 l 719 997 l 504 997 m -29 0 l 160 894 l 442 894 l 618 544 l 692 894 l 1028 894 l 839 0 l 556 0 l 381 350 l 307 0 l -29 0 z "},"Ṇ":{"ha":967,"x_min":-29,"x_max":1028,"o":"m -29 0 l 160 894 l 442 894 l 618 544 l 692 894 l 1028 894 l 839 0 l 556 0 l 381 350 l 307 0 l -29 0 m 243 -296 l 285 -100 l 501 -100 l 460 -296 l 243 -296 z "},"Ŋ":{"ha":965,"x_min":-29,"x_max":1028,"o":"m 489 -325 q 379 -315 425 -325 q 293 -287 333 -306 l 336 -79 q 417 -93 374 -93 q 494 -37 481 -93 l 518 74 l 381 350 l 307 0 l -29 0 l 160 894 l 442 894 l 618 544 l 692 894 l 1028 894 l 825 -60 q 768 -196 810 -136 q 658 -290 726 -256 q 489 -325 589 -325 z "},"Ṉ":{"ha":967,"x_min":-29,"x_max":1028,"o":"m -29 0 l 160 894 l 442 894 l 618 544 l 692 894 l 1028 894 l 839 0 l 556 0 l 381 350 l 307 0 l -29 0 m 100 -289 l 142 -94 l 625 -94 l 583 -289 l 100 -289 z "},"Ñ":{"ha":967,"x_min":-29,"x_max":1028,"o":"m 765 963 q 670 978 715 963 q 583 1008 625 993 q 499 1024 542 1024 q 411 1008 451 1024 q 340 967 371 992 l 382 1163 q 449 1197 407 1182 q 535 1211 492 1211 q 628 1196 586 1211 q 711 1165 669 1181 q 800 1150 753 1150 q 888 1167 849 1150 q 949 1207 926 1185 l 907 1011 q 849 978 889 993 q 765 963 810 963 m -29 0 l 160 894 l 442 894 l 618 544 l 692 894 l 1028 894 l 839 0 l 556 0 l 381 350 l 307 0 l -29 0 z "},"O":{"ha":1000,"x_min":19,"x_max":1011,"o":"m 417 -14 q 208 18 297 -14 q 69 120 118 50 q 19 306 19 190 q 36 447 19 368 q 148 717 72 617 q 340 863 224 818 q 614 908 457 908 q 825 877 736 908 q 963 776 914 846 q 1011 593 1011 707 q 994 447 1011 529 q 883 178 958 279 q 692 31 808 76 q 417 -14 576 -14 m 478 271 q 591 310 551 271 q 651 447 631 350 q 660 495 657 474 q 664 535 664 517 q 639 603 664 583 q 553 624 614 624 q 440 584 479 624 q 379 447 400 544 q 371 399 374 421 q 368 360 368 378 q 393 292 368 313 q 478 271 418 271 z "},"Ó":{"ha":1000,"x_min":19,"x_max":1011,"o":"m 474 956 l 674 1269 l 932 1269 l 719 956 l 474 956 m 417 -14 q 208 18 297 -14 q 69 120 118 50 q 19 306 19 190 q 36 447 19 368 q 148 717 72 617 q 340 863 224 818 q 614 908 457 908 q 825 877 736 908 q 963 776 914 846 q 1011 593 1011 707 q 994 447 1011 529 q 883 178 958 279 q 692 31 808 76 q 417 -14 576 -14 m 478 271 q 591 310 551 271 q 651 447 631 350 q 660 495 657 474 q 664 535 664 517 q 639 603 664 583 q 553 624 614 624 q 440 584 479 624 q 379 447 400 544 q 371 399 374 421 q 368 360 368 378 q 393 292 368 313 q 478 271 418 271 z "},"Ŏ":{"ha":1000,"x_min":19,"x_max":1011,"o":"m 622 956 q 440 1012 507 956 q 374 1175 374 1068 q 376 1217 374 1194 q 383 1261 378 1239 l 588 1261 q 583 1238 585 1250 q 582 1215 582 1226 q 597 1161 582 1183 q 651 1139 613 1139 q 732 1176 704 1139 q 769 1261 760 1214 l 994 1261 q 863 1034 963 1113 q 622 956 763 956 m 417 -14 q 208 18 297 -14 q 69 120 118 50 q 19 306 19 190 q 36 447 19 368 q 148 717 72 617 q 340 863 224 818 q 614 908 457 908 q 825 877 736 908 q 963 776 914 846 q 1011 593 1011 707 q 994 447 1011 529 q 883 178 958 279 q 692 31 808 76 q 417 -14 576 -14 m 478 271 q 591 310 551 271 q 651 447 631 350 q 660 495 657 474 q 664 535 664 517 q 639 603 664 583 q 553 624 614 624 q 440 584 479 624 q 379 447 400 544 q 371 399 374 421 q 368 360 368 378 q 393 292 368 313 q 478 271 418 271 z "},"Ǒ":{"ha":1000,"x_min":19,"x_max":1028,"o":"m 526 956 l 347 1256 l 576 1256 l 647 1107 l 785 1256 l 1028 1256 l 721 956 l 526 956 m 417 -14 q 208 18 297 -14 q 69 120 118 50 q 19 306 19 190 q 36 447 19 368 q 148 717 72 617 q 340 863 224 818 q 614 908 457 908 q 825 877 736 908 q 963 776 914 846 q 1011 593 1011 707 q 994 447 1011 529 q 883 178 958 279 q 692 31 808 76 q 417 -14 576 -14 m 478 271 q 591 310 551 271 q 651 447 631 350 q 660 495 657 474 q 664 535 664 517 q 639 603 664 583 q 553 624 614 624 q 440 584 479 624 q 379 447 400 544 q 371 399 374 421 q 368 360 368 378 q 393 292 368 313 q 478 271 418 271 z "},"Ô":{"ha":1000,"x_min":19,"x_max":1011,"o":"m 283 956 l 589 1256 l 785 1256 l 964 956 l 740 956 l 665 1104 l 533 956 l 283 956 m 417 -14 q 208 18 297 -14 q 69 120 118 50 q 19 306 19 190 q 36 447 19 368 q 148 717 72 617 q 340 863 224 818 q 614 908 457 908 q 825 877 736 908 q 963 776 914 846 q 1011 593 1011 707 q 994 447 1011 529 q 883 178 958 279 q 692 31 808 76 q 417 -14 576 -14 m 478 271 q 591 310 551 271 q 651 447 631 350 q 660 495 657 474 q 664 535 664 517 q 639 603 664 583 q 553 624 614 624 q 440 584 479 624 q 379 447 400 544 q 371 399 374 421 q 368 360 368 378 q 393 292 368 313 q 478 271 418 271 z "},"Ố":{"ha":999,"x_min":19,"x_max":1258,"o":"m 860 1139 l 1014 1378 l 1258 1378 l 1092 1139 l 860 1139 m 281 956 l 550 1189 l 793 1189 l 961 956 l 710 956 l 654 1061 l 558 956 l 281 956 m 417 -14 q 208 18 297 -14 q 69 120 118 50 q 19 306 19 190 q 36 447 19 368 q 148 717 72 617 q 340 863 224 818 q 614 908 457 908 q 825 877 736 908 q 963 776 914 846 q 1011 593 1011 707 q 994 447 1011 529 q 883 178 958 279 q 692 31 808 76 q 417 -14 576 -14 m 478 271 q 591 310 551 271 q 651 447 631 350 q 660 495 657 474 q 664 535 664 517 q 639 603 664 583 q 553 624 614 624 q 440 584 479 624 q 379 447 400 544 q 371 399 374 421 q 368 360 368 378 q 393 292 368 313 q 478 271 418 271 z "},"Ộ":{"ha":1000,"x_min":19,"x_max":1011,"o":"m 283 956 l 589 1256 l 785 1256 l 964 956 l 740 956 l 665 1104 l 533 956 l 283 956 m 417 -14 q 208 18 297 -14 q 69 120 118 50 q 19 306 19 190 q 36 447 19 368 q 148 717 72 617 q 340 863 224 818 q 614 908 457 908 q 825 877 736 908 q 963 776 914 846 q 1011 593 1011 707 q 994 447 1011 529 q 883 178 958 279 q 692 31 808 76 q 417 -14 576 -14 m 478 271 q 591 310 551 271 q 651 447 631 350 q 660 495 657 474 q 664 535 664 517 q 639 603 664 583 q 553 624 614 624 q 440 584 479 624 q 379 447 400 544 q 371 399 374 421 q 368 360 368 378 q 393 292 368 313 q 478 271 418 271 m 251 -296 l 293 -100 l 510 -100 l 468 -296 l 251 -296 z "},"Ồ":{"ha":1000,"x_min":19,"x_max":1011,"o":"m 229 1139 l 165 1378 l 410 1378 l 463 1139 l 229 1139 m 282 956 l 551 1189 l 794 1189 l 963 956 l 706 956 l 654 1061 l 554 956 l 282 956 m 417 -14 q 208 18 297 -14 q 69 120 118 50 q 19 306 19 190 q 36 447 19 368 q 148 717 72 617 q 340 863 224 818 q 614 908 457 908 q 825 877 736 908 q 963 776 914 846 q 1011 593 1011 707 q 994 447 1011 529 q 883 178 958 279 q 692 31 808 76 q 417 -14 576 -14 m 478 271 q 591 310 551 271 q 651 447 631 350 q 660 495 657 474 q 664 535 664 517 q 639 603 664 583 q 553 624 614 624 q 440 584 479 624 q 379 447 400 544 q 371 399 374 421 q 368 360 368 378 q 393 292 368 313 q 478 271 418 271 z "},"Ổ":{"ha":999,"x_min":19,"x_max":1213,"o":"m 860 1107 l 883 1218 q 960 1231 942 1221 q 978 1254 978 1240 q 935 1271 978 1271 q 900 1267 918 1271 q 867 1257 882 1263 l 894 1385 q 964 1397 922 1392 q 1057 1401 1006 1401 q 1174 1371 1135 1401 q 1213 1296 1213 1340 q 1212 1285 1213 1290 q 1210 1274 1211 1279 q 1169 1193 1200 1226 q 1086 1150 1139 1160 l 1076 1107 l 860 1107 m 272 956 l 542 1189 l 785 1189 l 953 956 l 701 956 l 646 1061 l 550 956 l 272 956 m 417 -14 q 208 18 297 -14 q 69 120 118 50 q 19 306 19 190 q 36 447 19 368 q 148 717 72 617 q 340 863 224 818 q 614 908 457 908 q 825 877 736 908 q 963 776 914 846 q 1011 593 1011 707 q 994 447 1011 529 q 883 178 958 279 q 692 31 808 76 q 417 -14 576 -14 m 478 271 q 591 310 551 271 q 651 447 631 350 q 660 495 657 474 q 664 535 664 517 q 639 603 664 583 q 553 624 614 624 q 440 584 479 624 q 379 447 400 544 q 371 399 374 421 q 368 360 368 378 q 393 292 368 313 q 478 271 418 271 z "},"Ỗ":{"ha":1000,"x_min":19,"x_max":1011,"o":"m 821 1210 q 731 1224 774 1210 q 649 1253 689 1239 q 567 1268 608 1268 q 483 1253 521 1268 q 417 1214 444 1238 l 456 1401 q 519 1433 479 1419 q 600 1447 558 1447 q 690 1433 649 1447 q 770 1403 731 1418 q 854 1389 810 1389 q 938 1405 900 1389 q 996 1443 975 1421 l 956 1256 q 901 1224 939 1238 q 821 1210 863 1210 m 272 956 l 542 1189 l 785 1189 l 953 956 l 701 956 l 646 1061 l 550 956 l 272 956 m 417 -14 q 208 18 297 -14 q 69 120 118 50 q 19 306 19 190 q 36 447 19 368 q 148 717 72 617 q 340 863 224 818 q 614 908 457 908 q 825 877 736 908 q 963 776 914 846 q 1011 593 1011 707 q 994 447 1011 529 q 883 178 958 279 q 692 31 808 76 q 417 -14 576 -14 m 478 271 q 591 310 551 271 q 651 447 631 350 q 660 495 657 474 q 664 535 664 517 q 639 603 664 583 q 553 624 614 624 q 440 584 479 624 q 379 447 400 544 q 371 399 374 421 q 368 360 368 378 q 393 292 368 313 q 478 271 418 271 z "},"Ö":{"ha":1000,"x_min":19,"x_max":1011,"o":"m 361 997 l 403 1193 l 618 1193 l 576 997 l 361 997 m 686 997 l 728 1193 l 944 1193 l 903 997 l 686 997 m 417 -14 q 208 18 297 -14 q 69 120 118 50 q 19 306 19 190 q 36 447 19 368 q 148 717 72 617 q 340 863 224 818 q 614 908 457 908 q 825 877 736 908 q 963 776 914 846 q 1011 593 1011 707 q 994 447 1011 529 q 883 178 958 279 q 692 31 808 76 q 417 -14 576 -14 m 478 271 q 591 310 551 271 q 651 447 631 350 q 660 495 657 474 q 664 535 664 517 q 639 603 664 583 q 553 624 614 624 q 440 584 479 624 q 379 447 400 544 q 371 399 374 421 q 368 360 368 378 q 393 292 368 313 q 478 271 418 271 z "},"Ọ":{"ha":1000,"x_min":19,"x_max":1011,"o":"m 417 -14 q 208 18 297 -14 q 69 120 118 50 q 19 306 19 190 q 36 447 19 368 q 148 717 72 617 q 340 863 224 818 q 614 908 457 908 q 825 877 736 908 q 963 776 914 846 q 1011 593 1011 707 q 994 447 1011 529 q 883 178 958 279 q 692 31 808 76 q 417 -14 576 -14 m 478 271 q 591 310 551 271 q 651 447 631 350 q 660 495 657 474 q 664 535 664 517 q 639 603 664 583 q 553 624 614 624 q 440 584 479 624 q 379 447 400 544 q 371 399 374 421 q 368 360 368 378 q 393 292 368 313 q 478 271 418 271 m 250 -296 l 292 -100 l 508 -100 l 467 -296 l 250 -296 z "},"Ò":{"ha":1000,"x_min":19,"x_max":1011,"o":"m 508 956 l 429 1269 l 688 1269 l 754 956 l 508 956 m 417 -14 q 208 18 297 -14 q 69 120 118 50 q 19 306 19 190 q 36 447 19 368 q 148 717 72 617 q 340 863 224 818 q 614 908 457 908 q 825 877 736 908 q 963 776 914 846 q 1011 593 1011 707 q 994 447 1011 529 q 883 178 958 279 q 692 31 808 76 q 417 -14 576 -14 m 478 271 q 591 310 551 271 q 651 447 631 350 q 660 495 657 474 q 664 535 664 517 q 639 603 664 583 q 553 624 614 624 q 440 584 479 624 q 379 447 400 544 q 371 399 374 421 q 368 360 368 378 q 393 292 368 313 q 478 271 418 271 z "},"Ỏ":{"ha":1000,"x_min":19,"x_max":1011,"o":"m 494 956 l 518 1068 q 615 1087 588 1072 q 647 1122 643 1101 q 586 1161 657 1161 q 506 1147 544 1161 l 533 1278 q 614 1293 569 1288 q 718 1299 658 1299 q 854 1265 808 1299 q 900 1178 900 1231 q 899 1164 900 1171 q 897 1150 899 1157 q 850 1056 883 1088 q 753 1006 817 1025 l 742 956 l 494 956 m 417 -14 q 208 18 297 -14 q 69 120 118 50 q 19 306 19 190 q 36 447 19 368 q 148 717 72 617 q 340 863 224 818 q 614 908 457 908 q 825 877 736 908 q 963 776 914 846 q 1011 593 1011 707 q 994 447 1011 529 q 883 178 958 279 q 692 31 808 76 q 417 -14 576 -14 m 478 271 q 591 310 551 271 q 651 447 631 350 q 660 495 657 474 q 664 535 664 517 q 639 603 664 583 q 553 624 614 624 q 440 584 479 624 q 379 447 400 544 q 371 399 374 421 q 368 360 368 378 q 393 292 368 313 q 478 271 418 271 z "},"Ơ":{"ha":1140,"x_min":19,"x_max":1271,"o":"m 417 -14 q 208 18 297 -14 q 69 120 118 50 q 19 306 19 190 q 36 447 19 368 q 148 717 72 617 q 340 863 224 818 q 614 908 457 908 q 780 891 706 908 q 906 835 854 874 q 992 865 963 838 q 1036 956 1022 892 l 1271 956 q 1181 738 1240 813 q 1010 636 1121 663 q 1011 617 1011 626 q 1011 596 1011 607 q 994 447 1011 531 q 883 178 958 279 q 692 31 808 76 q 417 -14 576 -14 m 478 271 q 591 310 551 271 q 651 447 631 350 q 660 495 657 474 q 664 535 664 517 q 639 603 664 583 q 553 624 614 624 q 440 584 479 624 q 379 447 400 544 q 371 399 374 421 q 368 360 368 378 q 393 292 368 313 q 478 271 418 271 z "},"Ớ":{"ha":1140,"x_min":19,"x_max":1271,"o":"m 510 956 l 710 1269 l 968 1269 l 756 956 l 510 956 m 417 -14 q 208 18 297 -14 q 69 120 118 50 q 19 306 19 190 q 36 447 19 368 q 148 717 72 617 q 340 863 224 818 q 614 908 457 908 q 780 891 706 908 q 906 835 854 874 q 992 865 963 838 q 1036 956 1022 892 l 1271 956 q 1181 738 1240 813 q 1010 636 1121 663 q 1011 617 1011 626 q 1011 596 1011 607 q 994 447 1011 531 q 883 178 958 279 q 692 31 808 76 q 417 -14 576 -14 m 478 271 q 591 310 551 271 q 651 447 631 350 q 660 495 657 474 q 664 535 664 517 q 639 603 664 583 q 553 624 614 624 q 440 584 479 624 q 379 447 400 544 q 371 399 374 421 q 368 360 368 378 q 393 292 368 313 q 478 271 418 271 z "},"Ợ":{"ha":1140,"x_min":19,"x_max":1271,"o":"m 417 -14 q 208 18 297 -14 q 69 120 118 50 q 19 306 19 190 q 36 447 19 368 q 148 717 72 617 q 340 863 224 818 q 614 908 457 908 q 780 891 706 908 q 906 835 854 874 q 992 865 963 838 q 1036 956 1022 892 l 1271 956 q 1181 738 1240 813 q 1010 636 1121 663 q 1011 617 1011 626 q 1011 596 1011 607 q 994 447 1011 531 q 883 178 958 279 q 692 31 808 76 q 417 -14 576 -14 m 478 271 q 591 310 551 271 q 651 447 631 350 q 660 495 657 474 q 664 535 664 517 q 639 603 664 583 q 553 624 614 624 q 440 584 479 624 q 379 447 400 544 q 371 399 374 421 q 368 360 368 378 q 393 292 368 313 q 478 271 418 271 m 253 -296 l 294 -100 l 511 -100 l 469 -296 l 253 -296 z "},"Ờ":{"ha":1140,"x_min":19,"x_max":1271,"o":"m 528 956 l 449 1269 l 707 1269 l 774 956 l 528 956 m 417 -14 q 208 18 297 -14 q 69 120 118 50 q 19 306 19 190 q 36 447 19 368 q 148 717 72 617 q 340 863 224 818 q 614 908 457 908 q 780 891 706 908 q 906 835 854 874 q 992 865 963 838 q 1036 956 1022 892 l 1271 956 q 1181 738 1240 813 q 1010 636 1121 663 q 1011 617 1011 626 q 1011 596 1011 607 q 994 447 1011 531 q 883 178 958 279 q 692 31 808 76 q 417 -14 576 -14 m 478 271 q 591 310 551 271 q 651 447 631 350 q 660 495 657 474 q 664 535 664 517 q 639 603 664 583 q 553 624 614 624 q 440 584 479 624 q 379 447 400 544 q 371 399 374 421 q 368 360 368 378 q 393 292 368 313 q 478 271 418 271 z "},"Ở":{"ha":1140,"x_min":19,"x_max":1271,"o":"m 496 956 l 519 1068 q 617 1087 589 1072 q 649 1122 644 1101 q 588 1161 658 1161 q 507 1147 546 1161 l 535 1278 q 615 1293 571 1288 q 719 1299 660 1299 q 856 1265 810 1299 q 901 1178 901 1231 q 901 1164 901 1171 q 899 1150 900 1157 q 851 1056 885 1088 q 754 1006 818 1025 l 743 956 l 496 956 m 417 -14 q 208 18 297 -14 q 69 120 118 50 q 19 306 19 190 q 36 447 19 368 q 148 717 72 617 q 340 863 224 818 q 614 908 457 908 q 780 891 706 908 q 906 835 854 874 q 992 865 963 838 q 1036 956 1022 892 l 1271 956 q 1181 738 1240 813 q 1010 636 1121 663 q 1011 617 1011 626 q 1011 596 1011 607 q 994 447 1011 531 q 883 178 958 279 q 692 31 808 76 q 417 -14 576 -14 m 478 271 q 591 310 551 271 q 651 447 631 350 q 660 495 657 474 q 664 535 664 517 q 639 603 664 583 q 553 624 614 624 q 440 584 479 624 q 379 447 400 544 q 371 399 374 421 q 368 360 368 378 q 393 292 368 313 q 478 271 418 271 z "},"Ỡ":{"ha":1140,"x_min":19,"x_max":1271,"o":"m 775 956 q 680 971 725 956 q 593 1001 635 986 q 508 1017 551 1017 q 421 1001 461 1017 q 350 960 381 985 l 392 1156 q 459 1190 417 1175 q 544 1204 501 1204 q 638 1189 596 1204 q 721 1158 679 1174 q 810 1143 763 1143 q 897 1160 858 1143 q 958 1200 936 1178 l 917 1004 q 859 971 899 986 q 775 956 819 956 m 417 -14 q 208 18 297 -14 q 69 120 118 50 q 19 306 19 190 q 36 447 19 368 q 148 717 72 617 q 340 863 224 818 q 614 908 457 908 q 780 891 706 908 q 906 835 854 874 q 992 865 963 838 q 1036 956 1022 892 l 1271 956 q 1181 738 1240 813 q 1010 636 1121 663 q 1011 617 1011 626 q 1011 596 1011 607 q 994 447 1011 531 q 883 178 958 279 q 692 31 808 76 q 417 -14 576 -14 m 478 271 q 591 310 551 271 q 651 447 631 350 q 660 495 657 474 q 664 535 664 517 q 639 603 664 583 q 553 624 614 624 q 440 584 479 624 q 379 447 400 544 q 371 399 374 421 q 368 360 368 378 q 393 292 368 313 q 478 271 418 271 z "},"Ő":{"ha":1000,"x_min":19,"x_max":1100,"o":"m 249 956 l 440 1238 l 725 1238 l 508 956 l 249 956 m 622 956 l 814 1238 l 1100 1238 l 882 956 l 622 956 m 417 -14 q 208 18 297 -14 q 69 120 118 50 q 19 306 19 190 q 36 447 19 368 q 148 717 72 617 q 340 863 224 818 q 614 908 457 908 q 825 877 736 908 q 963 776 914 846 q 1011 593 1011 707 q 994 447 1011 529 q 883 178 958 279 q 692 31 808 76 q 417 -14 576 -14 m 478 271 q 591 310 551 271 q 651 447 631 350 q 660 495 657 474 q 664 535 664 517 q 639 603 664 583 q 553 624 614 624 q 440 584 479 624 q 379 447 400 544 q 371 399 374 421 q 368 360 368 378 q 393 292 368 313 q 478 271 418 271 z "},"Ō":{"ha":1000,"x_min":19,"x_max":1011,"o":"m 385 1013 l 426 1207 l 910 1207 l 868 1013 l 385 1013 m 417 -14 q 208 18 297 -14 q 69 120 118 50 q 19 306 19 190 q 36 447 19 368 q 148 717 72 617 q 340 863 224 818 q 614 908 457 908 q 825 877 736 908 q 963 776 914 846 q 1011 593 1011 707 q 994 447 1011 529 q 883 178 958 279 q 692 31 808 76 q 417 -14 576 -14 m 478 271 q 591 310 551 271 q 651 447 631 350 q 660 495 657 474 q 664 535 664 517 q 639 603 664 583 q 553 624 614 624 q 440 584 479 624 q 379 447 400 544 q 371 399 374 421 q 368 360 368 378 q 393 292 368 313 q 478 271 418 271 z "},"Ø":{"ha":1000,"x_min":19,"x_max":1011,"o":"m 138 -74 l 197 22 q 67 124 114 56 q 19 304 19 193 q 36 447 19 368 q 148 717 72 617 q 340 863 224 818 q 614 908 457 908 q 680 906 649 908 q 740 899 711 903 l 781 963 l 888 963 l 832 874 q 965 773 918 842 q 1011 593 1011 704 q 994 447 1011 529 q 883 178 958 279 q 692 31 808 76 q 417 -14 576 -14 q 350 -11 382 -14 q 288 -3 318 -8 l 244 -74 l 138 -74 m 374 306 l 575 631 q 565 632 569 632 q 554 632 560 632 q 435 591 476 632 q 372 447 394 550 q 364 403 367 424 q 361 365 361 383 q 374 306 361 329 m 453 263 l 476 263 q 595 304 554 263 q 658 447 636 346 q 666 492 664 471 q 668 529 668 513 q 656 590 668 568 l 453 263 z "},"Ǿ":{"ha":1000,"x_min":19,"x_max":1011,"o":"m 426 956 l 626 1269 l 885 1269 l 672 956 l 426 956 m 138 -74 l 197 22 q 67 124 114 56 q 19 304 19 193 q 36 447 19 368 q 148 717 72 617 q 340 863 224 818 q 614 908 457 908 q 680 906 649 908 q 740 899 711 903 l 781 963 l 888 963 l 832 874 q 965 773 918 842 q 1011 593 1011 704 q 994 447 1011 529 q 883 178 958 279 q 692 31 808 76 q 417 -14 576 -14 q 350 -11 382 -14 q 288 -3 318 -8 l 244 -74 l 138 -74 m 374 306 l 575 631 q 565 632 569 632 q 554 632 560 632 q 435 591 476 632 q 372 447 394 550 q 364 403 367 424 q 361 365 361 383 q 374 306 361 329 m 453 263 l 476 263 q 595 304 554 263 q 658 447 636 346 q 666 492 664 471 q 668 529 668 513 q 656 590 668 568 l 453 263 z "},"Õ":{"ha":1000,"x_min":19,"x_max":1011,"o":"m 779 990 q 684 1006 729 990 q 597 1036 639 1021 q 513 1051 556 1051 q 425 1035 465 1051 q 354 994 385 1019 l 396 1190 q 463 1224 421 1210 q 549 1239 506 1239 q 642 1224 600 1239 q 725 1193 683 1208 q 814 1178 767 1178 q 901 1195 863 1178 q 963 1235 940 1213 l 921 1039 q 863 1006 903 1021 q 779 990 824 990 m 417 -14 q 208 18 297 -14 q 69 120 118 50 q 19 306 19 190 q 36 447 19 368 q 148 717 72 617 q 340 863 224 818 q 614 908 457 908 q 825 877 736 908 q 963 776 914 846 q 1011 593 1011 707 q 994 447 1011 529 q 883 178 958 279 q 692 31 808 76 q 417 -14 576 -14 m 478 271 q 591 310 551 271 q 651 447 631 350 q 660 495 657 474 q 664 535 664 517 q 639 603 664 583 q 553 624 614 624 q 440 584 479 624 q 379 447 400 544 q 371 399 374 421 q 368 360 368 378 q 393 292 368 313 q 478 271 418 271 z "},"Œ":{"ha":1376,"x_min":19,"x_max":1465,"o":"m 417 -14 q 208 18 297 -14 q 69 120 118 50 q 19 306 19 190 q 36 447 19 368 q 148 717 72 617 q 340 863 224 818 q 614 908 457 908 q 692 905 654 908 q 764 894 731 901 l 1465 894 l 1414 653 l 1035 653 l 1018 572 l 1344 572 l 1292 322 l 965 322 l 947 242 l 1326 242 l 1276 0 l 583 0 q 503 -10 544 -7 q 417 -14 461 -14 m 478 271 q 591 310 551 271 q 651 447 631 350 q 660 495 657 474 q 664 535 664 517 q 639 603 664 583 q 553 624 614 624 q 440 584 479 624 q 379 447 400 544 q 371 399 374 421 q 368 360 368 378 q 393 292 368 313 q 478 271 418 271 z "},"P":{"ha":883,"x_min":-29,"x_max":938,"o":"m -29 0 l 160 894 l 663 894 q 816 860 756 894 q 907 767 876 826 q 938 633 938 708 q 935 591 938 613 q 928 546 933 569 q 855 370 907 449 q 717 246 803 292 q 510 200 632 200 l 349 200 l 307 0 l -29 0 m 404 463 l 486 463 q 552 485 526 463 q 586 546 578 507 q 590 575 590 563 q 528 632 590 632 l 440 632 l 404 463 z "},"Þ":{"ha":885,"x_min":-29,"x_max":915,"o":"m -29 0 l 160 894 l 496 894 l 475 794 l 642 794 q 792 759 731 794 q 884 664 853 724 q 915 528 915 604 q 907 446 915 488 q 834 270 886 349 q 697 146 782 192 q 489 100 611 100 l 328 100 l 307 0 l -29 0 m 383 363 l 465 363 q 531 385 506 363 q 565 446 557 407 q 568 461 568 454 q 568 475 568 468 q 507 532 568 532 l 419 532 l 383 363 z "},"Q":{"ha":1000,"x_min":19,"x_max":1011,"o":"m 488 -239 q 326 -187 381 -239 q 271 -50 271 -135 q 275 -1 271 -26 q 88 96 157 22 q 19 304 19 169 q 36 447 19 368 q 148 717 72 617 q 340 863 224 818 q 614 908 457 908 q 825 877 736 908 q 963 776 914 846 q 1011 593 1011 707 q 994 447 1011 529 q 834 120 947 226 q 535 -7 721 14 q 554 -39 535 -31 q 613 -47 574 -47 q 717 -31 665 -47 l 676 -217 q 596 -232 647 -225 q 488 -239 544 -239 m 478 271 q 591 310 551 271 q 651 447 631 350 q 660 495 657 474 q 664 535 664 517 q 639 603 664 583 q 553 624 614 624 q 440 584 479 624 q 379 447 400 544 q 371 399 374 421 q 368 360 368 378 q 393 292 368 313 q 478 271 418 271 z "},"R":{"ha":911,"x_min":-29,"x_max":939,"o":"m -29 0 l 160 894 l 663 894 q 866 822 793 894 q 939 638 939 750 q 931 560 939 600 q 856 402 913 469 q 715 289 800 335 q 743 243 738 271 l 797 0 l 447 0 l 401 199 q 368 228 396 228 l 354 228 l 307 0 l -29 0 m 411 490 l 493 490 q 589 560 575 490 q 591 572 590 567 q 592 583 592 578 q 528 632 592 632 l 440 632 l 411 490 z "},"Ŕ":{"ha":911,"x_min":-29,"x_max":939,"o":"m 401 956 l 601 1269 l 860 1269 l 647 956 l 401 956 m -29 0 l 160 894 l 663 894 q 866 822 793 894 q 939 638 939 750 q 931 560 939 600 q 856 402 913 469 q 715 289 800 335 q 743 243 738 271 l 797 0 l 447 0 l 401 199 q 368 228 396 228 l 354 228 l 307 0 l -29 0 m 411 490 l 493 490 q 589 560 575 490 q 591 572 590 567 q 592 583 592 578 q 528 632 592 632 l 440 632 l 411 490 z "},"Ř":{"ha":911,"x_min":-29,"x_max":951,"o":"m 450 956 l 271 1256 l 500 1256 l 571 1107 l 708 1256 l 951 1256 l 644 956 l 450 956 m -29 0 l 160 894 l 663 894 q 866 822 793 894 q 939 638 939 750 q 931 560 939 600 q 856 402 913 469 q 715 289 800 335 q 743 243 738 271 l 797 0 l 447 0 l 401 199 q 368 228 396 228 l 354 228 l 307 0 l -29 0 m 411 490 l 493 490 q 589 560 575 490 q 591 572 590 567 q 592 583 592 578 q 528 632 592 632 l 440 632 l 411 490 z "},"Ŗ":{"ha":911,"x_min":-29,"x_max":939,"o":"m -29 0 l 160 894 l 663 894 q 866 822 793 894 q 939 638 939 750 q 931 560 939 600 q 856 402 913 469 q 715 289 800 335 q 743 243 738 271 l 797 0 l 447 0 l 401 199 q 368 228 396 228 l 354 228 l 307 0 l -29 0 m 411 490 l 493 490 q 589 560 575 490 q 591 572 590 567 q 592 583 592 578 q 528 632 592 632 l 440 632 l 411 490 m 121 -397 l 244 -51 l 493 -51 l 329 -397 l 121 -397 z "},"Ṛ":{"ha":911,"x_min":-29,"x_max":939,"o":"m -29 0 l 160 894 l 663 894 q 866 822 793 894 q 939 638 939 750 q 931 560 939 600 q 856 402 913 469 q 715 289 800 335 q 743 243 738 271 l 797 0 l 447 0 l 401 199 q 368 228 396 228 l 354 228 l 307 0 l -29 0 m 411 490 l 493 490 q 589 560 575 490 q 591 572 590 567 q 592 583 592 578 q 528 632 592 632 l 440 632 l 411 490 m 186 -296 l 228 -100 l 444 -100 l 403 -296 l 186 -296 z "},"Ṝ":{"ha":911,"x_min":-29,"x_max":939,"o":"m 307 997 l 349 1192 l 832 1192 l 790 997 l 307 997 m -29 0 l 160 894 l 663 894 q 866 822 793 894 q 939 638 939 750 q 931 560 939 600 q 856 402 913 469 q 715 289 800 335 q 743 243 738 271 l 797 0 l 447 0 l 401 199 q 368 228 396 228 l 354 228 l 307 0 l -29 0 m 411 490 l 493 490 q 589 560 575 490 q 591 572 590 567 q 592 583 592 578 q 528 632 592 632 l 440 632 l 411 490 m 186 -296 l 228 -100 l 444 -100 l 403 -296 l 186 -296 z "},"Ṟ":{"ha":911,"x_min":-29,"x_max":939,"o":"m -29 0 l 160 894 l 663 894 q 866 822 793 894 q 939 638 939 750 q 931 560 939 600 q 856 402 913 469 q 715 289 800 335 q 743 243 738 271 l 797 0 l 447 0 l 401 199 q 368 228 396 228 l 354 228 l 307 0 l -29 0 m 411 490 l 493 490 q 589 560 575 490 q 591 572 590 567 q 592 583 592 578 q 528 632 592 632 l 440 632 l 411 490 m 53 -289 l 94 -94 l 578 -94 l 536 -289 l 53 -289 z "},"S":{"ha":778,"x_min":-40,"x_max":813,"o":"m 275 -14 q 97 2 181 -14 q -40 49 13 18 l 13 300 q 149 247 72 268 q 290 226 226 226 q 361 238 335 226 q 388 272 388 250 q 347 307 388 294 q 243 346 307 319 q 110 430 154 383 q 65 551 65 476 q 75 629 65 589 q 210 840 106 771 q 528 908 314 908 q 625 902 572 908 q 728 886 678 896 q 813 865 778 876 l 758 613 q 634 656 690 644 q 533 667 578 667 q 482 664 508 667 q 437 653 456 661 q 418 628 418 644 q 448 602 418 611 q 539 574 478 593 q 701 486 656 539 q 746 358 746 433 q 743 315 746 338 q 735 268 740 293 q 665 119 717 183 q 518 21 613 56 q 275 -14 424 -14 z "},"Ś":{"ha":778,"x_min":-40,"x_max":831,"o":"m 372 956 l 572 1269 l 831 1269 l 618 956 l 372 956 m 275 -14 q 97 2 181 -14 q -40 49 13 18 l 13 300 q 149 247 72 268 q 290 226 226 226 q 361 238 335 226 q 388 272 388 250 q 347 307 388 294 q 243 346 307 319 q 110 430 154 383 q 65 551 65 476 q 75 629 65 589 q 210 840 106 771 q 528 908 314 908 q 625 902 572 908 q 728 886 678 896 q 813 865 778 876 l 758 613 q 634 656 690 644 q 533 667 578 667 q 482 664 508 667 q 437 653 456 661 q 418 628 418 644 q 448 602 418 611 q 539 574 478 593 q 701 486 656 539 q 746 358 746 433 q 743 315 746 338 q 735 268 740 293 q 665 119 717 183 q 518 21 613 56 q 275 -14 424 -14 z "},"Š":{"ha":778,"x_min":-40,"x_max":921,"o":"m 419 956 l 240 1256 l 469 1256 l 540 1107 l 678 1256 l 921 1256 l 614 956 l 419 956 m 275 -14 q 97 2 181 -14 q -40 49 13 18 l 13 300 q 149 247 72 268 q 290 226 226 226 q 361 238 335 226 q 388 272 388 250 q 347 307 388 294 q 243 346 307 319 q 110 430 154 383 q 65 551 65 476 q 75 629 65 589 q 210 840 106 771 q 528 908 314 908 q 625 902 572 908 q 728 886 678 896 q 813 865 778 876 l 758 613 q 634 656 690 644 q 533 667 578 667 q 482 664 508 667 q 437 653 456 661 q 418 628 418 644 q 448 602 418 611 q 539 574 478 593 q 701 486 656 539 q 746 358 746 433 q 743 315 746 338 q 735 268 740 293 q 665 119 717 183 q 518 21 613 56 q 275 -14 424 -14 z "},"Ş":{"ha":778,"x_min":-40,"x_max":813,"o":"m 183 -333 q 142 -332 167 -333 q 95 -328 117 -331 q 64 -322 74 -325 l 88 -215 q 165 -226 124 -226 q 268 -178 260 -226 q 261 -147 274 -156 q 225 -139 249 -139 l 122 -139 l 185 -10 q 58 12 117 -3 q -40 49 0 26 l 13 300 q 149 247 72 268 q 290 226 226 226 q 361 238 335 226 q 388 272 388 250 q 347 307 388 294 q 243 346 307 319 q 110 430 154 383 q 65 551 65 476 q 75 629 65 589 q 210 840 106 771 q 528 908 314 908 q 625 902 572 908 q 728 886 678 896 q 813 865 778 876 l 758 613 q 634 656 690 644 q 533 667 578 667 q 482 664 508 667 q 437 653 456 661 q 418 628 418 644 q 448 602 418 611 q 539 574 478 593 q 701 486 656 539 q 746 358 746 433 q 743 315 746 338 q 735 268 740 293 q 674 131 718 190 q 551 35 629 71 q 351 -11 474 -1 l 329 -51 q 422 -81 390 -51 q 453 -154 453 -110 q 453 -169 453 -161 q 450 -185 453 -178 q 368 -293 436 -253 q 183 -333 300 -333 z "},"Ŝ":{"ha":763,"x_min":-40,"x_max":836,"o":"m 156 956 l 461 1256 l 657 1256 l 836 956 l 613 956 l 538 1104 l 406 956 l 156 956 m 275 -14 q 97 2 181 -14 q -40 49 13 18 l 13 300 q 149 247 72 268 q 290 226 226 226 q 361 238 335 226 q 388 272 388 250 q 347 307 388 294 q 243 346 307 319 q 110 430 154 383 q 65 551 65 476 q 75 629 65 589 q 210 840 106 771 q 528 908 314 908 q 625 902 572 908 q 728 886 678 896 q 813 865 778 876 l 758 613 q 634 656 690 644 q 533 667 578 667 q 482 664 508 667 q 437 653 456 661 q 418 628 418 644 q 448 602 418 611 q 539 574 478 593 q 701 486 656 539 q 746 358 746 433 q 743 315 746 338 q 735 268 740 293 q 665 119 717 183 q 518 21 613 56 q 275 -14 424 -14 z "},"Ș":{"ha":778,"x_min":-40,"x_max":813,"o":"m 275 -14 q 97 2 181 -14 q -40 49 13 18 l 13 300 q 149 247 72 268 q 290 226 226 226 q 361 238 335 226 q 388 272 388 250 q 347 307 388 294 q 243 346 307 319 q 110 430 154 383 q 65 551 65 476 q 75 629 65 589 q 210 840 106 771 q 528 908 314 908 q 625 902 572 908 q 728 886 678 896 q 813 865 778 876 l 758 613 q 634 656 690 644 q 533 667 578 667 q 482 664 508 667 q 437 653 456 661 q 418 628 418 644 q 448 602 418 611 q 539 574 478 593 q 701 486 656 539 q 746 358 746 433 q 743 315 746 338 q 735 268 740 293 q 665 119 717 183 q 518 21 613 56 q 275 -14 424 -14 m 64 -335 l 172 -51 l 450 -51 l 319 -335 l 64 -335 z "},"Ṡ":{"ha":778,"x_min":-40,"x_max":813,"o":"m 404 997 l 444 1193 l 661 1193 l 619 997 l 404 997 m 275 -14 q 97 2 181 -14 q -40 49 13 18 l 13 300 q 149 247 72 268 q 290 226 226 226 q 361 238 335 226 q 388 272 388 250 q 347 307 388 294 q 243 346 307 319 q 110 430 154 383 q 65 551 65 476 q 75 629 65 589 q 210 840 106 771 q 528 908 314 908 q 625 902 572 908 q 728 886 678 896 q 813 865 778 876 l 758 613 q 634 656 690 644 q 533 667 578 667 q 482 664 508 667 q 437 653 456 661 q 418 628 418 644 q 448 602 418 611 q 539 574 478 593 q 701 486 656 539 q 746 358 746 433 q 743 315 746 338 q 735 268 740 293 q 665 119 717 183 q 518 21 613 56 q 275 -14 424 -14 z "},"Ṣ":{"ha":778,"x_min":-40,"x_max":813,"o":"m 275 -14 q 97 2 181 -14 q -40 49 13 18 l 13 300 q 149 247 72 268 q 290 226 226 226 q 361 238 335 226 q 388 272 388 250 q 347 307 388 294 q 243 346 307 319 q 110 430 154 383 q 65 551 65 476 q 75 629 65 589 q 210 840 106 771 q 528 908 314 908 q 625 902 572 908 q 728 886 678 896 q 813 865 778 876 l 758 613 q 634 656 690 644 q 533 667 578 667 q 482 664 508 667 q 437 653 456 661 q 418 628 418 644 q 448 602 418 611 q 539 574 478 593 q 701 486 656 539 q 746 358 746 433 q 743 315 746 338 q 735 268 740 293 q 665 119 717 183 q 518 21 613 56 q 275 -14 424 -14 m 135 -296 l 176 -100 l 393 -100 l 351 -296 l 135 -296 z "},"ẞ":{"ha":913,"x_min":-37,"x_max":910,"o":"m 494 -14 q 394 -6 442 -14 q 322 17 346 3 l 367 226 q 406 217 382 221 q 449 214 431 214 q 526 272 526 214 q 512 301 526 292 q 461 311 497 311 l 386 311 l 418 460 l 596 596 q 578 625 599 611 q 510 639 558 639 q 428 614 454 639 q 394 553 403 589 l 278 0 l -37 0 l 81 557 q 234 812 114 715 q 568 908 354 908 q 751 873 675 908 q 869 776 828 838 q 910 636 910 715 q 901 568 910 604 l 714 425 l 733 425 q 831 387 794 425 q 867 281 867 349 q 865 256 867 269 q 861 229 864 243 q 740 44 836 103 q 494 -14 643 -14 z "},"Ə":{"ha":978,"x_min":15,"x_max":982,"o":"m 401 -14 q 199 22 286 -14 q 64 129 113 58 q 15 301 15 200 q 18 350 15 325 q 26 401 21 375 l 60 558 l 689 558 q 672 639 690 608 q 601 683 653 669 q 451 697 550 697 q 370 692 417 697 q 276 677 324 686 q 186 658 228 668 q 119 636 144 647 l 163 840 q 346 888 238 868 q 569 908 454 908 q 788 864 696 908 q 931 738 881 819 q 982 546 982 657 q 969 433 982 492 q 874 198 940 299 q 692 42 807 97 q 401 -14 576 -14 m 444 183 q 583 229 536 183 q 644 349 629 275 l 303 349 l 297 322 q 293 288 293 306 q 324 215 293 247 q 444 183 356 183 z "},"T":{"ha":792,"x_min":60,"x_max":903,"o":"m 150 0 l 288 653 l 60 653 l 111 894 l 903 894 l 851 653 l 624 653 l 486 0 l 150 0 z "},"Ŧ":{"ha":778,"x_min":53,"x_max":896,"o":"m 143 0 l 213 332 l 106 332 l 151 546 l 258 546 l 281 653 l 53 653 l 104 894 l 896 894 l 844 653 l 617 653 l 594 546 l 688 546 l 642 332 l 549 332 l 479 0 l 143 0 z "},"Ť":{"ha":778,"x_min":53,"x_max":918,"o":"m 417 956 l 238 1256 l 467 1256 l 538 1107 l 675 1256 l 918 1256 l 611 956 l 417 956 m 143 0 l 281 653 l 53 653 l 104 894 l 896 894 l 844 653 l 617 653 l 479 0 l 143 0 z "},"Ţ":{"ha":778,"x_min":53,"x_max":896,"o":"m 217 -333 q 175 -332 200 -333 q 128 -328 150 -331 q 97 -322 107 -325 l 121 -215 q 199 -226 157 -226 q 301 -178 293 -226 q 294 -147 307 -156 q 258 -139 282 -139 l 156 -139 l 224 0 l 143 0 l 281 653 l 53 653 l 104 894 l 896 894 l 844 653 l 617 653 l 479 0 l 392 0 l 363 -51 q 455 -81 424 -51 q 486 -154 486 -110 q 486 -169 486 -161 q 483 -185 486 -178 q 401 -293 469 -253 q 217 -333 333 -333 z "},"Ț":{"ha":778,"x_min":53,"x_max":896,"o":"m 143 0 l 281 653 l 53 653 l 104 894 l 896 894 l 844 653 l 617 653 l 479 0 l 143 0 m 67 -397 l 190 -51 l 439 -51 l 275 -397 l 67 -397 z "},"Ṭ":{"ha":778,"x_min":53,"x_max":896,"o":"m 143 0 l 281 653 l 53 653 l 104 894 l 896 894 l 844 653 l 617 653 l 479 0 l 143 0 m 140 -268 l 182 -72 l 399 -72 l 357 -268 l 140 -268 z "},"Ṯ":{"ha":778,"x_min":14,"x_max":896,"o":"m 143 0 l 281 653 l 53 653 l 104 894 l 896 894 l 844 653 l 617 653 l 479 0 l 143 0 m 14 -261 l 56 -67 l 539 -67 l 497 -261 l 14 -261 z "},"U":{"ha":978,"x_min":31,"x_max":1047,"o":"m 407 -14 q 133 65 235 -14 q 31 278 31 143 q 39 358 31 317 l 153 894 l 489 894 l 383 396 q 375 336 375 361 q 398 284 375 297 q 468 271 421 271 q 563 301 533 271 q 606 396 592 332 l 711 894 l 1047 894 l 932 353 q 763 80 894 174 q 407 -14 632 -14 z "},"Ú":{"ha":978,"x_min":31,"x_max":1047,"o":"m 492 956 l 692 1269 l 950 1269 l 738 956 l 492 956 m 407 -14 q 133 65 235 -14 q 31 278 31 143 q 39 358 31 317 l 153 894 l 489 894 l 383 396 q 375 336 375 361 q 398 284 375 297 q 468 271 421 271 q 563 301 533 271 q 606 396 592 332 l 711 894 l 1047 894 l 932 353 q 763 80 894 174 q 407 -14 632 -14 z "},"Ŭ":{"ha":978,"x_min":31,"x_max":1047,"o":"m 613 956 q 431 1012 497 956 q 364 1175 364 1068 q 366 1217 364 1194 q 374 1261 368 1239 l 578 1261 q 574 1238 575 1250 q 572 1215 572 1226 q 588 1161 572 1183 q 642 1139 603 1139 q 722 1176 694 1139 q 760 1261 750 1214 l 985 1261 q 853 1034 953 1113 q 613 956 753 956 m 407 -14 q 133 65 235 -14 q 31 278 31 143 q 39 358 31 317 l 153 894 l 489 894 l 383 396 q 375 336 375 361 q 398 284 375 297 q 468 271 421 271 q 563 301 533 271 q 606 396 592 332 l 711 894 l 1047 894 l 932 353 q 763 80 894 174 q 407 -14 632 -14 z "},"Ǔ":{"ha":978,"x_min":31,"x_max":1047,"o":"m 517 956 l 338 1256 l 567 1256 l 638 1107 l 775 1256 l 1018 1256 l 711 956 l 517 956 m 407 -14 q 133 65 235 -14 q 31 278 31 143 q 39 358 31 317 l 153 894 l 489 894 l 383 396 q 375 336 375 361 q 398 284 375 297 q 468 271 421 271 q 563 301 533 271 q 606 396 592 332 l 711 894 l 1047 894 l 932 353 q 763 80 894 174 q 407 -14 632 -14 z "},"Û":{"ha":978,"x_min":31,"x_max":1047,"o":"m 274 956 l 579 1256 l 775 1256 l 954 956 l 731 956 l 656 1104 l 524 956 l 274 956 m 407 -14 q 133 65 235 -14 q 31 278 31 143 q 39 358 31 317 l 153 894 l 489 894 l 383 396 q 375 336 375 361 q 398 284 375 297 q 468 271 421 271 q 563 301 533 271 q 606 396 592 332 l 711 894 l 1047 894 l 932 353 q 763 80 894 174 q 407 -14 632 -14 z "},"Ü":{"ha":978,"x_min":31,"x_max":1047,"o":"m 351 997 l 393 1193 l 608 1193 l 567 997 l 351 997 m 676 997 l 718 1193 l 935 1193 l 893 997 l 676 997 m 407 -14 q 133 65 235 -14 q 31 278 31 143 q 39 358 31 317 l 153 894 l 489 894 l 383 396 q 375 336 375 361 q 398 284 375 297 q 468 271 421 271 q 563 301 533 271 q 606 396 592 332 l 711 894 l 1047 894 l 932 353 q 763 80 894 174 q 407 -14 632 -14 z "},"Ǘ":{"ha":978,"x_min":31,"x_max":1047,"o":"m 549 1197 l 668 1399 l 915 1399 l 771 1197 l 549 1197 m 353 969 l 392 1154 l 603 1154 l 564 969 l 353 969 m 671 969 l 710 1154 l 921 1154 l 882 969 l 671 969 m 407 -14 q 133 65 235 -14 q 31 278 31 143 q 39 358 31 317 l 153 894 l 489 894 l 383 396 q 375 336 375 361 q 398 284 375 297 q 468 271 421 271 q 563 301 533 271 q 606 396 592 332 l 711 894 l 1047 894 l 932 353 q 763 80 894 174 q 407 -14 632 -14 z "},"Ǚ":{"ha":978,"x_min":31,"x_max":1047,"o":"m 553 1197 l 388 1399 l 625 1399 l 682 1297 l 783 1399 l 1029 1399 l 782 1197 l 553 1197 m 347 969 l 386 1154 l 597 1154 l 558 969 l 347 969 m 665 969 l 704 1154 l 914 1154 l 875 969 l 665 969 m 407 -14 q 133 65 235 -14 q 31 278 31 143 q 39 358 31 317 l 153 894 l 489 894 l 383 396 q 375 336 375 361 q 398 284 375 297 q 468 271 421 271 q 563 301 533 271 q 606 396 592 332 l 711 894 l 1047 894 l 932 353 q 763 80 894 174 q 407 -14 632 -14 z "},"Ǜ":{"ha":978,"x_min":31,"x_max":1047,"o":"m 571 1246 l 510 1447 l 757 1447 l 793 1246 l 571 1246 m 363 1018 l 401 1203 l 613 1203 l 574 1018 l 363 1018 m 681 1018 l 719 1203 l 931 1203 l 892 1018 l 681 1018 m 407 -14 q 133 65 235 -14 q 31 278 31 143 q 39 358 31 317 l 153 894 l 489 894 l 383 396 q 375 336 375 361 q 398 284 375 297 q 468 271 421 271 q 563 301 533 271 q 606 396 592 332 l 711 894 l 1047 894 l 932 353 q 763 80 894 174 q 407 -14 632 -14 z "},"Ǖ":{"ha":978,"x_min":31,"x_max":1047,"o":"m 431 1233 l 472 1428 l 956 1428 l 914 1233 l 431 1233 m 346 968 l 388 1164 l 603 1164 l 561 968 l 346 968 m 671 968 l 713 1164 l 929 1164 l 888 968 l 671 968 m 407 -14 q 133 65 235 -14 q 31 278 31 143 q 39 358 31 317 l 153 894 l 489 894 l 383 396 q 375 336 375 361 q 398 284 375 297 q 468 271 421 271 q 563 301 533 271 q 606 396 592 332 l 711 894 l 1047 894 l 932 353 q 763 80 894 174 q 407 -14 632 -14 z "},"Ụ":{"ha":978,"x_min":31,"x_max":1047,"o":"m 407 -14 q 133 65 235 -14 q 31 278 31 143 q 39 358 31 317 l 153 894 l 489 894 l 383 396 q 375 336 375 361 q 398 284 375 297 q 468 271 421 271 q 563 301 533 271 q 606 396 592 332 l 711 894 l 1047 894 l 932 353 q 763 80 894 174 q 407 -14 632 -14 m 240 -296 l 282 -100 l 499 -100 l 457 -296 l 240 -296 z "},"Ù":{"ha":978,"x_min":31,"x_max":1047,"o":"m 492 956 l 413 1269 l 671 1269 l 738 956 l 492 956 m 407 -14 q 133 65 235 -14 q 31 278 31 143 q 39 358 31 317 l 153 894 l 489 894 l 383 396 q 375 336 375 361 q 398 284 375 297 q 468 271 421 271 q 563 301 533 271 q 606 396 592 332 l 711 894 l 1047 894 l 932 353 q 763 80 894 174 q 407 -14 632 -14 z "},"Ủ":{"ha":978,"x_min":31,"x_max":1047,"o":"m 490 954 l 514 1067 q 611 1085 583 1071 q 643 1121 639 1100 q 582 1160 653 1160 q 501 1146 540 1160 l 529 1276 q 610 1292 565 1286 q 714 1297 654 1297 q 850 1263 804 1297 q 896 1176 896 1229 q 895 1163 896 1169 q 893 1149 894 1156 q 846 1055 879 1086 q 749 1004 813 1024 l 738 954 l 490 954 m 407 -14 q 133 65 235 -14 q 31 278 31 143 q 39 358 31 317 l 153 894 l 489 894 l 383 396 q 375 336 375 361 q 398 284 375 297 q 468 271 421 271 q 563 301 533 271 q 606 396 592 332 l 711 894 l 1047 894 l 932 353 q 763 80 894 174 q 407 -14 632 -14 z "},"Ư":{"ha":1265,"x_min":31,"x_max":1396,"o":"m 407 -14 q 133 65 235 -14 q 31 278 31 143 q 39 358 31 317 l 153 894 l 489 894 l 383 396 q 375 336 375 361 q 398 284 375 297 q 468 271 421 271 q 563 301 533 271 q 606 396 592 332 l 711 894 l 1047 894 l 1035 835 q 1124 864 1100 838 q 1161 956 1149 890 l 1396 956 q 1322 760 1369 833 q 1194 656 1274 688 q 989 621 1114 624 l 932 353 q 763 80 894 174 q 407 -14 632 -14 z "},"Ứ":{"ha":1265,"x_min":31,"x_max":1396,"o":"m 494 956 l 694 1269 l 953 1269 l 740 956 l 494 956 m 407 -14 q 133 65 235 -14 q 31 278 31 143 q 39 358 31 317 l 153 894 l 489 894 l 383 396 q 375 336 375 361 q 398 284 375 297 q 468 271 421 271 q 563 301 533 271 q 606 396 592 332 l 711 894 l 1047 894 l 1035 835 q 1124 864 1100 838 q 1161 956 1149 890 l 1396 956 q 1322 760 1369 833 q 1194 656 1274 688 q 989 621 1114 624 l 932 353 q 763 80 894 174 q 407 -14 632 -14 z "},"Ự":{"ha":1265,"x_min":31,"x_max":1396,"o":"m 407 -14 q 133 65 235 -14 q 31 278 31 143 q 39 358 31 317 l 153 894 l 489 894 l 383 396 q 375 336 375 361 q 398 284 375 297 q 468 271 421 271 q 563 301 533 271 q 606 396 592 332 l 711 894 l 1047 894 l 1035 835 q 1124 864 1100 838 q 1161 956 1149 890 l 1396 956 q 1322 760 1369 833 q 1194 656 1274 688 q 989 621 1114 624 l 932 353 q 763 80 894 174 q 407 -14 632 -14 m 243 -296 l 285 -100 l 501 -100 l 460 -296 l 243 -296 z "},"Ừ":{"ha":1265,"x_min":31,"x_max":1396,"o":"m 503 956 l 424 1269 l 682 1269 l 749 956 l 503 956 m 407 -14 q 133 65 235 -14 q 31 278 31 143 q 39 358 31 317 l 153 894 l 489 894 l 383 396 q 375 336 375 361 q 398 284 375 297 q 468 271 421 271 q 563 301 533 271 q 606 396 592 332 l 711 894 l 1047 894 l 1035 835 q 1124 864 1100 838 q 1161 956 1149 890 l 1396 956 q 1322 760 1369 833 q 1194 656 1274 688 q 989 621 1114 624 l 932 353 q 763 80 894 174 q 407 -14 632 -14 z "},"Ử":{"ha":1265,"x_min":31,"x_max":1396,"o":"m 493 956 l 517 1068 q 614 1087 586 1072 q 646 1122 642 1101 q 585 1161 656 1161 q 504 1147 543 1161 l 532 1278 q 613 1293 568 1288 q 717 1299 657 1299 q 853 1265 807 1299 q 899 1178 899 1231 q 898 1164 899 1171 q 896 1150 897 1157 q 849 1056 882 1088 q 751 1006 815 1025 l 740 956 l 493 956 m 407 -14 q 133 65 235 -14 q 31 278 31 143 q 39 358 31 317 l 153 894 l 489 894 l 383 396 q 375 336 375 361 q 398 284 375 297 q 468 271 421 271 q 563 301 533 271 q 606 396 592 332 l 711 894 l 1047 894 l 1035 835 q 1124 864 1100 838 q 1161 956 1149 890 l 1396 956 q 1322 760 1369 833 q 1194 656 1274 688 q 989 621 1114 624 l 932 353 q 763 80 894 174 q 407 -14 632 -14 z "},"Ữ":{"ha":1265,"x_min":31,"x_max":1396,"o":"m 769 956 q 674 971 719 956 q 588 1001 629 986 q 503 1017 546 1017 q 415 1001 456 1017 q 344 960 375 985 l 386 1156 q 453 1190 411 1175 q 539 1204 496 1204 q 632 1189 590 1204 q 715 1158 674 1174 q 804 1143 757 1143 q 892 1160 853 1143 q 953 1200 931 1178 l 911 1004 q 853 971 893 986 q 769 956 814 956 m 407 -14 q 133 65 235 -14 q 31 278 31 143 q 39 358 31 317 l 153 894 l 489 894 l 383 396 q 375 336 375 361 q 398 284 375 297 q 468 271 421 271 q 563 301 533 271 q 606 396 592 332 l 711 894 l 1047 894 l 1035 835 q 1124 864 1100 838 q 1161 956 1149 890 l 1396 956 q 1322 760 1369 833 q 1194 656 1274 688 q 989 621 1114 624 l 932 353 q 763 80 894 174 q 407 -14 632 -14 z "},"Ű":{"ha":978,"x_min":31,"x_max":1129,"o":"m 278 956 l 469 1238 l 754 1238 l 538 956 l 278 956 m 651 956 l 843 1238 l 1129 1238 l 911 956 l 651 956 m 407 -14 q 133 65 235 -14 q 31 278 31 143 q 39 358 31 317 l 153 894 l 489 894 l 383 396 q 375 336 375 361 q 398 284 375 297 q 468 271 421 271 q 563 301 533 271 q 606 396 592 332 l 711 894 l 1047 894 l 932 353 q 763 80 894 174 q 407 -14 632 -14 z "},"Ū":{"ha":978,"x_min":31,"x_max":1047,"o":"m 383 1011 l 425 1206 l 908 1206 l 867 1011 l 383 1011 m 407 -14 q 133 65 235 -14 q 31 278 31 143 q 39 358 31 317 l 153 894 l 489 894 l 383 396 q 375 336 375 361 q 398 284 375 297 q 468 271 421 271 q 563 301 533 271 q 606 396 592 332 l 711 894 l 1047 894 l 932 353 q 763 80 894 174 q 407 -14 632 -14 z "},"Ų":{"ha":978,"x_min":31,"x_max":1047,"o":"m 344 -306 q 213 -278 261 -306 q 165 -194 165 -251 q 206 -81 165 -131 q 299 -4 247 -32 q 102 92 174 18 q 31 278 31 165 q 39 358 31 317 l 153 894 l 489 894 l 383 396 q 375 336 375 361 q 398 284 375 297 q 468 271 421 271 q 563 301 533 271 q 606 396 592 332 l 711 894 l 1047 894 l 932 353 q 787 99 897 192 q 490 -10 676 6 q 443 -54 463 -31 q 417 -106 424 -78 q 415 -117 415 -110 q 431 -142 415 -135 q 472 -149 446 -149 q 511 -144 490 -149 q 546 -133 532 -140 l 515 -281 q 443 -297 489 -289 q 344 -306 397 -306 z "},"Ů":{"ha":978,"x_min":31,"x_max":1047,"o":"m 614 956 q 485 999 531 956 q 440 1110 440 1043 q 444 1154 440 1132 q 528 1297 463 1239 q 699 1354 593 1354 q 830 1310 785 1354 q 875 1200 875 1267 q 874 1177 875 1189 q 869 1154 872 1165 q 785 1013 851 1071 q 614 956 719 956 m 640 1083 q 708 1111 685 1083 q 732 1172 732 1139 q 717 1210 732 1194 q 671 1225 703 1225 q 603 1197 626 1225 q 579 1136 579 1169 q 594 1099 579 1114 q 640 1083 608 1083 m 407 -14 q 133 65 235 -14 q 31 278 31 143 q 39 358 31 317 l 153 894 l 489 894 l 383 396 q 375 336 375 361 q 398 284 375 297 q 468 271 421 271 q 563 301 533 271 q 606 396 592 332 l 711 894 l 1047 894 l 932 353 q 763 80 894 174 q 407 -14 632 -14 z "},"Ũ":{"ha":978,"x_min":31,"x_max":1047,"o":"m 764 963 q 669 978 714 963 q 582 1008 624 993 q 497 1024 540 1024 q 410 1008 450 1024 q 339 967 369 992 l 381 1163 q 448 1197 406 1182 q 533 1211 490 1211 q 626 1196 585 1211 q 710 1165 668 1181 q 799 1150 751 1150 q 886 1167 847 1150 q 947 1207 925 1185 l 906 1011 q 848 978 888 993 q 764 963 808 963 m 407 -14 q 133 65 235 -14 q 31 278 31 143 q 39 358 31 317 l 153 894 l 489 894 l 383 396 q 375 336 375 361 q 398 284 375 297 q 468 271 421 271 q 563 301 533 271 q 606 396 592 332 l 711 894 l 1047 894 l 932 353 q 763 80 894 174 q 407 -14 632 -14 z "},"V":{"ha":1079,"x_min":132,"x_max":1169,"o":"m 288 0 l 132 894 l 472 894 l 535 397 l 810 894 l 1169 894 l 636 0 l 288 0 z "},"W":{"ha":1265,"x_min":132,"x_max":1356,"o":"m 151 0 l 132 894 l 460 894 l 456 553 l 547 743 l 579 894 l 853 894 l 881 551 l 1029 894 l 1356 894 l 960 0 l 676 0 l 643 353 l 454 0 l 151 0 z "},"Ẃ":{"ha":1265,"x_min":132,"x_max":1356,"o":"m 600 956 l 800 1269 l 1058 1269 l 846 956 l 600 956 m 151 0 l 132 894 l 460 894 l 456 553 l 547 743 l 579 894 l 853 894 l 881 551 l 1029 894 l 1356 894 l 960 0 l 676 0 l 643 353 l 454 0 l 151 0 z "},"Ŵ":{"ha":1265,"x_min":132,"x_max":1356,"o":"m 422 956 l 728 1256 l 924 1256 l 1103 956 l 879 956 l 804 1104 l 672 956 l 422 956 m 151 0 l 132 894 l 460 894 l 456 553 l 547 743 l 579 894 l 853 894 l 881 551 l 1029 894 l 1356 894 l 960 0 l 676 0 l 643 353 l 454 0 l 151 0 z "},"Ẅ":{"ha":1265,"x_min":132,"x_max":1356,"o":"m 500 997 l 542 1193 l 757 1193 l 715 997 l 500 997 m 825 997 l 867 1193 l 1083 1193 l 1042 997 l 825 997 m 151 0 l 132 894 l 460 894 l 456 553 l 547 743 l 579 894 l 853 894 l 881 551 l 1029 894 l 1356 894 l 960 0 l 676 0 l 643 353 l 454 0 l 151 0 z "},"Ẁ":{"ha":1265,"x_min":132,"x_max":1356,"o":"m 618 956 l 539 1269 l 797 1269 l 864 956 l 618 956 m 151 0 l 132 894 l 460 894 l 456 553 l 547 743 l 579 894 l 853 894 l 881 551 l 1029 894 l 1356 894 l 960 0 l 676 0 l 643 353 l 454 0 l 151 0 z "},"X":{"ha":1124,"x_min":-58,"x_max":1196,"o":"m -58 0 l 376 457 l 147 894 l 549 894 l 636 729 l 794 894 l 1196 894 l 781 457 l 1024 0 l 617 0 l 521 182 l 349 0 l -58 0 z "},"Y":{"ha":1011,"x_min":125,"x_max":1108,"o":"m 260 0 l 328 325 l 125 894 l 465 894 l 547 610 l 749 894 l 1108 894 l 664 325 l 596 0 l 260 0 z "},"Ý":{"ha":1025,"x_min":132,"x_max":1115,"o":"m 514 956 l 714 1269 l 972 1269 l 760 956 l 514 956 m 267 0 l 335 325 l 132 894 l 472 894 l 554 610 l 756 894 l 1115 894 l 671 325 l 603 0 l 267 0 z "},"Ŷ":{"ha":1025,"x_min":132,"x_max":1115,"o":"m 297 956 l 603 1256 l 799 1256 l 978 956 l 754 956 l 679 1104 l 547 956 l 297 956 m 267 0 l 335 325 l 132 894 l 472 894 l 554 610 l 756 894 l 1115 894 l 671 325 l 603 0 l 267 0 z "},"Ÿ":{"ha":1025,"x_min":132,"x_max":1115,"o":"m 375 997 l 417 1193 l 632 1193 l 590 997 l 375 997 m 700 997 l 742 1193 l 958 1193 l 917 997 l 700 997 m 267 0 l 335 325 l 132 894 l 472 894 l 554 610 l 756 894 l 1115 894 l 671 325 l 603 0 l 267 0 z "},"Ẏ":{"ha":1025,"x_min":132,"x_max":1115,"o":"m 538 997 l 578 1193 l 794 1193 l 753 997 l 538 997 m 267 0 l 335 325 l 132 894 l 472 894 l 554 610 l 756 894 l 1115 894 l 671 325 l 603 0 l 267 0 z "},"Ỵ":{"ha":1025,"x_min":132,"x_max":1115,"o":"m 267 0 l 335 325 l 132 894 l 472 894 l 554 610 l 756 894 l 1115 894 l 671 325 l 603 0 l 267 0 m 264 -296 l 306 -100 l 522 -100 l 481 -296 l 264 -296 z "},"Ỳ":{"ha":1025,"x_min":132,"x_max":1115,"o":"m 519 956 l 440 1269 l 699 1269 l 765 956 l 519 956 m 267 0 l 335 325 l 132 894 l 472 894 l 554 610 l 756 894 l 1115 894 l 671 325 l 603 0 l 267 0 z "},"Ỷ":{"ha":1025,"x_min":132,"x_max":1115,"o":"m 517 954 l 540 1067 q 638 1085 610 1071 q 669 1121 665 1100 q 608 1160 679 1160 q 528 1146 567 1160 l 556 1276 q 636 1292 592 1286 q 740 1297 681 1297 q 876 1263 831 1297 q 922 1176 922 1229 q 922 1163 922 1169 q 919 1149 921 1156 q 872 1055 906 1086 q 775 1004 839 1024 l 764 954 l 517 954 m 267 0 l 335 325 l 132 894 l 472 894 l 554 610 l 756 894 l 1115 894 l 671 325 l 603 0 l 267 0 z "},"Ỹ":{"ha":1025,"x_min":132,"x_max":1115,"o":"m 788 963 q 692 978 738 963 q 606 1008 647 993 q 521 1024 564 1024 q 433 1008 474 1024 q 363 967 393 992 l 404 1163 q 472 1197 429 1182 q 557 1211 514 1211 q 650 1196 608 1211 q 733 1165 692 1181 q 822 1150 775 1150 q 910 1167 871 1150 q 971 1207 949 1185 l 929 1011 q 872 978 911 993 q 788 963 832 963 m 267 0 l 335 325 l 132 894 l 472 894 l 554 610 l 756 894 l 1115 894 l 671 325 l 603 0 l 267 0 z "},"Z":{"ha":814,"x_min":-58,"x_max":901,"o":"m -58 0 l -24 165 l 400 619 l 92 619 l 150 894 l 901 894 l 861 704 l 443 256 l 775 256 l 721 0 l -58 0 z "},"Ź":{"ha":814,"x_min":-58,"x_max":901,"o":"m 390 956 l 590 1269 l 849 1269 l 636 956 l 390 956 m -58 0 l -24 165 l 400 619 l 92 619 l 150 894 l 901 894 l 861 704 l 443 256 l 775 256 l 721 0 l -58 0 z "},"Ž":{"ha":814,"x_min":-58,"x_max":963,"o":"m 461 956 l 282 1256 l 511 1256 l 582 1107 l 719 1256 l 963 1256 l 656 956 l 461 956 m -58 0 l -24 165 l 400 619 l 92 619 l 150 894 l 901 894 l 861 704 l 443 256 l 775 256 l 721 0 l -58 0 z "},"Ż":{"ha":814,"x_min":-58,"x_max":901,"o":"m 446 997 l 486 1193 l 703 1193 l 661 997 l 446 997 m -58 0 l -24 165 l 400 619 l 92 619 l 150 894 l 901 894 l 861 704 l 443 256 l 775 256 l 721 0 l -58 0 z "},"Ẓ":{"ha":814,"x_min":-58,"x_max":901,"o":"m -58 0 l -24 165 l 400 619 l 92 619 l 150 894 l 901 894 l 861 704 l 443 256 l 775 256 l 721 0 l -58 0 m 186 -296 l 228 -100 l 444 -100 l 403 -296 l 186 -296 z "},"a":{"ha":872,"x_min":-6,"x_max":885,"o":"m 233 -14 q 59 39 124 -14 q -6 203 -6 92 q -3 249 -6 225 q 6 300 0 274 q 143 573 43 474 q 401 672 243 672 q 490 658 453 672 q 547 624 526 644 l 554 658 l 885 658 l 746 0 l 454 0 l 447 43 q 350 1 406 17 q 233 -14 294 -14 m 399 226 q 433 232 418 226 q 461 247 449 238 l 496 411 q 443 432 476 432 q 351 311 376 432 q 347 274 347 289 q 362 235 347 244 q 399 226 376 226 z "},"á":{"ha":872,"x_min":-6,"x_max":885,"o":"m 364 725 l 564 1039 l 822 1039 l 610 725 l 364 725 m 233 -14 q 59 39 124 -14 q -6 203 -6 92 q -3 249 -6 225 q 6 300 0 274 q 143 573 43 474 q 401 672 243 672 q 490 658 453 672 q 547 624 526 644 l 554 658 l 885 658 l 746 0 l 454 0 l 447 43 q 350 1 406 17 q 233 -14 294 -14 m 399 226 q 433 232 418 226 q 461 247 449 238 l 496 411 q 443 432 476 432 q 351 311 376 432 q 347 274 347 289 q 362 235 347 244 q 399 226 376 226 z "},"ă":{"ha":872,"x_min":-6,"x_max":885,"o":"m 510 725 q 328 781 394 725 q 261 944 261 838 q 263 986 261 964 q 271 1031 265 1008 l 475 1031 q 471 1008 472 1019 q 469 985 469 996 q 485 931 469 953 q 539 908 500 908 q 619 946 592 908 q 657 1031 647 983 l 882 1031 q 750 803 850 882 q 510 725 650 725 m 233 -14 q 59 39 124 -14 q -6 203 -6 92 q -3 249 -6 225 q 6 300 0 274 q 143 573 43 474 q 401 672 243 672 q 490 658 453 672 q 547 624 526 644 l 554 658 l 885 658 l 746 0 l 454 0 l 447 43 q 350 1 406 17 q 233 -14 294 -14 m 399 226 q 433 232 418 226 q 461 247 449 238 l 496 411 q 443 432 476 432 q 351 311 376 432 q 347 274 347 289 q 362 235 347 244 q 399 226 376 226 z "},"ắ":{"ha":872,"x_min":-6,"x_max":885,"o":"m 475 1013 l 629 1251 l 844 1251 l 681 1013 l 475 1013 m 508 725 q 346 772 411 725 q 281 915 281 818 q 289 986 281 949 l 465 986 q 462 967 464 976 q 460 950 460 957 q 532 888 460 888 q 610 916 586 888 q 644 986 635 944 l 840 986 q 723 788 811 851 q 508 725 635 725 m 233 -14 q 59 39 124 -14 q -6 203 -6 92 q -3 249 -6 225 q 6 300 0 274 q 143 573 43 474 q 401 672 243 672 q 490 658 453 672 q 547 624 526 644 l 554 658 l 885 658 l 746 0 l 454 0 l 447 43 q 350 1 406 17 q 233 -14 294 -14 m 399 226 q 433 232 418 226 q 461 247 449 238 l 496 411 q 443 432 476 432 q 351 311 376 432 q 347 274 347 289 q 362 235 347 244 q 399 226 376 226 z "},"ặ":{"ha":872,"x_min":-6,"x_max":893,"o":"m 521 725 q 339 781 406 725 q 272 944 272 838 q 274 986 272 964 q 282 1031 276 1008 l 486 1031 q 482 1008 483 1019 q 481 985 481 996 q 496 931 481 953 q 550 908 511 908 q 631 946 603 908 q 668 1031 658 983 l 893 1031 q 761 803 861 882 q 521 725 661 725 m 233 -14 q 59 39 124 -14 q -6 203 -6 92 q -3 249 -6 225 q 6 300 0 274 q 143 573 43 474 q 401 672 243 672 q 490 658 453 672 q 547 624 526 644 l 554 658 l 885 658 l 746 0 l 454 0 l 447 43 q 350 1 406 17 q 233 -14 294 -14 m 399 226 q 433 232 418 226 q 461 247 449 238 l 496 411 q 443 432 476 432 q 351 311 376 432 q 347 274 347 289 q 362 235 347 244 q 399 226 376 226 m 200 -296 l 242 -100 l 458 -100 l 417 -296 l 200 -296 z "},"ằ":{"ha":872,"x_min":-6,"x_max":885,"o":"m 456 1013 l 390 1251 l 607 1251 l 661 1013 l 456 1013 m 504 725 q 342 772 407 725 q 276 915 276 818 q 285 986 276 949 l 461 986 q 458 967 460 976 q 456 950 456 957 q 528 888 456 888 q 606 916 582 888 q 640 986 631 944 l 836 986 q 719 788 807 851 q 504 725 631 725 m 233 -14 q 59 39 124 -14 q -6 203 -6 92 q -3 249 -6 225 q 6 300 0 274 q 143 573 43 474 q 401 672 243 672 q 490 658 453 672 q 547 624 526 644 l 554 658 l 885 658 l 746 0 l 454 0 l 447 43 q 350 1 406 17 q 233 -14 294 -14 m 399 226 q 433 232 418 226 q 461 247 449 238 l 496 411 q 443 432 476 432 q 351 311 376 432 q 347 274 347 289 q 362 235 347 244 q 399 226 376 226 z "},"ẳ":{"ha":872,"x_min":-6,"x_max":885,"o":"m 463 1014 l 481 1101 q 568 1119 542 1104 q 594 1156 594 1133 q 581 1176 594 1171 q 540 1182 568 1182 q 503 1177 522 1182 q 469 1167 485 1172 l 494 1281 q 569 1293 524 1288 q 658 1299 615 1299 q 775 1269 736 1299 q 814 1194 814 1239 q 813 1183 814 1189 q 811 1171 813 1178 q 774 1096 801 1124 q 689 1051 746 1068 l 681 1014 l 463 1014 m 511 725 q 349 772 414 725 q 283 915 283 818 q 292 986 283 949 l 468 986 q 465 967 467 976 q 463 950 463 957 q 535 888 463 888 q 613 916 589 888 q 647 986 638 944 l 843 986 q 726 788 814 851 q 511 725 638 725 m 233 -14 q 59 39 124 -14 q -6 203 -6 92 q -3 249 -6 225 q 6 300 0 274 q 143 573 43 474 q 401 672 243 672 q 490 658 453 672 q 547 624 526 644 l 554 658 l 885 658 l 746 0 l 454 0 l 447 43 q 350 1 406 17 q 233 -14 294 -14 m 399 226 q 433 232 418 226 q 461 247 449 238 l 496 411 q 443 432 476 432 q 351 311 376 432 q 347 274 347 289 q 362 235 347 244 q 399 226 376 226 z "},"ẵ":{"ha":872,"x_min":-6,"x_max":900,"o":"m 729 1021 q 640 1035 682 1021 q 557 1065 597 1050 q 475 1079 517 1079 q 391 1064 429 1079 q 325 1025 353 1049 l 361 1199 q 424 1231 385 1217 q 506 1244 464 1244 q 595 1230 554 1244 q 676 1201 636 1215 q 760 1186 715 1186 q 843 1202 806 1186 q 900 1240 881 1218 l 864 1067 q 810 1035 849 1049 q 729 1021 771 1021 m 524 725 q 361 772 426 725 q 296 915 296 818 q 304 986 296 949 l 481 986 q 477 967 479 976 q 475 950 475 957 q 547 888 475 888 q 626 916 601 888 q 660 986 650 944 l 856 986 q 738 788 826 851 q 524 725 650 725 m 233 -14 q 59 39 124 -14 q -6 203 -6 92 q -3 249 -6 225 q 6 300 0 274 q 143 573 43 474 q 401 672 243 672 q 490 658 453 672 q 547 624 526 644 l 554 658 l 885 658 l 746 0 l 454 0 l 447 43 q 350 1 406 17 q 233 -14 294 -14 m 399 226 q 433 232 418 226 q 461 247 449 238 l 496 411 q 443 432 476 432 q 351 311 376 432 q 347 274 347 289 q 362 235 347 244 q 399 226 376 226 z "},"ǎ":{"ha":872,"x_min":-6,"x_max":899,"o":"m 397 725 l 218 1025 l 447 1025 l 518 876 l 656 1025 l 899 1025 l 592 725 l 397 725 m 233 -14 q 59 39 124 -14 q -6 203 -6 92 q -3 249 -6 225 q 6 300 0 274 q 143 573 43 474 q 401 672 243 672 q 490 658 453 672 q 547 624 526 644 l 554 658 l 885 658 l 746 0 l 454 0 l 447 43 q 350 1 406 17 q 233 -14 294 -14 m 399 226 q 433 232 418 226 q 461 247 449 238 l 496 411 q 443 432 476 432 q 351 311 376 432 q 347 274 347 289 q 362 235 347 244 q 399 226 376 226 z "},"â":{"ha":872,"x_min":-6,"x_max":885,"o":"m 157 725 l 463 1025 l 658 1025 l 838 725 l 614 725 l 539 874 l 407 725 l 157 725 m 233 -14 q 59 39 124 -14 q -6 203 -6 92 q -3 249 -6 225 q 6 300 0 274 q 143 573 43 474 q 401 672 243 672 q 490 658 453 672 q 547 624 526 644 l 554 658 l 885 658 l 746 0 l 454 0 l 447 43 q 350 1 406 17 q 233 -14 294 -14 m 399 226 q 433 232 418 226 q 461 247 449 238 l 496 411 q 443 432 476 432 q 351 311 376 432 q 347 274 347 289 q 362 235 347 244 q 399 226 376 226 z "},"ấ":{"ha":872,"x_min":-6,"x_max":1142,"o":"m 743 908 l 897 1147 l 1142 1147 l 975 908 l 743 908 m 164 725 l 433 958 l 676 958 l 844 725 l 593 725 l 538 831 l 442 725 l 164 725 m 233 -14 q 59 39 124 -14 q -6 203 -6 92 q -3 249 -6 225 q 6 300 0 274 q 143 573 43 474 q 401 672 243 672 q 490 658 453 672 q 547 624 526 644 l 554 658 l 885 658 l 746 0 l 454 0 l 447 43 q 350 1 406 17 q 233 -14 294 -14 m 399 226 q 433 232 418 226 q 461 247 449 238 l 496 411 q 443 432 476 432 q 351 311 376 432 q 347 274 347 289 q 362 235 347 244 q 399 226 376 226 z "},"ậ":{"ha":872,"x_min":-6,"x_max":885,"o":"m 161 725 l 467 1025 l 663 1025 l 842 725 l 618 725 l 543 874 l 411 725 l 161 725 m 233 -14 q 59 39 124 -14 q -6 203 -6 92 q -3 249 -6 225 q 6 300 0 274 q 143 573 43 474 q 401 672 243 672 q 490 658 453 672 q 547 624 526 644 l 554 658 l 885 658 l 746 0 l 454 0 l 447 43 q 350 1 406 17 q 233 -14 294 -14 m 399 226 q 433 232 418 226 q 461 247 449 238 l 496 411 q 443 432 476 432 q 351 311 376 432 q 347 274 347 289 q 362 235 347 244 q 399 226 376 226 m 176 -296 l 218 -100 l 435 -100 l 393 -296 l 176 -296 z "},"ầ":{"ha":872,"x_min":-6,"x_max":885,"o":"m 106 908 l 42 1147 l 286 1147 l 339 908 l 106 908 m 158 725 l 428 958 l 671 958 l 839 725 l 582 725 l 531 831 l 431 725 l 158 725 m 233 -14 q 59 39 124 -14 q -6 203 -6 92 q -3 249 -6 225 q 6 300 0 274 q 143 573 43 474 q 401 672 243 672 q 490 658 453 672 q 547 624 526 644 l 554 658 l 885 658 l 746 0 l 454 0 l 447 43 q 350 1 406 17 q 233 -14 294 -14 m 399 226 q 433 232 418 226 q 461 247 449 238 l 496 411 q 443 432 476 432 q 351 311 376 432 q 347 274 347 289 q 362 235 347 244 q 399 226 376 226 z "},"ẩ":{"ha":872,"x_min":-6,"x_max":1093,"o":"m 740 876 l 764 988 q 840 1000 822 990 q 858 1024 858 1010 q 815 1040 858 1040 q 781 1036 799 1040 q 747 1026 763 1032 l 775 1154 q 844 1166 803 1161 q 938 1171 886 1171 q 1054 1140 1015 1171 q 1093 1065 1093 1110 q 1092 1054 1093 1060 q 1090 1043 1092 1049 q 1050 963 1081 996 q 967 919 1019 929 l 957 876 l 740 876 m 153 725 l 422 958 l 665 958 l 833 725 l 582 725 l 526 831 l 431 725 l 153 725 m 233 -14 q 59 39 124 -14 q -6 203 -6 92 q -3 249 -6 225 q 6 300 0 274 q 143 573 43 474 q 401 672 243 672 q 490 658 453 672 q 547 624 526 644 l 554 658 l 885 658 l 746 0 l 454 0 l 447 43 q 350 1 406 17 q 233 -14 294 -14 m 399 226 q 433 232 418 226 q 461 247 449 238 l 496 411 q 443 432 476 432 q 351 311 376 432 q 347 274 347 289 q 362 235 347 244 q 399 226 376 226 z "},"ẫ":{"ha":872,"x_min":-6,"x_max":885,"o":"m 697 979 q 608 994 650 979 q 525 1023 565 1008 q 443 1038 485 1038 q 359 1022 397 1038 q 293 983 321 1007 l 332 1171 q 395 1203 356 1189 q 476 1217 435 1217 q 566 1202 525 1217 q 647 1173 607 1188 q 731 1158 686 1158 q 814 1174 776 1158 q 872 1213 851 1190 l 832 1025 q 777 993 815 1007 q 697 979 739 979 m 153 725 l 422 958 l 665 958 l 833 725 l 582 725 l 526 831 l 431 725 l 153 725 m 233 -14 q 59 39 124 -14 q -6 203 -6 92 q -3 249 -6 225 q 6 300 0 274 q 143 573 43 474 q 401 672 243 672 q 490 658 453 672 q 547 624 526 644 l 554 658 l 885 658 l 746 0 l 454 0 l 447 43 q 350 1 406 17 q 233 -14 294 -14 m 399 226 q 433 232 418 226 q 461 247 449 238 l 496 411 q 443 432 476 432 q 351 311 376 432 q 347 274 347 289 q 362 235 347 244 q 399 226 376 226 z "},"ä":{"ha":872,"x_min":-6,"x_max":885,"o":"m 253 767 l 294 963 l 510 963 l 468 767 l 253 767 m 578 767 l 619 963 l 836 963 l 794 767 l 578 767 m 233 -14 q 59 39 124 -14 q -6 203 -6 92 q -3 249 -6 225 q 6 300 0 274 q 143 573 43 474 q 401 672 243 672 q 490 658 453 672 q 547 624 526 644 l 554 658 l 885 658 l 746 0 l 454 0 l 447 43 q 350 1 406 17 q 233 -14 294 -14 m 399 226 q 433 232 418 226 q 461 247 449 238 l 496 411 q 443 432 476 432 q 351 311 376 432 q 347 274 347 289 q 362 235 347 244 q 399 226 376 226 z "},"ạ":{"ha":872,"x_min":-6,"x_max":885,"o":"m 233 -14 q 59 39 124 -14 q -6 203 -6 92 q -3 249 -6 225 q 6 300 0 274 q 143 573 43 474 q 401 672 243 672 q 490 658 453 672 q 547 624 526 644 l 554 658 l 885 658 l 746 0 l 454 0 l 447 43 q 350 1 406 17 q 233 -14 294 -14 m 399 226 q 433 232 418 226 q 461 247 449 238 l 496 411 q 443 432 476 432 q 351 311 376 432 q 347 274 347 289 q 362 235 347 244 q 399 226 376 226 m 176 -296 l 218 -100 l 435 -100 l 393 -296 l 176 -296 z "},"à":{"ha":872,"x_min":-6,"x_max":885,"o":"m 378 725 l 299 1039 l 557 1039 l 624 725 l 378 725 m 233 -14 q 59 39 124 -14 q -6 203 -6 92 q -3 249 -6 225 q 6 300 0 274 q 143 573 43 474 q 401 672 243 672 q 490 658 453 672 q 547 624 526 644 l 554 658 l 885 658 l 746 0 l 454 0 l 447 43 q 350 1 406 17 q 233 -14 294 -14 m 399 226 q 433 232 418 226 q 461 247 449 238 l 496 411 q 443 432 476 432 q 351 311 376 432 q 347 274 347 289 q 362 235 347 244 q 399 226 376 226 z "},"ả":{"ha":872,"x_min":-6,"x_max":885,"o":"m 367 725 l 390 838 q 488 856 460 842 q 519 892 515 871 q 458 931 529 931 q 378 917 417 931 l 406 1047 q 486 1063 442 1057 q 590 1068 531 1068 q 726 1034 681 1068 q 772 947 772 1000 q 772 933 772 940 q 769 919 771 926 q 722 826 756 857 q 625 775 689 794 l 614 725 l 367 725 m 233 -14 q 59 39 124 -14 q -6 203 -6 92 q -3 249 -6 225 q 6 300 0 274 q 143 573 43 474 q 401 672 243 672 q 490 658 453 672 q 547 624 526 644 l 554 658 l 885 658 l 746 0 l 454 0 l 447 43 q 350 1 406 17 q 233 -14 294 -14 m 399 226 q 433 232 418 226 q 461 247 449 238 l 496 411 q 443 432 476 432 q 351 311 376 432 q 347 274 347 289 q 362 235 347 244 q 399 226 376 226 z "},"ɑ":{"ha":872,"x_min":-6,"x_max":885,"o":"m 233 -14 q 59 39 124 -14 q -6 203 -6 92 q -3 249 -6 225 q 6 300 0 274 q 143 573 43 474 q 401 672 243 672 q 490 658 453 672 q 547 624 526 644 l 554 658 l 885 658 l 746 0 l 454 0 l 447 43 q 350 1 406 17 q 233 -14 294 -14 m 399 226 q 433 232 418 226 q 461 247 449 238 l 496 411 q 443 432 476 432 q 351 311 376 432 q 347 274 347 289 q 362 235 347 244 q 399 226 376 226 z "},"ā":{"ha":872,"x_min":-6,"x_max":885,"o":"m 286 739 l 328 933 l 811 933 l 769 739 l 286 739 m 233 -14 q 59 39 124 -14 q -6 203 -6 92 q -3 249 -6 225 q 6 300 0 274 q 143 573 43 474 q 401 672 243 672 q 490 658 453 672 q 547 624 526 644 l 554 658 l 885 658 l 746 0 l 454 0 l 447 43 q 350 1 406 17 q 233 -14 294 -14 m 399 226 q 433 232 418 226 q 461 247 449 238 l 496 411 q 443 432 476 432 q 351 311 376 432 q 347 274 347 289 q 362 235 347 244 q 399 226 376 226 z "},"ą":{"ha":872,"x_min":-6,"x_max":885,"o":"m 233 -14 q 59 39 124 -14 q -6 203 -6 92 q -3 249 -6 225 q 6 300 0 274 q 143 573 43 474 q 401 672 243 672 q 490 658 453 672 q 547 624 526 644 l 554 658 l 885 658 l 746 0 l 657 0 q 598 -49 622 -22 q 567 -106 574 -75 q 565 -117 565 -110 q 581 -142 565 -135 q 622 -149 596 -149 q 661 -144 640 -149 q 696 -133 682 -140 l 665 -281 q 593 -297 639 -289 q 494 -306 547 -306 q 363 -278 411 -306 q 315 -194 315 -251 q 359 -77 315 -128 q 457 0 403 -26 l 454 0 l 447 43 q 350 1 406 17 q 233 -14 294 -14 m 399 226 q 433 232 418 226 q 461 247 449 238 l 496 411 q 443 432 476 432 q 351 311 376 432 q 347 274 347 289 q 362 235 347 244 q 399 226 376 226 z "},"å":{"ha":872,"x_min":-6,"x_max":885,"o":"m 518 725 q 390 769 435 725 q 344 879 344 813 q 349 924 344 901 q 432 1066 367 1008 q 603 1124 497 1124 q 734 1080 689 1124 q 779 969 779 1036 q 778 947 779 958 q 774 924 776 935 q 690 783 756 840 q 518 725 624 725 m 544 853 q 613 881 589 853 q 636 942 636 908 q 622 979 636 964 q 575 994 607 994 q 507 967 531 994 q 483 906 483 939 q 498 868 483 883 q 544 853 513 853 m 233 -14 q 59 39 124 -14 q -6 203 -6 92 q -3 249 -6 225 q 6 300 0 274 q 143 573 43 474 q 401 672 243 672 q 490 658 453 672 q 547 624 526 644 l 554 658 l 885 658 l 746 0 l 454 0 l 447 43 q 350 1 406 17 q 233 -14 294 -14 m 399 226 q 433 232 418 226 q 461 247 449 238 l 496 411 q 443 432 476 432 q 351 311 376 432 q 347 274 347 289 q 362 235 347 244 q 399 226 376 226 z "},"ǻ":{"ha":872,"x_min":-6,"x_max":942,"o":"m 483 1143 l 683 1393 l 942 1393 l 729 1143 l 483 1143 m 494 711 q 366 755 411 711 q 321 865 321 799 q 325 910 321 888 q 408 1052 343 994 q 579 1110 474 1110 q 710 1066 665 1110 q 756 956 756 1022 q 754 933 756 944 q 750 910 753 921 q 666 769 732 826 q 494 711 600 711 m 521 839 q 589 867 565 839 q 613 928 613 894 q 598 965 613 950 q 551 981 583 981 q 483 953 507 981 q 460 892 460 925 q 474 854 460 869 q 521 839 489 839 m 233 -14 q 59 39 124 -14 q -6 203 -6 92 q -3 249 -6 225 q 6 300 0 274 q 143 573 43 474 q 401 672 243 672 q 490 658 453 672 q 547 624 526 644 l 554 658 l 885 658 l 746 0 l 454 0 l 447 43 q 350 1 406 17 q 233 -14 294 -14 m 399 226 q 433 232 418 226 q 461 247 449 238 l 496 411 q 443 432 476 432 q 351 311 376 432 q 347 274 347 289 q 362 235 347 244 q 399 226 376 226 z "},"ã":{"ha":872,"x_min":-6,"x_max":885,"o":"m 665 732 q 570 747 615 732 q 483 778 525 763 q 399 793 442 793 q 311 777 351 793 q 240 736 271 761 l 282 932 q 349 966 307 951 q 435 981 392 981 q 528 965 486 981 q 611 935 569 950 q 700 919 653 919 q 788 937 749 919 q 849 976 826 954 l 807 781 q 749 747 789 763 q 665 732 710 732 m 233 -14 q 59 39 124 -14 q -6 203 -6 92 q -3 249 -6 225 q 6 300 0 274 q 143 573 43 474 q 401 672 243 672 q 490 658 453 672 q 547 624 526 644 l 554 658 l 885 658 l 746 0 l 454 0 l 447 43 q 350 1 406 17 q 233 -14 294 -14 m 399 226 q 433 232 418 226 q 461 247 449 238 l 496 411 q 443 432 476 432 q 351 311 376 432 q 347 274 347 289 q 362 235 347 244 q 399 226 376 226 z "},"æ":{"ha":1235,"x_min":-19,"x_max":1218,"o":"m 225 -14 q 101 3 157 -14 q 13 58 46 21 q -19 156 -19 96 q -18 179 -19 167 q -14 206 -17 192 q 92 374 10 317 q 319 431 174 431 l 467 431 l 468 438 q 445 465 472 453 q 358 476 418 476 q 242 467 306 476 q 119 442 178 458 l 158 622 q 299 659 217 646 q 457 672 381 672 q 575 656 519 672 q 663 607 631 639 q 775 654 708 636 q 906 672 842 672 q 1135 610 1051 672 q 1218 431 1218 547 q 1210 351 1218 393 l 1186 239 l 747 239 q 808 198 763 213 q 929 183 853 183 q 1052 194 992 183 q 1149 217 1113 204 l 1110 36 q 978 -1 1053 11 q 804 -14 904 -14 q 665 13 733 -14 q 561 86 597 39 q 480 33 525 56 q 374 -1 435 11 q 225 -14 313 -14 m 783 407 l 935 407 l 938 419 q 939 431 939 424 q 925 460 939 447 q 875 474 911 474 q 812 454 833 474 q 783 407 790 435 m 336 169 q 418 200 388 169 l 431 261 l 369 261 q 297 215 308 261 q 296 209 296 213 q 296 203 296 206 q 336 169 296 169 z "},"ǽ":{"ha":1235,"x_min":-19,"x_max":1218,"o":"m 540 725 l 740 1039 l 999 1039 l 786 725 l 540 725 m 225 -14 q 101 3 157 -14 q 13 58 46 21 q -19 156 -19 96 q -18 179 -19 167 q -14 206 -17 192 q 92 374 10 317 q 319 431 174 431 l 467 431 l 468 438 q 445 465 472 453 q 358 476 418 476 q 242 467 306 476 q 119 442 178 458 l 158 622 q 299 659 217 646 q 457 672 381 672 q 575 656 519 672 q 663 607 631 639 q 775 654 708 636 q 906 672 842 672 q 1135 610 1051 672 q 1218 431 1218 547 q 1210 351 1218 393 l 1186 239 l 747 239 q 808 198 763 213 q 929 183 853 183 q 1052 194 992 183 q 1149 217 1113 204 l 1110 36 q 978 -1 1053 11 q 804 -14 904 -14 q 665 13 733 -14 q 561 86 597 39 q 480 33 525 56 q 374 -1 435 11 q 225 -14 313 -14 m 783 407 l 935 407 l 938 419 q 939 431 939 424 q 925 460 939 447 q 875 474 911 474 q 812 454 833 474 q 783 407 790 435 m 336 169 q 418 200 388 169 l 431 261 l 369 261 q 297 215 308 261 q 296 209 296 213 q 296 203 296 206 q 336 169 296 169 z "},"b":{"ha":872,"x_min":-31,"x_max":856,"o":"m 457 -14 q 360 1 401 -14 q 285 43 318 17 l 261 0 l -31 0 l 168 936 l 504 936 l 443 647 q 513 665 471 658 q 590 672 554 672 q 783 619 710 672 q 856 443 856 567 q 843 335 856 396 q 457 -14 769 -14 m 411 226 q 464 248 442 226 q 499 329 486 269 q 504 378 504 356 q 492 420 504 408 q 456 432 479 432 q 392 411 422 432 l 357 247 q 381 232 368 238 q 411 226 393 226 z "},"c":{"ha":722,"x_min":1,"x_max":751,"o":"m 350 -14 q 172 15 250 -14 q 47 101 93 43 q 1 247 1 158 q 4 287 1 267 q 11 329 7 307 q 173 589 49 506 q 493 672 297 672 q 634 662 571 672 q 751 624 697 651 l 701 390 q 616 422 663 413 q 518 432 569 432 q 406 409 446 432 q 354 329 365 386 q 350 293 350 308 q 378 242 350 258 q 476 226 407 226 q 579 241 528 226 q 681 279 631 256 l 629 35 q 496 -3 564 8 q 350 -14 428 -14 z "},"ć":{"ha":722,"x_min":1,"x_max":815,"o":"m 357 725 l 557 1039 l 815 1039 l 603 725 l 357 725 m 350 -14 q 172 15 250 -14 q 47 101 93 43 q 1 247 1 158 q 4 287 1 267 q 11 329 7 307 q 173 589 49 506 q 493 672 297 672 q 634 662 571 672 q 751 624 697 651 l 701 390 q 616 422 663 413 q 518 432 569 432 q 406 409 446 432 q 354 329 365 386 q 350 293 350 308 q 378 242 350 258 q 476 226 407 226 q 579 241 528 226 q 681 279 631 256 l 629 35 q 496 -3 564 8 q 350 -14 428 -14 z "},"č":{"ha":721,"x_min":1,"x_max":882,"o":"m 381 725 l 201 1025 l 431 1025 l 501 876 l 639 1025 l 882 1025 l 575 725 l 381 725 m 350 -14 q 172 15 250 -14 q 47 101 93 43 q 1 247 1 158 q 4 287 1 267 q 11 329 7 307 q 173 589 49 506 q 493 672 297 672 q 634 662 571 672 q 751 624 697 651 l 701 390 q 616 422 663 413 q 518 432 569 432 q 406 409 446 432 q 354 329 365 386 q 350 293 350 308 q 378 242 350 258 q 476 226 407 226 q 579 241 528 226 q 681 279 631 256 l 629 35 q 496 -3 564 8 q 350 -14 428 -14 z "},"ç":{"ha":722,"x_min":1,"x_max":751,"o":"m 253 -333 q 211 -332 236 -333 q 165 -328 186 -331 q 133 -322 143 -325 l 157 -215 q 235 -226 193 -226 q 338 -178 329 -226 q 331 -147 343 -156 q 294 -139 318 -139 l 192 -139 l 256 -7 q 72 73 143 10 q 1 247 1 136 q 3 287 1 267 q 11 329 6 307 q 173 589 49 506 q 493 672 297 672 q 634 662 571 672 q 751 624 697 651 l 701 390 q 616 422 663 413 q 518 432 569 432 q 406 409 446 432 q 354 329 365 386 q 350 293 350 308 q 378 242 350 258 q 476 226 407 226 q 579 241 528 226 q 681 279 631 256 l 629 35 q 528 3 579 14 q 421 -11 476 -8 l 399 -51 q 491 -81 460 -51 q 522 -154 522 -110 q 522 -169 522 -161 q 519 -185 522 -178 q 438 -293 506 -253 q 253 -333 369 -333 z "},"ĉ":{"ha":721,"x_min":1,"x_max":799,"o":"m 118 725 l 424 1025 l 619 1025 l 799 725 l 575 725 l 500 874 l 368 725 l 118 725 m 350 -14 q 172 15 250 -14 q 47 101 93 43 q 1 247 1 158 q 4 287 1 267 q 11 329 7 307 q 173 589 49 506 q 493 672 297 672 q 634 662 571 672 q 751 624 697 651 l 701 390 q 616 422 663 413 q 518 432 569 432 q 406 409 446 432 q 354 329 365 386 q 350 293 350 308 q 378 242 350 258 q 476 226 407 226 q 579 241 528 226 q 681 279 631 256 l 629 35 q 496 -3 564 8 q 350 -14 428 -14 z "},"ċ":{"ha":722,"x_min":1,"x_max":751,"o":"m 361 767 l 401 963 l 618 963 l 576 767 l 361 767 m 350 -14 q 172 15 250 -14 q 47 101 93 43 q 1 247 1 158 q 4 287 1 267 q 11 329 7 307 q 173 589 49 506 q 493 672 297 672 q 634 662 571 672 q 751 624 697 651 l 701 390 q 616 422 663 413 q 518 432 569 432 q 406 409 446 432 q 354 329 365 386 q 350 293 350 308 q 378 242 350 258 q 476 226 407 226 q 579 241 528 226 q 681 279 631 256 l 629 35 q 496 -3 564 8 q 350 -14 428 -14 z "},"d":{"ha":874,"x_min":0,"x_max":944,"o":"m 250 -14 q 69 44 139 -14 q 0 225 0 103 q 13 331 0 272 q 149 594 53 515 q 408 672 246 672 q 484 665 444 672 q 547 647 524 658 l 608 936 l 944 936 l 746 0 l 454 0 l 447 43 q 358 1 406 17 q 250 -14 311 -14 m 399 226 q 432 232 418 226 q 461 247 446 238 l 496 411 q 443 432 476 432 q 390 408 413 432 q 354 325 367 385 q 349 278 349 301 q 363 237 349 247 q 399 226 376 226 z "},"ð":{"ha":861,"x_min":-4,"x_max":917,"o":"m 335 -14 q 81 47 165 -14 q -4 217 -4 107 q -3 249 -4 232 q 3 285 -1 267 q 126 501 35 432 q 388 569 218 569 q 474 560 429 569 q 540 535 518 550 l 544 553 q 551 588 549 571 q 554 618 554 604 q 553 631 554 625 q 551 643 553 638 l 414 589 l 429 665 l 497 692 q 415 701 469 701 q 308 690 360 701 q 200 654 257 678 l 244 865 q 377 899 307 889 q 518 908 447 908 q 683 881 615 908 q 790 807 750 854 l 917 857 l 900 781 l 828 751 q 850 683 843 721 q 857 606 857 646 q 855 552 857 579 q 846 497 853 525 l 817 360 q 733 156 790 239 q 580 29 676 72 q 335 -14 483 -14 m 379 203 q 452 224 425 203 q 490 299 479 246 l 500 343 q 456 361 478 354 q 411 368 435 368 q 335 347 360 368 q 301 285 310 325 q 299 273 300 279 q 299 260 299 267 q 379 203 299 203 z "},"ď":{"ha":1203,"x_min":3,"x_max":1322,"o":"m 256 -14 q 71 47 139 -14 q 3 225 3 108 q 28 390 3 310 q 103 533 53 469 q 228 635 153 597 q 403 672 303 672 q 483 665 439 672 q 551 647 528 658 l 613 936 l 949 936 l 750 0 l 458 0 l 451 43 q 363 1 410 17 q 256 -14 315 -14 m 949 590 l 1074 936 l 1322 936 l 1158 590 l 949 590 m 403 226 q 436 232 422 226 q 465 247 450 238 l 501 411 q 447 432 481 432 q 401 408 424 432 q 364 347 378 385 q 350 268 350 310 q 365 233 350 239 q 403 226 381 226 z "},"đ":{"ha":878,"x_min":0,"x_max":981,"o":"m 250 -14 q 69 44 139 -14 q 0 225 0 103 q 13 331 0 272 q 149 594 53 515 q 408 672 246 672 q 484 665 444 672 q 547 647 524 658 l 558 703 l 403 703 l 443 890 l 599 890 l 608 936 l 944 936 l 935 890 l 981 890 l 940 703 l 894 703 l 746 0 l 454 0 l 447 43 q 358 1 406 17 q 250 -14 311 -14 m 399 226 q 432 232 418 226 q 461 247 446 238 l 496 411 q 443 432 476 432 q 390 408 413 432 q 354 325 367 385 q 349 278 349 301 q 363 237 349 247 q 399 226 376 226 z "},"ḍ":{"ha":874,"x_min":0,"x_max":944,"o":"m 250 -14 q 69 44 139 -14 q 0 225 0 103 q 13 331 0 272 q 149 594 53 515 q 408 672 246 672 q 484 665 444 672 q 547 647 524 658 l 608 936 l 944 936 l 746 0 l 454 0 l 447 43 q 358 1 406 17 q 250 -14 311 -14 m 399 226 q 432 232 418 226 q 461 247 446 238 l 496 411 q 443 432 476 432 q 390 408 413 432 q 354 325 367 385 q 349 278 349 301 q 363 237 349 247 q 399 226 376 226 m 143 -296 l 185 -100 l 401 -100 l 360 -296 l 143 -296 z "},"ḏ":{"ha":874,"x_min":0,"x_max":944,"o":"m 250 -14 q 69 44 139 -14 q 0 225 0 103 q 13 331 0 272 q 149 594 53 515 q 408 672 246 672 q 484 665 444 672 q 547 647 524 658 l 608 936 l 944 936 l 746 0 l 454 0 l 447 43 q 358 1 406 17 q 250 -14 311 -14 m 399 226 q 432 232 418 226 q 461 247 446 238 l 496 411 q 443 432 476 432 q 390 408 413 432 q 354 325 367 385 q 349 278 349 301 q 363 237 349 247 q 399 226 376 226 m 129 -281 l 171 -86 l 654 -86 l 613 -281 l 129 -281 z "},"e":{"ha":788,"x_min":3,"x_max":769,"o":"m 349 -14 q 176 17 254 -14 q 50 107 97 47 q 3 256 3 167 q 11 326 3 289 q 85 509 35 432 q 226 629 136 586 q 458 672 317 672 q 623 640 553 672 q 731 549 693 607 q 769 415 769 492 q 767 384 769 400 q 763 351 765 368 l 739 239 l 300 239 q 354 198 315 213 q 482 183 393 183 q 605 194 544 183 q 701 217 665 204 l 663 36 q 349 -14 549 -14 m 336 407 l 488 407 l 490 419 q 492 432 492 424 q 478 461 492 449 q 428 474 464 474 q 365 456 386 474 q 336 407 343 438 z "},"é":{"ha":788,"x_min":3,"x_max":821,"o":"m 363 725 l 563 1039 l 821 1039 l 608 725 l 363 725 m 349 -14 q 176 17 254 -14 q 50 107 97 47 q 3 256 3 167 q 11 326 3 289 q 85 509 35 432 q 226 629 136 586 q 458 672 317 672 q 623 640 553 672 q 731 549 693 607 q 769 415 769 492 q 767 384 769 400 q 763 351 765 368 l 739 239 l 300 239 q 354 198 315 213 q 482 183 393 183 q 605 194 544 183 q 701 217 665 204 l 663 36 q 349 -14 549 -14 m 336 407 l 488 407 l 490 419 q 492 432 492 424 q 478 461 492 449 q 428 474 464 474 q 365 456 386 474 q 336 407 343 438 z "},"ĕ":{"ha":788,"x_min":3,"x_max":851,"o":"m 479 725 q 297 781 364 725 q 231 944 231 838 q 233 986 231 964 q 240 1031 235 1008 l 444 1031 q 440 1008 442 1019 q 439 985 439 996 q 454 931 439 953 q 508 908 469 908 q 589 946 561 908 q 626 1031 617 983 l 851 1031 q 719 803 819 882 q 479 725 619 725 m 349 -14 q 176 17 254 -14 q 50 107 97 47 q 3 256 3 167 q 11 326 3 289 q 85 509 35 432 q 226 629 136 586 q 458 672 317 672 q 623 640 553 672 q 731 549 693 607 q 769 415 769 492 q 767 384 769 400 q 763 351 765 368 l 739 239 l 300 239 q 354 198 315 213 q 482 183 393 183 q 605 194 544 183 q 701 217 665 204 l 663 36 q 349 -14 549 -14 m 336 407 l 488 407 l 490 419 q 492 432 492 424 q 478 461 492 449 q 428 474 464 474 q 365 456 386 474 q 336 407 343 438 z "},"ě":{"ha":788,"x_min":3,"x_max":889,"o":"m 388 725 l 208 1025 l 438 1025 l 508 876 l 646 1025 l 889 1025 l 582 725 l 388 725 m 349 -14 q 176 17 254 -14 q 50 107 97 47 q 3 256 3 167 q 11 326 3 289 q 85 509 35 432 q 226 629 136 586 q 458 672 317 672 q 623 640 553 672 q 731 549 693 607 q 769 415 769 492 q 767 384 769 400 q 763 351 765 368 l 739 239 l 300 239 q 354 198 315 213 q 482 183 393 183 q 605 194 544 183 q 701 217 665 204 l 663 36 q 349 -14 549 -14 m 336 407 l 488 407 l 490 419 q 492 432 492 424 q 478 461 492 449 q 428 474 464 474 q 365 456 386 474 q 336 407 343 438 z "},"ê":{"ha":788,"x_min":3,"x_max":817,"o":"m 136 725 l 442 1025 l 638 1025 l 817 725 l 593 725 l 518 874 l 386 725 l 136 725 m 349 -14 q 176 17 254 -14 q 50 107 97 47 q 3 256 3 167 q 11 326 3 289 q 85 509 35 432 q 226 629 136 586 q 458 672 317 672 q 623 640 553 672 q 731 549 693 607 q 769 415 769 492 q 767 384 769 400 q 763 351 765 368 l 739 239 l 300 239 q 354 198 315 213 q 482 183 393 183 q 605 194 544 183 q 701 217 665 204 l 663 36 q 349 -14 549 -14 m 336 407 l 488 407 l 490 419 q 492 432 492 424 q 478 461 492 449 q 428 474 464 474 q 365 456 386 474 q 336 407 343 438 z "},"ế":{"ha":788,"x_min":3,"x_max":1129,"o":"m 731 908 l 885 1147 l 1129 1147 l 963 908 l 731 908 m 151 725 l 421 958 l 664 958 l 832 725 l 581 725 l 525 831 l 429 725 l 151 725 m 349 -14 q 176 17 254 -14 q 50 107 97 47 q 3 256 3 167 q 11 326 3 289 q 85 509 35 432 q 226 629 136 586 q 458 672 317 672 q 623 640 553 672 q 731 549 693 607 q 769 415 769 492 q 767 384 769 400 q 763 351 765 368 l 739 239 l 300 239 q 354 198 315 213 q 482 183 393 183 q 605 194 544 183 q 701 217 665 204 l 663 36 q 349 -14 549 -14 m 336 407 l 488 407 l 490 419 q 492 432 492 424 q 478 461 492 449 q 428 474 464 474 q 365 456 386 474 q 336 407 343 438 z "},"ệ":{"ha":788,"x_min":3,"x_max":806,"o":"m 125 725 l 431 1025 l 626 1025 l 806 725 l 582 725 l 507 874 l 375 725 l 125 725 m 349 -14 q 176 17 254 -14 q 50 107 97 47 q 3 256 3 167 q 11 326 3 289 q 85 509 35 432 q 226 629 136 586 q 458 672 317 672 q 623 640 553 672 q 731 549 693 607 q 769 415 769 492 q 767 384 769 400 q 763 351 765 368 l 739 239 l 300 239 q 354 198 315 213 q 482 183 393 183 q 605 194 544 183 q 701 217 665 204 l 663 36 q 349 -14 549 -14 m 336 407 l 488 407 l 490 419 q 492 432 492 424 q 478 461 492 449 q 428 474 464 474 q 365 456 386 474 q 336 407 343 438 m 142 -296 l 183 -100 l 400 -100 l 358 -296 l 142 -296 z "},"ề":{"ha":786,"x_min":1,"x_max":828,"o":"m 94 908 l 31 1147 l 275 1147 l 328 908 l 94 908 m 147 725 l 417 958 l 660 958 l 828 725 l 571 725 l 519 831 l 419 725 l 147 725 m 347 -14 q 174 17 253 -14 q 49 107 96 47 q 1 256 1 167 q 10 326 1 289 q 84 509 33 432 q 225 629 135 586 q 457 672 315 672 q 622 640 551 672 q 730 549 692 607 q 768 415 768 492 q 766 384 768 400 q 761 351 764 368 l 738 239 l 299 239 q 353 198 314 213 q 481 183 392 183 q 603 194 543 183 q 700 217 664 204 l 661 36 q 347 -14 547 -14 m 335 407 l 486 407 l 489 419 q 490 432 490 424 q 476 461 490 449 q 426 474 463 474 q 363 456 385 474 q 335 407 342 438 z "},"ể":{"ha":788,"x_min":3,"x_max":1079,"o":"m 726 876 l 750 988 q 826 1000 808 990 q 844 1024 844 1010 q 801 1040 844 1040 q 767 1036 785 1040 q 733 1026 749 1032 l 761 1154 q 831 1166 789 1161 q 924 1171 872 1171 q 1040 1140 1001 1171 q 1079 1065 1079 1110 q 1078 1054 1079 1060 q 1076 1043 1078 1049 q 1036 963 1067 996 q 953 919 1006 929 l 943 876 l 726 876 m 139 725 l 408 958 l 651 958 l 819 725 l 568 725 l 513 831 l 417 725 l 139 725 m 349 -14 q 176 17 254 -14 q 50 107 97 47 q 3 256 3 167 q 11 326 3 289 q 85 509 35 432 q 226 629 136 586 q 458 672 317 672 q 623 640 553 672 q 731 549 693 607 q 769 415 769 492 q 767 384 769 400 q 763 351 765 368 l 739 239 l 300 239 q 354 198 315 213 q 482 183 393 183 q 605 194 544 183 q 701 217 665 204 l 663 36 q 349 -14 549 -14 m 336 407 l 488 407 l 490 419 q 492 432 492 424 q 478 461 492 449 q 428 474 464 474 q 365 456 386 474 q 336 407 343 438 z "},"ễ":{"ha":788,"x_min":3,"x_max":858,"o":"m 683 979 q 594 994 636 979 q 511 1023 551 1008 q 429 1038 471 1038 q 345 1022 383 1038 q 279 983 307 1007 l 318 1171 q 381 1203 342 1189 q 463 1217 421 1217 q 552 1202 511 1217 q 633 1173 593 1188 q 717 1158 672 1158 q 800 1174 763 1158 q 858 1213 838 1190 l 818 1025 q 763 993 801 1007 q 683 979 725 979 m 139 725 l 408 958 l 651 958 l 819 725 l 568 725 l 513 831 l 417 725 l 139 725 m 349 -14 q 176 17 254 -14 q 50 107 97 47 q 3 256 3 167 q 11 326 3 289 q 85 509 35 432 q 226 629 136 586 q 458 672 317 672 q 623 640 553 672 q 731 549 693 607 q 769 415 769 492 q 767 384 769 400 q 763 351 765 368 l 739 239 l 300 239 q 354 198 315 213 q 482 183 393 183 q 605 194 544 183 q 701 217 665 204 l 663 36 q 349 -14 549 -14 m 336 407 l 488 407 l 490 419 q 492 432 492 424 q 478 461 492 449 q 428 474 464 474 q 365 456 386 474 q 336 407 343 438 z "},"ë":{"ha":788,"x_min":3,"x_max":797,"o":"m 214 767 l 256 963 l 471 963 l 429 767 l 214 767 m 539 767 l 581 963 l 797 963 l 756 767 l 539 767 m 349 -14 q 176 17 254 -14 q 50 107 97 47 q 3 256 3 167 q 11 326 3 289 q 85 509 35 432 q 226 629 136 586 q 458 672 317 672 q 623 640 553 672 q 731 549 693 607 q 769 415 769 492 q 767 384 769 400 q 763 351 765 368 l 739 239 l 300 239 q 354 198 315 213 q 482 183 393 183 q 605 194 544 183 q 701 217 665 204 l 663 36 q 349 -14 549 -14 m 336 407 l 488 407 l 490 419 q 492 432 492 424 q 478 461 492 449 q 428 474 464 474 q 365 456 386 474 q 336 407 343 438 z "},"ė":{"ha":788,"x_min":3,"x_max":769,"o":"m 379 767 l 419 963 l 636 963 l 594 767 l 379 767 m 349 -14 q 176 17 254 -14 q 50 107 97 47 q 3 256 3 167 q 11 326 3 289 q 85 509 35 432 q 226 629 136 586 q 458 672 317 672 q 623 640 553 672 q 731 549 693 607 q 769 415 769 492 q 767 384 769 400 q 763 351 765 368 l 739 239 l 300 239 q 354 198 315 213 q 482 183 393 183 q 605 194 544 183 q 701 217 665 204 l 663 36 q 349 -14 549 -14 m 336 407 l 488 407 l 490 419 q 492 432 492 424 q 478 461 492 449 q 428 474 464 474 q 365 456 386 474 q 336 407 343 438 z "},"ẹ":{"ha":788,"x_min":3,"x_max":769,"o":"m 349 -14 q 176 17 254 -14 q 50 107 97 47 q 3 256 3 167 q 11 326 3 289 q 85 509 35 432 q 226 629 136 586 q 458 672 317 672 q 623 640 553 672 q 731 549 693 607 q 769 415 769 492 q 767 384 769 400 q 763 351 765 368 l 739 239 l 300 239 q 354 198 315 213 q 482 183 393 183 q 605 194 544 183 q 701 217 665 204 l 663 36 q 349 -14 549 -14 m 336 407 l 488 407 l 490 419 q 492 432 492 424 q 478 461 492 449 q 428 474 464 474 q 365 456 386 474 q 336 407 343 438 m 167 -296 l 208 -100 l 425 -100 l 383 -296 l 167 -296 z "},"è":{"ha":788,"x_min":3,"x_max":769,"o":"m 354 725 l 275 1039 l 533 1039 l 600 725 l 354 725 m 349 -14 q 176 17 254 -14 q 50 107 97 47 q 3 256 3 167 q 11 326 3 289 q 85 509 35 432 q 226 629 136 586 q 458 672 317 672 q 623 640 553 672 q 731 549 693 607 q 769 415 769 492 q 767 384 769 400 q 763 351 765 368 l 739 239 l 300 239 q 354 198 315 213 q 482 183 393 183 q 605 194 544 183 q 701 217 665 204 l 663 36 q 349 -14 549 -14 m 336 407 l 488 407 l 490 419 q 492 432 492 424 q 478 461 492 449 q 428 474 464 474 q 365 456 386 474 q 336 407 343 438 z "},"ẻ":{"ha":788,"x_min":3,"x_max":769,"o":"m 357 725 l 381 838 q 478 856 450 842 q 510 892 506 871 q 449 931 519 931 q 368 917 407 931 l 396 1047 q 476 1063 432 1057 q 581 1068 521 1068 q 717 1034 671 1068 q 763 947 763 1000 q 762 933 763 940 q 760 919 761 926 q 713 826 746 857 q 615 775 679 794 l 604 725 l 357 725 m 349 -14 q 176 17 254 -14 q 50 107 97 47 q 3 256 3 167 q 11 326 3 289 q 85 509 35 432 q 226 629 136 586 q 458 672 317 672 q 623 640 553 672 q 731 549 693 607 q 769 415 769 492 q 767 384 769 400 q 763 351 765 368 l 739 239 l 300 239 q 354 198 315 213 q 482 183 393 183 q 605 194 544 183 q 701 217 665 204 l 663 36 q 349 -14 549 -14 m 336 407 l 488 407 l 490 419 q 492 432 492 424 q 478 461 492 449 q 428 474 464 474 q 365 456 386 474 q 336 407 343 438 z "},"ē":{"ha":788,"x_min":3,"x_max":769,"o":"m 240 781 l 282 975 l 765 975 l 724 781 l 240 781 m 349 -14 q 176 17 254 -14 q 50 107 97 47 q 3 256 3 167 q 11 326 3 289 q 85 509 35 432 q 226 629 136 586 q 458 672 317 672 q 623 640 553 672 q 731 549 693 607 q 769 415 769 492 q 767 384 769 400 q 763 351 765 368 l 739 239 l 300 239 q 354 198 315 213 q 482 183 393 183 q 605 194 544 183 q 701 217 665 204 l 663 36 q 349 -14 549 -14 m 336 407 l 488 407 l 490 419 q 492 432 492 424 q 478 461 492 449 q 428 474 464 474 q 365 456 386 474 q 336 407 343 438 z "},"ę":{"ha":788,"x_min":3,"x_max":769,"o":"m 339 -306 q 208 -278 256 -306 q 160 -194 160 -251 q 197 -86 160 -133 q 283 -10 235 -39 q 140 33 204 0 q 40 122 76 67 q 3 256 3 178 q 11 326 3 289 q 85 509 35 432 q 226 629 136 586 q 458 672 317 672 q 623 640 553 672 q 731 549 693 607 q 769 415 769 492 q 767 384 769 400 q 763 351 765 368 l 739 239 l 300 239 q 354 198 315 213 q 482 183 393 183 q 605 194 544 183 q 701 217 665 204 l 663 36 q 492 -6 593 6 q 440 -53 461 -28 q 411 -106 418 -78 q 410 -117 410 -110 q 425 -142 410 -135 q 467 -149 440 -149 q 506 -144 485 -149 q 540 -133 526 -140 l 510 -281 q 438 -297 483 -289 q 339 -306 392 -306 m 336 407 l 488 407 l 490 419 q 492 432 492 424 q 478 461 492 449 q 428 474 464 474 q 365 456 386 474 q 336 407 343 438 z "},"ẽ":{"ha":788,"x_min":3,"x_max":818,"o":"m 635 732 q 540 747 585 732 q 453 778 494 763 q 368 793 411 793 q 281 777 321 793 q 210 736 240 761 l 251 932 q 319 966 276 951 q 404 981 361 981 q 497 965 456 981 q 581 935 539 950 q 669 919 622 919 q 757 937 718 919 q 818 976 796 954 l 776 781 q 719 747 758 763 q 635 732 679 732 m 349 -14 q 176 17 254 -14 q 50 107 97 47 q 3 256 3 167 q 11 326 3 289 q 85 509 35 432 q 226 629 136 586 q 458 672 317 672 q 623 640 553 672 q 731 549 693 607 q 769 415 769 492 q 767 384 769 400 q 763 351 765 368 l 739 239 l 300 239 q 354 198 315 213 q 482 183 393 183 q 605 194 544 183 q 701 217 665 204 l 663 36 q 349 -14 549 -14 m 336 407 l 488 407 l 490 419 q 492 432 492 424 q 478 461 492 449 q 428 474 464 474 q 365 456 386 474 q 336 407 343 438 z "},"ə":{"ha":788,"x_min":-1,"x_max":768,"o":"m 300 -14 q 143 17 211 -14 q 37 103 75 47 q -1 236 -1 160 q 7 307 -1 269 l 32 419 l 471 419 q 448 451 463 439 q 399 469 433 463 q 296 475 365 475 q 169 465 233 475 q 69 442 106 454 l 108 622 q 253 659 165 646 q 435 672 342 672 q 599 646 524 672 q 722 562 675 619 q 768 413 768 504 q 765 374 768 394 q 758 332 763 354 q 683 153 738 232 q 535 31 629 75 q 300 -14 442 -14 m 343 185 q 407 204 385 185 q 435 251 429 224 l 283 251 l 281 239 q 279 228 279 235 q 293 198 279 211 q 343 185 307 185 z "},"f":{"ha":592,"x_min":14,"x_max":693,"o":"m 14 0 l 101 417 l 24 417 l 75 658 l 153 658 l 157 679 q 262 885 183 811 q 497 958 340 958 q 693 921 614 958 l 650 713 q 569 726 613 726 q 492 671 503 726 l 489 658 l 632 658 l 567 417 l 438 417 l 350 0 l 14 0 z "},"g":{"ha":872,"x_min":-4,"x_max":885,"o":"m 194 -244 q 132 -242 172 -244 q 53 -237 92 -240 q -4 -231 14 -233 l 43 -12 q 114 -25 69 -19 q 189 -31 158 -31 q 352 -19 296 -31 q 414 21 408 -7 l 417 33 q 346 16 388 24 q 268 8 304 8 q 69 60 140 8 q -1 221 -1 111 q 1 265 -1 242 q 10 315 4 289 q 153 582 50 492 q 400 672 257 672 q 500 657 461 672 q 569 615 539 642 l 593 658 l 885 658 l 767 100 q 683 -85 744 -8 q 503 -203 621 -162 q 194 -244 386 -244 m 399 226 q 461 247 433 226 l 496 411 q 476 427 486 422 q 447 432 467 432 q 392 406 417 432 q 354 321 367 381 q 349 295 351 307 q 347 274 347 283 q 362 235 347 244 q 399 226 376 226 z "},"ğ":{"ha":872,"x_min":-4,"x_max":885,"o":"m 493 725 q 311 781 378 725 q 244 944 244 838 q 247 986 244 964 q 254 1031 249 1008 l 458 1031 q 454 1008 456 1019 q 453 985 453 996 q 468 931 453 953 q 522 908 483 908 q 603 946 575 908 q 640 1031 631 983 l 865 1031 q 733 803 833 882 q 493 725 633 725 m 194 -244 q 132 -242 172 -244 q 53 -237 92 -240 q -4 -231 14 -233 l 43 -12 q 114 -25 69 -19 q 189 -31 158 -31 q 352 -19 296 -31 q 414 21 408 -7 l 417 33 q 346 16 388 24 q 268 8 304 8 q 69 60 140 8 q -1 221 -1 111 q 1 265 -1 242 q 10 315 4 289 q 153 582 50 492 q 400 672 257 672 q 500 657 461 672 q 569 615 539 642 l 593 658 l 885 658 l 767 100 q 683 -85 744 -8 q 503 -203 621 -162 q 194 -244 386 -244 m 399 226 q 461 247 433 226 l 496 411 q 476 427 486 422 q 447 432 467 432 q 392 406 417 432 q 354 321 367 381 q 349 295 351 307 q 347 274 347 283 q 362 235 347 244 q 399 226 376 226 z "},"ǧ":{"ha":872,"x_min":-4,"x_max":890,"o":"m 389 725 l 210 1025 l 439 1025 l 510 876 l 647 1025 l 890 1025 l 583 725 l 389 725 m 194 -244 q 132 -242 172 -244 q 53 -237 92 -240 q -4 -231 14 -233 l 43 -12 q 114 -25 69 -19 q 189 -31 158 -31 q 352 -19 296 -31 q 414 21 408 -7 l 417 33 q 346 16 388 24 q 268 8 304 8 q 69 60 140 8 q -1 221 -1 111 q 1 265 -1 242 q 10 315 4 289 q 153 582 50 492 q 400 672 257 672 q 500 657 461 672 q 569 615 539 642 l 593 658 l 885 658 l 767 100 q 683 -85 744 -8 q 503 -203 621 -162 q 194 -244 386 -244 m 399 226 q 461 247 433 226 l 496 411 q 476 427 486 422 q 447 432 467 432 q 392 406 417 432 q 354 321 367 381 q 349 295 351 307 q 347 274 347 283 q 362 235 347 244 q 399 226 376 226 z "},"ĝ":{"ha":872,"x_min":-4,"x_max":885,"o":"m 154 725 l 460 1025 l 656 1025 l 835 725 l 611 725 l 536 874 l 404 725 l 154 725 m 194 -244 q 132 -242 172 -244 q 53 -237 92 -240 q -4 -231 14 -233 l 43 -12 q 114 -25 69 -19 q 189 -31 158 -31 q 352 -19 296 -31 q 414 21 408 -7 l 417 33 q 346 16 388 24 q 268 8 304 8 q 69 60 140 8 q -1 221 -1 111 q 1 265 -1 242 q 10 315 4 289 q 153 582 50 492 q 400 672 257 672 q 500 657 461 672 q 569 615 539 642 l 593 658 l 885 658 l 767 100 q 683 -85 744 -8 q 503 -203 621 -162 q 194 -244 386 -244 m 399 226 q 461 247 433 226 l 496 411 q 476 427 486 422 q 447 432 467 432 q 392 406 417 432 q 354 321 367 381 q 349 295 351 307 q 347 274 347 283 q 362 235 347 244 q 399 226 376 226 z "},"ģ":{"ha":872,"x_min":-4,"x_max":885,"o":"m 349 725 l 513 1071 l 721 1071 l 597 725 l 349 725 m 194 -244 q 132 -242 172 -244 q 53 -237 92 -240 q -4 -231 14 -233 l 43 -12 q 114 -25 69 -19 q 189 -31 158 -31 q 352 -19 296 -31 q 414 21 408 -7 l 417 33 q 346 16 388 24 q 268 8 304 8 q 69 60 140 8 q -1 221 -1 111 q 1 265 -1 242 q 10 315 4 289 q 153 582 50 492 q 400 672 257 672 q 500 657 461 672 q 569 615 539 642 l 593 658 l 885 658 l 767 100 q 683 -85 744 -8 q 503 -203 621 -162 q 194 -244 386 -244 m 399 226 q 461 247 433 226 l 496 411 q 476 427 486 422 q 447 432 467 432 q 392 406 417 432 q 354 321 367 381 q 349 295 351 307 q 347 274 347 283 q 362 235 347 244 q 399 226 376 226 z "},"ġ":{"ha":872,"x_min":-4,"x_max":885,"o":"m 375 739 l 415 935 l 632 935 l 590 739 l 375 739 m 194 -244 q 132 -242 172 -244 q 53 -237 92 -240 q -4 -231 14 -233 l 43 -12 q 114 -25 69 -19 q 189 -31 158 -31 q 352 -19 296 -31 q 414 21 408 -7 l 417 33 q 346 16 388 24 q 268 8 304 8 q 69 60 140 8 q -1 221 -1 111 q 1 265 -1 242 q 10 315 4 289 q 153 582 50 492 q 400 672 257 672 q 500 657 461 672 q 569 615 539 642 l 593 658 l 885 658 l 767 100 q 683 -85 744 -8 q 503 -203 621 -162 q 194 -244 386 -244 m 399 226 q 461 247 433 226 l 496 411 q 476 427 486 422 q 447 432 467 432 q 392 406 417 432 q 354 321 367 381 q 349 295 351 307 q 347 274 347 283 q 362 235 347 244 q 399 226 376 226 z "},"ḡ":{"ha":872,"x_min":-4,"x_max":885,"o":"m 236 767 l 278 961 l 761 961 l 719 767 l 236 767 m 194 -244 q 132 -242 172 -244 q 53 -237 92 -240 q -4 -231 14 -233 l 43 -12 q 114 -25 69 -19 q 189 -31 158 -31 q 352 -19 296 -31 q 414 21 408 -7 l 417 33 q 346 16 388 24 q 268 8 304 8 q 69 60 140 8 q -1 221 -1 111 q 1 265 -1 242 q 10 315 4 289 q 153 582 50 492 q 400 672 257 672 q 500 657 461 672 q 569 615 539 642 l 593 658 l 885 658 l 767 100 q 683 -85 744 -8 q 503 -203 621 -162 q 194 -244 386 -244 m 399 226 q 461 247 433 226 l 496 411 q 476 427 486 422 q 447 432 467 432 q 392 406 417 432 q 354 321 367 381 q 349 295 351 307 q 347 274 347 283 q 362 235 347 244 q 399 226 376 226 z "},"h":{"ha":869,"x_min":-31,"x_max":843,"o":"m -31 0 l 168 936 l 504 936 l 439 633 q 519 660 471 649 q 619 672 568 672 q 787 624 731 672 q 843 483 843 575 q 835 406 843 447 l 749 0 l 413 0 l 492 378 q 493 388 493 383 q 493 394 493 392 q 457 425 493 425 q 422 417 443 425 q 389 397 401 408 l 306 0 l -31 0 z "},"ħ":{"ha":885,"x_min":-15,"x_max":858,"o":"m -15 0 l 138 722 l 89 722 l 118 858 l 167 858 l 183 936 l 519 936 l 503 858 l 624 858 l 594 722 l 474 722 l 454 633 q 535 660 486 649 q 635 672 583 672 q 802 624 746 672 q 858 483 858 575 q 850 406 858 447 l 764 0 l 428 0 l 507 378 q 508 388 508 383 q 508 394 508 392 q 472 425 508 425 q 438 417 458 425 q 404 397 417 408 l 321 0 l -15 0 z "},"ḫ":{"ha":869,"x_min":-31,"x_max":843,"o":"m -31 0 l 168 936 l 504 936 l 439 633 q 519 660 471 649 q 619 672 568 672 q 787 624 731 672 q 843 483 843 575 q 835 406 843 447 l 749 0 l 413 0 l 492 378 q 493 388 493 383 q 493 394 493 392 q 457 425 493 425 q 422 417 443 425 q 389 397 401 408 l 306 0 l -31 0 m 290 -361 q 107 -305 174 -361 q 40 -140 40 -249 q 42 -99 40 -121 q 50 -56 44 -78 l 256 -56 q 251 -78 253 -67 q 250 -101 250 -90 q 265 -156 250 -133 q 319 -178 281 -178 q 401 -142 372 -178 q 436 -56 431 -107 l 661 -56 q 538 -283 631 -204 q 290 -361 446 -361 z "},"ĥ":{"ha":869,"x_min":-31,"x_max":871,"o":"m 190 989 l 496 1289 l 692 1289 l 871 989 l 647 989 l 572 1138 l 440 989 l 190 989 m -31 0 l 168 936 l 504 936 l 439 633 q 519 660 471 649 q 619 672 568 672 q 787 624 731 672 q 843 483 843 575 q 835 406 843 447 l 749 0 l 413 0 l 492 378 q 493 388 493 383 q 493 394 493 392 q 457 425 493 425 q 422 417 443 425 q 389 397 401 408 l 306 0 l -31 0 z "},"ḥ":{"ha":869,"x_min":-31,"x_max":843,"o":"m -31 0 l 168 936 l 504 936 l 439 633 q 519 660 471 649 q 619 672 568 672 q 787 624 731 672 q 843 483 843 575 q 835 406 843 447 l 749 0 l 413 0 l 492 378 q 493 388 493 383 q 493 394 493 392 q 457 425 493 425 q 422 417 443 425 q 389 397 401 408 l 306 0 l -31 0 m 181 -296 l 222 -100 l 439 -100 l 397 -296 l 181 -296 z "},"i":{"ha":506,"x_min":38,"x_max":578,"o":"m 169 713 l 218 944 l 578 944 l 529 713 l 169 713 m 42 0 l 129 417 l 38 417 l 117 658 l 517 658 l 378 0 l 42 0 z "},"ı":{"ha":526,"x_min":58,"x_max":538,"o":"m 63 0 l 150 417 l 58 417 l 138 658 l 538 658 l 399 0 l 63 0 z "},"í":{"ha":526,"x_min":58,"x_max":697,"o":"m 239 725 l 439 1039 l 697 1039 l 485 725 l 239 725 m 63 0 l 150 417 l 58 417 l 138 658 l 538 658 l 399 0 l 63 0 z "},"ĭ":{"ha":525,"x_min":58,"x_max":725,"o":"m 353 725 q 169 781 236 725 q 103 944 103 838 q 105 986 103 964 q 113 1031 107 1008 l 318 1031 q 314 1008 315 1019 q 313 985 313 996 q 328 931 313 953 q 382 908 343 908 q 463 946 435 908 q 500 1031 490 983 l 725 1031 q 593 803 693 882 q 353 725 493 725 m 63 0 l 150 417 l 58 417 l 138 658 l 538 658 l 399 0 l 63 0 z "},"ǐ":{"ha":524,"x_min":57,"x_max":774,"o":"m 272 725 l 93 1025 l 322 1025 l 393 876 l 531 1025 l 774 1025 l 467 725 l 272 725 m 61 0 l 149 417 l 57 417 l 136 658 l 536 658 l 397 0 l 61 0 z "},"î":{"ha":524,"x_min":18,"x_max":699,"o":"m 18 725 l 324 1025 l 519 1025 l 699 725 l 475 725 l 400 874 l 268 725 l 18 725 m 61 0 l 149 417 l 57 417 l 136 658 l 536 658 l 397 0 l 61 0 z "},"ï":{"ha":524,"x_min":57,"x_max":669,"o":"m 86 767 l 128 963 l 343 963 l 301 767 l 86 767 m 411 767 l 453 963 l 669 963 l 628 767 l 411 767 m 61 0 l 149 417 l 57 417 l 136 658 l 536 658 l 397 0 l 61 0 z "},"ị":{"ha":526,"x_min":58,"x_max":599,"o":"m 190 713 l 239 944 l 599 944 l 550 713 l 190 713 m 63 0 l 150 417 l 58 417 l 138 658 l 538 658 l 399 0 l 63 0 m 61 -296 l 103 -100 l 319 -100 l 278 -296 l 61 -296 z "},"ì":{"ha":525,"x_min":57,"x_max":536,"o":"m 253 725 l 174 1039 l 432 1039 l 499 725 l 253 725 m 61 0 l 149 417 l 57 417 l 136 658 l 536 658 l 397 0 l 61 0 z "},"ỉ":{"ha":526,"x_min":58,"x_max":642,"o":"m 236 725 l 260 838 q 357 856 329 842 q 389 892 385 871 q 328 931 399 931 q 247 917 286 931 l 275 1047 q 356 1063 311 1057 q 460 1068 400 1068 q 596 1034 550 1068 q 642 947 642 1000 q 641 933 642 940 q 639 919 640 926 q 592 826 625 857 q 494 775 558 794 l 483 725 l 236 725 m 63 0 l 150 417 l 58 417 l 138 658 l 538 658 l 399 0 l 63 0 z "},"ĳ":{"ha":993,"x_min":58,"x_max":1065,"o":"m 190 713 l 239 944 l 599 944 l 550 713 l 190 713 m 657 713 l 706 944 l 1065 944 l 1017 713 l 657 713 m 515 -325 q 407 -315 453 -325 q 321 -287 361 -306 l 364 -79 q 444 -93 401 -93 q 521 -37 507 -93 l 617 417 l 525 417 l 604 658 l 1004 658 l 851 -60 q 798 -196 836 -136 q 692 -290 760 -256 q 515 -325 624 -325 m 63 0 l 150 417 l 58 417 l 138 658 l 538 658 l 399 0 l 63 0 z "},"ī":{"ha":525,"x_min":57,"x_max":650,"o":"m 124 819 l 165 1014 l 650 1014 l 608 819 l 124 819 m 61 0 l 149 417 l 57 417 l 136 658 l 536 658 l 397 0 l 61 0 z "},"į":{"ha":526,"x_min":-7,"x_max":599,"o":"m 190 713 l 239 944 l 599 944 l 550 713 l 190 713 m 172 -306 q 41 -278 89 -306 q -7 -194 -7 -251 q 37 -77 -7 -128 q 135 0 81 -26 l 63 0 l 150 417 l 58 417 l 138 658 l 538 658 l 399 0 l 335 0 q 276 -49 300 -22 q 244 -106 251 -75 q 243 -117 243 -110 q 258 -142 243 -135 q 300 -149 274 -149 q 339 -144 318 -149 q 374 -133 360 -140 l 343 -281 q 271 -297 317 -289 q 172 -306 225 -306 z "},"ĩ":{"ha":526,"x_min":58,"x_max":683,"o":"m 500 771 q 405 786 450 771 q 318 817 360 801 q 233 832 276 832 q 146 816 186 832 q 75 775 106 800 l 117 971 q 184 1005 142 990 q 269 1019 226 1019 q 363 1004 321 1019 q 446 974 404 989 q 535 958 488 958 q 622 976 583 958 q 683 1015 661 993 l 642 819 q 584 786 624 801 q 500 771 544 771 m 63 0 l 150 417 l 58 417 l 138 658 l 538 658 l 399 0 l 63 0 z "},"j":{"ha":533,"x_min":-139,"x_max":606,"o":"m 197 713 l 246 944 l 606 944 l 557 713 l 197 713 m 56 -325 q -53 -315 -7 -325 q -139 -287 -99 -306 l -96 -79 q -15 -93 -58 -93 q 61 -37 47 -93 l 157 417 l 65 417 l 144 658 l 544 658 l 392 -60 q 338 -196 376 -136 q 232 -290 300 -256 q 56 -325 164 -325 z "},"ȷ":{"ha":524,"x_min":-147,"x_max":536,"o":"m 49 -325 q -61 -315 -15 -325 q -147 -287 -107 -306 l -104 -79 q -24 -93 -67 -93 q 54 -37 40 -93 l 149 417 l 58 417 l 136 658 l 536 658 l 383 -60 q 327 -196 368 -136 q 217 -290 286 -256 q 49 -325 149 -325 z "},"ĵ":{"ha":524,"x_min":-146,"x_max":690,"o":"m 10 725 l 315 1025 l 511 1025 l 690 725 l 467 725 l 392 874 l 260 725 l 10 725 m 50 -325 q -60 -315 -14 -325 q -146 -287 -106 -306 l -103 -79 q -22 -93 -65 -93 q 56 -37 42 -93 l 150 417 l 60 417 l 138 658 l 538 658 l 385 -60 q 328 -196 369 -136 q 219 -290 288 -256 q 50 -325 150 -325 z "},"k":{"ha":911,"x_min":-31,"x_max":943,"o":"m -31 0 l 168 936 l 504 936 l 417 526 l 565 658 l 943 658 l 624 374 l 818 0 l 463 0 l 378 199 l 340 164 l 306 0 l -31 0 z "},"ķ":{"ha":918,"x_min":-31,"x_max":943,"o":"m -31 0 l 168 936 l 504 936 l 417 526 l 565 658 l 943 658 l 624 374 l 818 0 l 463 0 l 378 199 l 340 164 l 306 0 l -31 0 m 103 -397 l 226 -51 l 475 -51 l 311 -397 l 103 -397 z "},"ĸ":{"ha":919,"x_min":-29,"x_max":944,"o":"m -29 0 l 110 658 l 446 658 l 415 513 l 567 658 l 944 658 l 622 360 l 819 0 l 464 0 l 376 185 l 338 150 l 307 0 l -29 0 z "},"l":{"ha":510,"x_min":8,"x_max":504,"o":"m 229 -14 q 8 151 8 -14 q 17 225 8 186 l 168 936 l 504 936 l 363 269 q 360 258 361 264 q 360 249 360 253 q 400 218 360 218 q 472 231 439 218 l 428 22 q 340 -5 381 4 q 229 -14 299 -14 z "},"ĺ":{"ha":510,"x_min":8,"x_max":699,"o":"m 240 1050 l 440 1364 l 699 1364 l 486 1050 l 240 1050 m 229 -14 q 8 151 8 -14 q 17 225 8 186 l 168 936 l 504 936 l 363 269 q 360 258 361 264 q 360 249 360 253 q 400 218 360 218 q 472 231 439 218 l 428 22 q 340 -5 381 4 q 229 -14 299 -14 z "},"ľ":{"ha":760,"x_min":-10,"x_max":879,"o":"m 229 -14 q 37 44 83 -14 q 17 225 -10 103 l 168 936 l 504 936 l 363 269 q 365 231 357 243 q 400 218 372 218 q 436 222 417 218 q 472 231 456 225 l 428 22 q 340 -5 381 4 q 229 -14 299 -14 m 506 590 l 631 936 l 879 936 l 715 590 l 506 590 z "},"ļ":{"ha":510,"x_min":-31,"x_max":504,"o":"m 229 -14 q 8 151 8 -14 q 17 225 8 186 l 168 936 l 504 936 l 363 269 q 360 258 361 264 q 360 249 360 253 q 400 218 360 218 q 472 231 439 218 l 428 22 q 340 -5 381 4 q 229 -14 299 -14 m -31 -397 l 93 -51 l 342 -51 l 178 -397 l -31 -397 z "},"ŀ":{"ha":656,"x_min":8,"x_max":708,"o":"m 229 -14 q 8 151 8 -14 q 17 225 8 186 l 168 936 l 504 936 l 363 269 q 360 258 361 264 q 360 249 360 253 q 400 218 360 218 q 472 231 439 218 l 428 22 q 340 -5 381 4 q 229 -14 299 -14 m 450 431 l 492 626 l 708 626 l 667 431 l 450 431 z "},"ḷ":{"ha":510,"x_min":8,"x_max":504,"o":"m 229 -14 q 8 151 8 -14 q 17 225 8 186 l 168 936 l 504 936 l 363 269 q 360 258 361 264 q 360 249 360 253 q 400 218 360 218 q 472 231 439 218 l 428 22 q 340 -5 381 4 q 229 -14 299 -14 m 25 -296 l 67 -100 l 283 -100 l 242 -296 l 25 -296 z "},"ḹ":{"ha":510,"x_min":8,"x_max":638,"o":"m 113 1014 l 154 1208 l 638 1208 l 596 1014 l 113 1014 m 229 -14 q 8 151 8 -14 q 17 225 8 186 l 168 936 l 504 936 l 363 269 q 360 258 361 264 q 360 249 360 253 q 400 218 360 218 q 472 231 439 218 l 428 22 q 340 -5 381 4 q 229 -14 299 -14 m 25 -296 l 67 -100 l 283 -100 l 242 -296 l 25 -296 z "},"ḻ":{"ha":510,"x_min":-112,"x_max":506,"o":"m 231 -14 q 10 151 10 -14 q 18 225 10 186 l 169 936 l 506 936 l 364 269 q 362 258 363 264 q 361 249 361 253 q 401 218 361 218 q 474 231 440 218 l 429 22 q 341 -5 382 4 q 231 -14 300 -14 m -112 -297 l -71 -103 l 413 -103 l 371 -297 l -112 -297 z "},"ł":{"ha":510,"x_min":-61,"x_max":553,"o":"m 229 -14 q 8 151 8 -14 q 17 225 8 186 l 35 314 l -61 275 l -11 510 l 85 549 l 168 936 l 504 936 l 453 696 l 553 736 l 503 501 l 403 461 l 363 269 q 360 258 361 264 q 360 249 360 253 q 400 218 360 218 q 472 231 439 218 l 428 22 q 340 -5 381 4 q 229 -14 299 -14 z "},"m":{"ha":1208,"x_min":-29,"x_max":1185,"o":"m -29 0 l 110 658 l 421 658 l 419 618 q 517 656 464 640 q 633 672 569 672 q 769 611 736 672 q 877 656 821 639 q 1006 672 933 672 q 1140 628 1094 672 q 1185 503 1185 585 q 1176 424 1185 468 l 1088 0 l 758 0 l 839 383 q 841 394 840 389 q 842 401 842 399 q 810 425 842 425 q 767 407 786 425 l 681 0 l 371 0 l 453 392 q 454 406 454 397 q 431 425 454 425 q 378 400 403 425 l 293 0 l -29 0 z "},"ṃ":{"ha":1208,"x_min":-29,"x_max":1185,"o":"m -29 0 l 110 658 l 421 658 l 419 618 q 517 656 464 640 q 633 672 569 672 q 769 611 736 672 q 877 656 821 639 q 1006 672 933 672 q 1140 628 1094 672 q 1185 503 1185 585 q 1176 424 1185 468 l 1088 0 l 758 0 l 839 383 q 841 394 840 389 q 842 401 842 399 q 810 425 842 425 q 767 407 786 425 l 681 0 l 371 0 l 453 392 q 454 406 454 397 q 431 425 454 425 q 378 400 403 425 l 293 0 l -29 0 m 371 -296 l 413 -100 l 629 -100 l 588 -296 l 371 -296 z "},"n":{"ha":871,"x_min":-29,"x_max":849,"o":"m -29 0 l 110 658 l 425 658 l 425 621 q 530 656 465 640 q 667 672 594 672 q 801 631 754 672 q 849 506 849 590 q 847 467 849 488 q 839 424 844 447 l 750 0 l 414 0 l 494 381 q 496 394 496 386 q 458 425 496 425 q 424 417 444 425 q 390 397 403 408 l 307 0 l -29 0 z "},"ń":{"ha":871,"x_min":-29,"x_max":849,"o":"m 331 725 l 531 1039 l 789 1039 l 576 725 l 331 725 m -29 0 l 110 658 l 425 658 l 425 621 q 530 656 465 640 q 667 672 594 672 q 801 631 754 672 q 849 506 849 590 q 847 467 849 488 q 839 424 844 447 l 750 0 l 414 0 l 494 381 q 496 394 496 386 q 458 425 496 425 q 424 417 444 425 q 390 397 403 408 l 307 0 l -29 0 z "},"ŉ":{"ha":875,"x_min":-192,"x_max":853,"o":"m -192 543 l -68 889 l 181 889 l 17 543 l -192 543 m -25 0 l 114 658 l 429 658 l 429 621 q 534 656 469 640 q 671 672 599 672 q 806 631 758 672 q 853 506 853 590 q 851 467 853 488 q 843 424 849 447 l 754 0 l 418 0 l 499 381 q 500 394 500 386 q 463 425 500 425 q 428 417 449 425 q 394 397 407 408 l 311 0 l -25 0 z "},"ň":{"ha":871,"x_min":-29,"x_max":885,"o":"m 383 725 l 204 1025 l 433 1025 l 504 876 l 642 1025 l 885 1025 l 578 725 l 383 725 m -29 0 l 110 658 l 425 658 l 425 621 q 530 656 465 640 q 667 672 594 672 q 801 631 754 672 q 849 506 849 590 q 847 467 849 488 q 839 424 844 447 l 750 0 l 414 0 l 494 381 q 496 394 496 386 q 458 425 496 425 q 424 417 444 425 q 390 397 403 408 l 307 0 l -29 0 z "},"ņ":{"ha":871,"x_min":-29,"x_max":849,"o":"m -29 0 l 110 658 l 425 658 l 425 621 q 530 656 465 640 q 667 672 594 672 q 801 631 754 672 q 849 506 849 590 q 847 467 849 488 q 839 424 844 447 l 750 0 l 414 0 l 494 381 q 496 394 496 386 q 458 425 496 425 q 424 417 444 425 q 390 397 403 408 l 307 0 l -29 0 m 118 -397 l 242 -51 l 490 -51 l 326 -397 l 118 -397 z "},"ṅ":{"ha":871,"x_min":-29,"x_max":849,"o":"m 401 767 l 442 963 l 658 963 l 617 767 l 401 767 m -29 0 l 110 658 l 425 658 l 425 621 q 530 656 465 640 q 667 672 594 672 q 801 631 754 672 q 849 506 849 590 q 847 467 849 488 q 839 424 844 447 l 750 0 l 414 0 l 494 381 q 496 394 496 386 q 458 425 496 425 q 424 417 444 425 q 390 397 403 408 l 307 0 l -29 0 z "},"ṇ":{"ha":871,"x_min":-29,"x_max":849,"o":"m -29 0 l 110 658 l 425 658 l 425 621 q 530 656 465 640 q 667 672 594 672 q 801 631 754 672 q 849 506 849 590 q 847 467 849 488 q 839 424 844 447 l 750 0 l 414 0 l 494 381 q 496 394 496 386 q 458 425 496 425 q 424 417 444 425 q 390 397 403 408 l 307 0 l -29 0 m 188 -296 l 229 -100 l 446 -100 l 404 -296 l 188 -296 z "},"ŋ":{"ha":869,"x_min":-29,"x_max":846,"o":"m 400 -325 q 290 -315 336 -325 q 204 -287 244 -306 l 247 -79 q 328 -93 285 -93 q 406 -37 392 -93 l 494 381 q 496 394 496 386 q 458 425 496 425 q 424 417 444 425 q 390 397 403 408 l 307 0 l -29 0 l 110 658 l 425 658 l 425 621 q 530 656 465 640 q 667 672 594 672 q 800 622 754 672 q 846 492 846 572 q 844 459 846 476 q 839 424 843 442 l 736 -60 q 683 -196 721 -136 q 576 -290 644 -256 q 400 -325 507 -325 z "},"ṉ":{"ha":871,"x_min":-29,"x_max":849,"o":"m -29 0 l 110 658 l 425 658 l 425 621 q 530 656 465 640 q 667 672 594 672 q 801 631 754 672 q 849 506 849 590 q 847 467 849 488 q 839 424 844 447 l 750 0 l 414 0 l 494 381 q 496 394 496 386 q 458 425 496 425 q 424 417 444 425 q 390 397 403 408 l 307 0 l -29 0 m 61 -289 l 103 -94 l 586 -94 l 544 -289 l 61 -289 z "},"ñ":{"ha":871,"x_min":-29,"x_max":849,"o":"m 656 732 q 560 747 606 732 q 474 778 515 763 q 389 793 432 793 q 301 777 342 793 q 231 736 261 761 l 272 932 q 340 966 297 951 q 425 981 382 981 q 518 965 476 981 q 601 935 560 950 q 690 919 643 919 q 778 937 739 919 q 839 976 817 954 l 797 781 q 740 747 779 763 q 656 732 700 732 m -29 0 l 110 658 l 425 658 l 425 621 q 530 656 465 640 q 667 672 594 672 q 801 631 754 672 q 849 506 849 590 q 847 467 849 488 q 839 424 844 447 l 750 0 l 414 0 l 494 381 q 496 394 496 386 q 458 425 496 425 q 424 417 444 425 q 390 397 403 408 l 307 0 l -29 0 z "},"o":{"ha":871,"x_min":1,"x_max":850,"o":"m 351 -14 q 93 51 185 -14 q 1 242 1 115 q 3 283 1 261 q 11 329 6 306 q 165 586 47 500 q 497 672 283 672 q 758 608 667 672 q 850 417 850 544 q 848 375 850 397 q 840 329 846 353 q 688 72 804 158 q 351 -14 571 -14 m 403 226 q 462 249 439 226 q 497 329 485 271 q 501 356 500 344 q 503 376 503 367 q 489 420 503 408 q 447 432 475 432 q 390 410 413 432 q 354 329 367 388 q 349 281 349 303 q 363 238 349 250 q 403 226 376 226 z "},"ó":{"ha":871,"x_min":1,"x_max":850,"o":"m 357 725 l 557 1039 l 815 1039 l 603 725 l 357 725 m 351 -14 q 93 51 185 -14 q 1 242 1 115 q 3 283 1 261 q 11 329 6 306 q 165 586 47 500 q 497 672 283 672 q 758 608 667 672 q 850 417 850 544 q 848 375 850 397 q 840 329 846 353 q 688 72 804 158 q 351 -14 571 -14 m 403 226 q 462 249 439 226 q 497 329 485 271 q 501 356 500 344 q 503 376 503 367 q 489 420 503 408 q 447 432 475 432 q 390 410 413 432 q 354 329 367 388 q 349 281 349 303 q 363 238 349 250 q 403 226 376 226 z "},"ŏ":{"ha":871,"x_min":1,"x_max":881,"o":"m 508 725 q 326 781 393 725 q 260 944 260 838 q 262 986 260 964 q 269 1031 264 1008 l 474 1031 q 469 1008 471 1019 q 468 985 468 996 q 483 931 468 953 q 538 908 499 908 q 618 946 590 908 q 656 1031 646 983 l 881 1031 q 749 803 849 882 q 508 725 649 725 m 351 -14 q 93 51 185 -14 q 1 242 1 115 q 3 283 1 261 q 11 329 6 306 q 165 586 47 500 q 497 672 283 672 q 758 608 667 672 q 850 417 850 544 q 848 375 850 397 q 840 329 846 353 q 688 72 804 158 q 351 -14 571 -14 m 403 226 q 462 249 439 226 q 497 329 485 271 q 501 356 500 344 q 503 376 503 367 q 489 420 503 408 q 447 432 475 432 q 390 410 413 432 q 354 329 367 388 q 349 281 349 303 q 363 238 349 250 q 403 226 376 226 z "},"ǒ":{"ha":871,"x_min":1,"x_max":914,"o":"m 413 725 l 233 1025 l 463 1025 l 533 876 l 671 1025 l 914 1025 l 607 725 l 413 725 m 351 -14 q 93 51 185 -14 q 1 242 1 115 q 3 283 1 261 q 11 329 6 306 q 165 586 47 500 q 497 672 283 672 q 758 608 667 672 q 850 417 850 544 q 848 375 850 397 q 840 329 846 353 q 688 72 804 158 q 351 -14 571 -14 m 403 226 q 462 249 439 226 q 497 329 485 271 q 501 356 500 344 q 503 376 503 367 q 489 420 503 408 q 447 432 475 432 q 390 410 413 432 q 354 329 367 388 q 349 281 349 303 q 363 238 349 250 q 403 226 376 226 z "},"ô":{"ha":871,"x_min":1,"x_max":850,"o":"m 169 725 l 475 1025 l 671 1025 l 850 725 l 626 725 l 551 874 l 419 725 l 169 725 m 351 -14 q 93 51 185 -14 q 1 242 1 115 q 3 283 1 261 q 11 329 6 306 q 165 586 47 500 q 497 672 283 672 q 758 608 667 672 q 850 417 850 544 q 848 375 850 397 q 840 329 846 353 q 688 72 804 158 q 351 -14 571 -14 m 403 226 q 462 249 439 226 q 497 329 485 271 q 501 356 500 344 q 503 376 503 367 q 489 420 503 408 q 447 432 475 432 q 390 410 413 432 q 354 329 367 388 q 349 281 349 303 q 363 238 349 250 q 403 226 376 226 z "},"ố":{"ha":869,"x_min":1,"x_max":1138,"o":"m 739 908 l 893 1147 l 1138 1147 l 971 908 l 739 908 m 160 725 l 429 958 l 672 958 l 840 725 l 589 725 l 533 831 l 438 725 l 160 725 m 351 -14 q 93 51 185 -14 q 1 242 1 115 q 3 283 1 261 q 11 329 6 306 q 165 586 47 500 q 497 672 283 672 q 758 608 667 672 q 850 417 850 544 q 848 375 850 397 q 840 329 846 353 q 688 72 804 158 q 351 -14 571 -14 m 403 226 q 462 249 439 226 q 497 329 485 271 q 501 356 500 344 q 503 376 503 367 q 489 420 503 408 q 447 432 475 432 q 390 410 413 432 q 354 329 367 388 q 349 281 349 303 q 363 238 349 250 q 403 226 376 226 z "},"ộ":{"ha":871,"x_min":1,"x_max":850,"o":"m 169 725 l 475 1025 l 671 1025 l 850 725 l 626 725 l 551 874 l 419 725 l 169 725 m 351 -14 q 93 51 185 -14 q 1 242 1 115 q 3 283 1 261 q 11 329 6 306 q 165 586 47 500 q 497 672 283 672 q 758 608 667 672 q 850 417 850 544 q 848 375 850 397 q 840 329 846 353 q 688 72 804 158 q 351 -14 571 -14 m 403 226 q 462 249 439 226 q 497 329 485 271 q 501 356 500 344 q 503 376 503 367 q 489 420 503 408 q 447 432 475 432 q 390 410 413 432 q 354 329 367 388 q 349 281 349 303 q 363 238 349 250 q 403 226 376 226 m 186 -296 l 228 -100 l 444 -100 l 403 -296 l 186 -296 z "},"ồ":{"ha":871,"x_min":1,"x_max":854,"o":"m 121 908 l 57 1147 l 301 1147 l 354 908 l 121 908 m 174 725 l 443 958 l 686 958 l 854 725 l 597 725 l 546 831 l 446 725 l 174 725 m 351 -14 q 93 51 185 -14 q 1 242 1 115 q 3 283 1 261 q 11 329 6 306 q 165 586 47 500 q 497 672 283 672 q 758 608 667 672 q 850 417 850 544 q 848 375 850 397 q 840 329 846 353 q 688 72 804 158 q 351 -14 571 -14 m 403 226 q 462 249 439 226 q 497 329 485 271 q 501 356 500 344 q 503 376 503 367 q 489 420 503 408 q 447 432 475 432 q 390 410 413 432 q 354 329 367 388 q 349 281 349 303 q 363 238 349 250 q 403 226 376 226 z "},"ổ":{"ha":869,"x_min":1,"x_max":1108,"o":"m 756 876 l 779 988 q 856 1000 838 990 q 874 1024 874 1010 q 831 1040 874 1040 q 796 1036 814 1040 q 763 1026 778 1032 l 790 1154 q 860 1166 818 1161 q 953 1171 901 1171 q 1069 1140 1031 1171 q 1108 1065 1108 1110 q 1108 1054 1108 1060 q 1106 1043 1107 1049 q 1065 963 1096 996 q 982 919 1035 929 l 972 876 l 756 876 m 168 725 l 438 958 l 681 958 l 849 725 l 597 725 l 542 831 l 446 725 l 168 725 m 351 -14 q 93 51 185 -14 q 1 242 1 115 q 3 283 1 261 q 11 329 6 306 q 165 586 47 500 q 497 672 283 672 q 758 608 667 672 q 850 417 850 544 q 848 375 850 397 q 840 329 846 353 q 688 72 804 158 q 351 -14 571 -14 m 403 226 q 462 249 439 226 q 497 329 485 271 q 501 356 500 344 q 503 376 503 367 q 489 420 503 408 q 447 432 475 432 q 390 410 413 432 q 354 329 367 388 q 349 281 349 303 q 363 238 349 250 q 403 226 376 226 z "},"ỗ":{"ha":871,"x_min":1,"x_max":881,"o":"m 706 979 q 616 994 658 979 q 533 1023 574 1008 q 451 1038 493 1038 q 367 1022 406 1038 q 301 983 329 1007 l 340 1171 q 403 1203 364 1189 q 485 1217 443 1217 q 574 1202 533 1217 q 655 1173 615 1188 q 739 1158 694 1158 q 822 1174 785 1158 q 881 1213 860 1190 l 840 1025 q 785 993 824 1007 q 706 979 747 979 m 168 725 l 438 958 l 681 958 l 849 725 l 597 725 l 542 831 l 446 725 l 168 725 m 351 -14 q 93 51 185 -14 q 1 242 1 115 q 3 283 1 261 q 11 329 6 306 q 165 586 47 500 q 497 672 283 672 q 758 608 667 672 q 850 417 850 544 q 848 375 850 397 q 840 329 846 353 q 688 72 804 158 q 351 -14 571 -14 m 403 226 q 462 249 439 226 q 497 329 485 271 q 501 356 500 344 q 503 376 503 367 q 489 420 503 408 q 447 432 475 432 q 390 410 413 432 q 354 329 367 388 q 349 281 349 303 q 363 238 349 250 q 403 226 376 226 z "},"ö":{"ha":871,"x_min":1,"x_max":850,"o":"m 247 767 l 289 963 l 504 963 l 463 767 l 247 767 m 572 767 l 614 963 l 831 963 l 789 767 l 572 767 m 351 -14 q 93 51 185 -14 q 1 242 1 115 q 3 283 1 261 q 11 329 6 306 q 165 586 47 500 q 497 672 283 672 q 758 608 667 672 q 850 417 850 544 q 848 375 850 397 q 840 329 846 353 q 688 72 804 158 q 351 -14 571 -14 m 403 226 q 462 249 439 226 q 497 329 485 271 q 501 356 500 344 q 503 376 503 367 q 489 420 503 408 q 447 432 475 432 q 390 410 413 432 q 354 329 367 388 q 349 281 349 303 q 363 238 349 250 q 403 226 376 226 z "},"ọ":{"ha":871,"x_min":1,"x_max":850,"o":"m 351 -14 q 93 51 185 -14 q 1 242 1 115 q 3 283 1 261 q 11 329 6 306 q 165 586 47 500 q 497 672 283 672 q 758 608 667 672 q 850 417 850 544 q 848 375 850 397 q 840 329 846 353 q 688 72 804 158 q 351 -14 571 -14 m 403 226 q 462 249 439 226 q 497 329 485 271 q 501 356 500 344 q 503 376 503 367 q 489 420 503 408 q 447 432 475 432 q 390 410 413 432 q 354 329 367 388 q 349 281 349 303 q 363 238 349 250 q 403 226 376 226 m 186 -296 l 228 -100 l 444 -100 l 403 -296 l 186 -296 z "},"ò":{"ha":871,"x_min":1,"x_max":850,"o":"m 382 725 l 303 1039 l 561 1039 l 628 725 l 382 725 m 351 -14 q 93 51 185 -14 q 1 242 1 115 q 3 283 1 261 q 11 329 6 306 q 165 586 47 500 q 497 672 283 672 q 758 608 667 672 q 850 417 850 544 q 848 375 850 397 q 840 329 846 353 q 688 72 804 158 q 351 -14 571 -14 m 403 226 q 462 249 439 226 q 497 329 485 271 q 501 356 500 344 q 503 376 503 367 q 489 420 503 408 q 447 432 475 432 q 390 410 413 432 q 354 329 367 388 q 349 281 349 303 q 363 238 349 250 q 403 226 376 226 z "},"ỏ":{"ha":871,"x_min":1,"x_max":850,"o":"m 390 725 l 414 838 q 511 856 483 842 q 543 892 539 871 q 482 931 553 931 q 401 917 440 931 l 429 1047 q 510 1063 465 1057 q 614 1068 554 1068 q 750 1034 704 1068 q 796 947 796 1000 q 795 933 796 940 q 793 919 794 926 q 746 826 779 857 q 649 775 713 794 l 638 725 l 390 725 m 351 -14 q 93 51 185 -14 q 1 242 1 115 q 3 283 1 261 q 11 329 6 306 q 165 586 47 500 q 497 672 283 672 q 758 608 667 672 q 850 417 850 544 q 848 375 850 397 q 840 329 846 353 q 688 72 804 158 q 351 -14 571 -14 m 403 226 q 462 249 439 226 q 497 329 485 271 q 501 356 500 344 q 503 376 503 367 q 489 420 503 408 q 447 432 475 432 q 390 410 413 432 q 354 329 367 388 q 349 281 349 303 q 363 238 349 250 q 403 226 376 226 z "},"ơ":{"ha":1064,"x_min":1,"x_max":1150,"o":"m 351 -14 q 93 51 185 -14 q 1 242 1 115 q 3 283 1 261 q 11 329 6 306 q 165 586 47 500 q 497 672 283 672 q 756 610 664 672 q 847 622 815 610 q 892 664 878 635 q 915 744 907 693 l 1150 744 q 1049 510 1118 590 q 850 406 981 429 q 847 368 849 388 q 840 329 844 349 q 688 72 804 158 q 351 -14 571 -14 m 403 226 q 462 249 439 226 q 497 329 485 271 q 501 356 500 344 q 503 376 503 367 q 489 420 503 408 q 447 432 475 432 q 390 410 413 432 q 354 329 367 388 q 349 281 349 303 q 363 238 349 250 q 403 226 376 226 z "},"ớ":{"ha":1064,"x_min":1,"x_max":1150,"o":"m 385 725 l 585 1039 l 843 1039 l 631 725 l 385 725 m 351 -14 q 93 51 185 -14 q 1 242 1 115 q 3 283 1 261 q 11 329 6 306 q 165 586 47 500 q 497 672 283 672 q 756 610 664 672 q 847 622 815 610 q 892 664 878 635 q 915 744 907 693 l 1150 744 q 1049 510 1118 590 q 850 406 981 429 q 847 368 849 388 q 840 329 844 349 q 688 72 804 158 q 351 -14 571 -14 m 403 226 q 462 249 439 226 q 497 329 485 271 q 501 356 500 344 q 503 376 503 367 q 489 420 503 408 q 447 432 475 432 q 390 410 413 432 q 354 329 367 388 q 349 281 349 303 q 363 238 349 250 q 403 226 376 226 z "},"ợ":{"ha":1064,"x_min":1,"x_max":1150,"o":"m 351 -14 q 93 51 185 -14 q 1 242 1 115 q 3 283 1 261 q 11 329 6 306 q 165 586 47 500 q 497 672 283 672 q 756 610 664 672 q 847 622 815 610 q 892 664 878 635 q 915 744 907 693 l 1150 744 q 1049 510 1118 590 q 850 406 981 429 q 847 368 849 388 q 840 329 844 349 q 688 72 804 158 q 351 -14 571 -14 m 403 226 q 462 249 439 226 q 497 329 485 271 q 501 356 500 344 q 503 376 503 367 q 489 420 503 408 q 447 432 475 432 q 390 410 413 432 q 354 329 367 388 q 349 281 349 303 q 363 238 349 250 q 403 226 376 226 m 186 -296 l 228 -100 l 444 -100 l 403 -296 l 186 -296 z "},"ờ":{"ha":1064,"x_min":1,"x_max":1150,"o":"m 399 725 l 319 1039 l 578 1039 l 644 725 l 399 725 m 351 -14 q 93 51 185 -14 q 1 242 1 115 q 3 283 1 261 q 11 329 6 306 q 165 586 47 500 q 497 672 283 672 q 756 610 664 672 q 847 622 815 610 q 892 664 878 635 q 915 744 907 693 l 1150 744 q 1049 510 1118 590 q 850 406 981 429 q 847 368 849 388 q 840 329 844 349 q 688 72 804 158 q 351 -14 571 -14 m 403 226 q 462 249 439 226 q 497 329 485 271 q 501 356 500 344 q 503 376 503 367 q 489 420 503 408 q 447 432 475 432 q 390 410 413 432 q 354 329 367 388 q 349 281 349 303 q 363 238 349 250 q 403 226 376 226 z "},"ở":{"ha":1064,"x_min":1,"x_max":1150,"o":"m 382 725 l 406 838 q 503 856 475 842 q 535 892 531 871 q 474 931 544 931 q 393 917 432 931 l 421 1047 q 501 1063 457 1057 q 606 1068 546 1068 q 742 1034 696 1068 q 788 947 788 1000 q 787 933 788 940 q 785 919 786 926 q 738 826 771 857 q 640 775 704 794 l 629 725 l 382 725 m 351 -14 q 93 51 185 -14 q 1 242 1 115 q 3 283 1 261 q 11 329 6 306 q 165 586 47 500 q 497 672 283 672 q 756 610 664 672 q 847 622 815 610 q 892 664 878 635 q 915 744 907 693 l 1150 744 q 1049 510 1118 590 q 850 406 981 429 q 847 368 849 388 q 840 329 844 349 q 688 72 804 158 q 351 -14 571 -14 m 403 226 q 462 249 439 226 q 497 329 485 271 q 501 356 500 344 q 503 376 503 367 q 489 420 503 408 q 447 432 475 432 q 390 410 413 432 q 354 329 367 388 q 349 281 349 303 q 363 238 349 250 q 403 226 376 226 z "},"ỡ":{"ha":1064,"x_min":1,"x_max":1150,"o":"m 667 725 q 572 740 617 725 q 485 771 526 756 q 400 786 443 786 q 313 770 353 786 q 242 729 272 754 l 283 925 q 351 959 308 944 q 436 974 393 974 q 529 958 488 974 q 613 928 571 943 q 701 913 654 913 q 789 930 750 913 q 850 969 828 947 l 808 774 q 751 740 790 756 q 667 725 711 725 m 351 -14 q 93 51 185 -14 q 1 242 1 115 q 3 283 1 261 q 11 329 6 306 q 165 586 47 500 q 497 672 283 672 q 756 610 664 672 q 847 622 815 610 q 892 664 878 635 q 915 744 907 693 l 1150 744 q 1049 510 1118 590 q 850 406 981 429 q 847 368 849 388 q 840 329 844 349 q 688 72 804 158 q 351 -14 571 -14 m 403 226 q 462 249 439 226 q 497 329 485 271 q 501 356 500 344 q 503 376 503 367 q 489 420 503 408 q 447 432 475 432 q 390 410 413 432 q 354 329 367 388 q 349 281 349 303 q 363 238 349 250 q 403 226 376 226 z "},"ő":{"ha":869,"x_min":1,"x_max":1004,"o":"m 153 725 l 344 1007 l 629 1007 l 413 725 l 153 725 m 526 725 l 718 1007 l 1004 1007 l 786 725 l 526 725 m 351 -14 q 93 51 185 -14 q 1 242 1 115 q 3 283 1 261 q 11 329 6 306 q 165 586 47 500 q 497 672 283 672 q 758 608 667 672 q 850 417 850 544 q 848 375 850 397 q 840 329 846 353 q 688 72 804 158 q 351 -14 571 -14 m 403 226 q 462 249 439 226 q 497 329 485 271 q 501 356 500 344 q 503 376 503 367 q 489 420 503 408 q 447 432 475 432 q 390 410 413 432 q 354 329 367 388 q 349 281 349 303 q 363 238 349 250 q 403 226 376 226 z "},"ō":{"ha":871,"x_min":1,"x_max":850,"o":"m 265 781 l 307 975 l 790 975 l 749 781 l 265 781 m 351 -14 q 93 51 185 -14 q 1 242 1 115 q 3 283 1 261 q 11 329 6 306 q 165 586 47 500 q 497 672 283 672 q 758 608 667 672 q 850 417 850 544 q 848 375 850 397 q 840 329 846 353 q 688 72 804 158 q 351 -14 571 -14 m 403 226 q 462 249 439 226 q 497 329 485 271 q 501 356 500 344 q 503 376 503 367 q 489 420 503 408 q 447 432 475 432 q 390 410 413 432 q 354 329 367 388 q 349 281 349 303 q 363 238 349 250 q 403 226 376 226 z "},"ø":{"ha":871,"x_min":1,"x_max":850,"o":"m 121 -75 l 174 10 q 46 95 90 38 q 1 240 1 153 q 3 283 1 261 q 11 329 6 306 q 165 586 47 500 q 497 672 283 672 q 540 671 519 672 q 581 667 561 669 l 622 733 l 729 733 l 676 647 q 806 563 761 621 q 850 417 850 504 q 848 374 850 396 q 840 329 846 353 q 688 72 804 158 q 351 -14 571 -14 q 308 -12 329 -14 q 268 -8 288 -10 l 228 -75 l 121 -75 m 321 249 l 453 460 q 374 431 408 460 q 325 329 340 403 q 319 301 321 314 q 318 276 318 288 q 319 262 318 268 q 321 249 319 256 m 397 199 q 477 227 443 199 q 526 329 511 256 q 531 358 529 344 q 532 382 532 371 q 532 398 532 390 q 529 411 532 406 l 397 199 z "},"ǿ":{"ha":871,"x_min":1,"x_max":850,"o":"m 261 725 l 461 1039 l 719 1039 l 507 725 l 261 725 m 121 -75 l 174 10 q 46 95 90 38 q 1 240 1 153 q 3 283 1 261 q 11 329 6 306 q 165 586 47 500 q 497 672 283 672 q 540 671 519 672 q 581 667 561 669 l 622 733 l 729 733 l 676 647 q 806 563 761 621 q 850 417 850 504 q 848 374 850 396 q 840 329 846 353 q 688 72 804 158 q 351 -14 571 -14 q 308 -12 329 -14 q 268 -8 288 -10 l 228 -75 l 121 -75 m 321 249 l 453 460 q 374 431 408 460 q 325 329 340 403 q 319 301 321 314 q 318 276 318 288 q 319 262 318 268 q 321 249 319 256 m 397 199 q 477 227 443 199 q 526 329 511 256 q 531 358 529 344 q 532 382 532 371 q 532 398 532 390 q 529 411 532 406 l 397 199 z "},"õ":{"ha":871,"x_min":1,"x_max":850,"o":"m 665 760 q 570 775 615 760 q 483 806 525 790 q 399 821 442 821 q 311 805 351 821 q 240 764 271 789 l 282 960 q 349 994 307 979 q 435 1008 392 1008 q 528 993 486 1008 q 611 963 569 978 q 700 947 653 947 q 788 965 749 947 q 849 1004 826 982 l 807 808 q 749 775 789 790 q 665 760 710 760 m 351 -14 q 93 51 185 -14 q 1 242 1 115 q 3 283 1 261 q 11 329 6 306 q 165 586 47 500 q 497 672 283 672 q 758 608 667 672 q 850 417 850 544 q 848 375 850 397 q 840 329 846 353 q 688 72 804 158 q 351 -14 571 -14 m 403 226 q 462 249 439 226 q 497 329 485 271 q 501 356 500 344 q 503 376 503 367 q 489 420 503 408 q 447 432 475 432 q 390 410 413 432 q 354 329 367 388 q 349 281 349 303 q 363 238 349 250 q 403 226 376 226 z "},"œ":{"ha":1324,"x_min":1,"x_max":1306,"o":"m 351 -14 q 93 51 185 -14 q 1 242 1 115 q 3 283 1 261 q 11 329 6 306 q 165 586 47 500 q 497 672 283 672 q 742 618 653 672 q 853 658 790 644 q 994 672 915 672 q 1159 640 1089 672 q 1267 549 1229 607 q 1306 415 1306 492 q 1303 384 1306 400 q 1299 351 1301 368 l 1275 239 l 836 239 q 890 198 851 213 q 1018 183 929 183 q 1141 194 1081 183 q 1238 217 1201 204 l 1199 36 q 885 -14 1085 -14 q 756 2 817 -14 q 650 49 696 18 q 351 -14 536 -14 m 872 407 l 1024 407 l 1026 419 q 1028 432 1028 424 q 1014 461 1028 449 q 964 474 1000 474 q 901 456 922 474 q 872 407 879 438 m 403 226 q 462 249 439 226 q 497 329 485 271 q 501 356 500 344 q 503 376 503 367 q 489 420 503 408 q 447 432 475 432 q 390 410 413 432 q 354 329 367 388 q 349 281 349 303 q 363 238 349 250 q 403 226 376 226 z "},"p":{"ha":874,"x_min":-87,"x_max":853,"o":"m -87 -278 l 110 658 l 401 658 l 408 615 q 497 657 450 642 q 604 672 544 672 q 788 610 724 672 q 853 428 853 549 q 851 381 853 406 q 843 328 849 356 q 712 69 813 151 q 446 -14 611 -14 q 371 -6 410 -14 q 308 11 332 1 l 247 -278 l -87 -278 m 413 226 q 465 250 443 226 q 501 333 488 274 q 507 381 507 357 q 494 422 507 411 q 457 432 481 432 q 424 427 439 432 q 393 411 410 422 l 358 247 q 413 226 379 226 z "},"þ":{"ha":874,"x_min":-92,"x_max":853,"o":"m -92 -300 l 176 972 l 513 972 l 444 647 q 520 665 472 658 q 604 672 568 672 q 790 607 728 672 q 853 426 853 542 q 851 379 853 404 q 843 328 849 354 q 711 69 811 151 q 446 -14 611 -14 q 371 -6 410 -14 q 308 11 332 1 l 243 -300 l -92 -300 m 413 226 q 465 250 443 226 q 501 333 488 274 q 507 381 507 357 q 494 422 507 411 q 457 432 481 432 q 424 427 439 432 q 393 411 410 422 l 358 247 q 413 226 379 226 z "},"q":{"ha":856,"x_min":0,"x_max":883,"o":"m 593 -336 q 434 -287 488 -336 q 381 -157 381 -237 q 383 -127 381 -142 q 388 -97 385 -112 l 410 11 q 340 -6 382 1 q 261 -14 297 -14 q 69 45 139 -14 q 0 226 0 104 q 3 275 0 250 q 11 328 6 300 q 151 589 46 506 q 399 672 256 672 q 499 657 460 672 q 568 615 538 642 l 592 658 l 883 658 l 732 -53 q 730 -64 731 -58 q 729 -74 729 -69 q 764 -104 729 -104 q 835 -92 801 -104 l 792 -300 q 703 -327 744 -318 q 593 -336 663 -336 m 397 226 q 460 247 432 226 l 494 411 q 475 427 485 422 q 446 432 465 432 q 392 413 415 432 q 356 333 368 393 q 351 306 353 318 q 349 282 349 293 q 362 239 349 251 q 397 226 375 226 z "},"r":{"ha":618,"x_min":-29,"x_max":667,"o":"m -29 0 l 110 658 l 439 658 l 439 621 q 541 656 479 640 q 667 672 603 672 l 615 425 q 539 422 581 425 q 458 413 497 418 q 390 397 418 407 l 307 0 l -29 0 z "},"ŕ":{"ha":597,"x_min":-29,"x_max":667,"o":"m 160 725 l 360 1039 l 618 1039 l 406 725 l 160 725 m -29 0 l 110 658 l 439 658 l 439 621 q 541 656 479 640 q 667 672 603 672 l 615 425 q 539 422 581 425 q 458 413 497 418 q 390 397 418 407 l 307 0 l -29 0 z "},"ř":{"ha":596,"x_min":-31,"x_max":715,"o":"m 214 725 l 35 1025 l 264 1025 l 335 876 l 472 1025 l 715 1025 l 408 725 l 214 725 m -31 0 l 108 658 l 438 658 l 438 621 q 540 656 478 640 q 665 672 601 672 l 614 425 q 538 422 579 425 q 456 413 496 418 q 389 397 417 407 l 306 0 l -31 0 z "},"ŗ":{"ha":594,"x_min":-129,"x_max":664,"o":"m -32 0 l 107 658 l 436 658 l 436 621 q 538 656 476 640 q 664 672 600 672 l 613 425 q 536 422 578 425 q 455 413 494 418 q 388 397 415 407 l 304 0 l -32 0 m -129 -397 l -6 -51 l 243 -51 l 79 -397 l -129 -397 z "},"ṛ":{"ha":597,"x_min":-33,"x_max":667,"o":"m -29 0 l 110 658 l 439 658 l 439 621 q 541 656 479 640 q 667 672 603 672 l 615 425 q 539 422 581 425 q 458 413 497 418 q 390 397 418 407 l 307 0 l -29 0 m -33 -296 l 8 -100 l 225 -100 l 183 -296 l -33 -296 z "},"ṝ":{"ha":597,"x_min":-33,"x_max":667,"o":"m 133 767 l 175 961 l 658 961 l 617 767 l 133 767 m -29 0 l 110 658 l 439 658 l 439 621 q 541 656 479 640 q 667 672 603 672 l 615 425 q 539 422 581 425 q 458 413 497 418 q 390 397 418 407 l 307 0 l -29 0 m -33 -296 l 8 -100 l 225 -100 l 183 -296 l -33 -296 z "},"ṟ":{"ha":596,"x_min":-165,"x_max":665,"o":"m -31 0 l 108 658 l 438 658 l 438 621 q 540 656 478 640 q 665 672 601 672 l 614 425 q 538 422 579 425 q 456 413 496 418 q 389 397 417 407 l 306 0 l -31 0 m -165 -289 l -124 -94 l 360 -94 l 318 -289 l -165 -289 z "},"s":{"ha":706,"x_min":-44,"x_max":704,"o":"m 250 -14 q 76 0 156 -14 q -44 33 -4 14 l 0 246 q 72 217 29 229 q 156 197 114 204 q 228 190 199 190 q 281 192 260 190 q 306 206 303 193 q 288 224 308 217 q 234 239 267 231 q 168 260 201 247 q 67 320 100 288 q 33 407 33 353 q 35 431 33 418 q 39 457 36 443 q 156 617 63 563 q 440 672 249 672 q 536 667 485 672 q 633 656 588 663 q 704 639 679 649 l 660 428 q 570 458 619 447 q 482 468 521 468 q 440 467 463 468 q 400 463 417 467 q 381 450 383 460 q 419 428 379 436 q 508 406 460 421 q 621 347 586 381 q 656 260 656 313 q 653 234 656 247 q 649 206 651 221 q 533 45 626 104 q 250 -14 439 -14 z "},"ś":{"ha":706,"x_min":-44,"x_max":731,"o":"m 272 725 l 472 1039 l 731 1039 l 518 725 l 272 725 m 250 -14 q 76 0 156 -14 q -44 33 -4 14 l 0 246 q 72 217 29 229 q 156 197 114 204 q 228 190 199 190 q 281 192 260 190 q 306 206 303 193 q 288 224 308 217 q 234 239 267 231 q 168 260 201 247 q 67 320 100 288 q 33 407 33 353 q 35 431 33 418 q 39 457 36 443 q 156 617 63 563 q 440 672 249 672 q 536 667 485 672 q 633 656 588 663 q 704 639 679 649 l 660 428 q 570 458 619 447 q 482 468 521 468 q 440 467 463 468 q 400 463 417 467 q 381 450 383 460 q 419 428 379 436 q 508 406 460 421 q 621 347 586 381 q 656 260 656 313 q 653 234 656 247 q 649 206 651 221 q 533 45 626 104 q 250 -14 439 -14 z "},"š":{"ha":713,"x_min":-29,"x_max":829,"o":"m 328 725 l 149 1025 l 378 1025 l 449 876 l 586 1025 l 829 1025 l 522 725 l 328 725 m 265 -14 q 91 0 171 -14 q -29 33 11 14 l 15 246 q 87 217 44 229 q 172 197 129 204 q 243 190 214 190 q 297 192 275 190 q 321 206 318 193 q 303 224 324 217 q 249 239 282 231 q 183 260 217 247 q 82 320 115 288 q 49 407 49 353 q 50 431 49 418 q 54 457 51 443 q 171 617 78 563 q 456 672 264 672 q 551 667 500 672 q 649 656 603 663 q 719 639 694 649 l 675 428 q 585 458 635 447 q 497 468 536 468 q 455 467 478 468 q 415 463 432 467 q 396 450 399 460 q 435 428 394 436 q 524 406 475 421 q 636 347 601 381 q 671 260 671 313 q 669 234 671 247 q 664 206 667 221 q 548 45 642 104 q 265 -14 454 -14 z "},"ş":{"ha":706,"x_min":-44,"x_max":704,"o":"m 157 -333 q 115 -332 140 -333 q 69 -328 90 -331 q 38 -322 47 -325 l 61 -215 q 139 -226 97 -226 q 242 -178 233 -226 q 235 -147 247 -156 q 199 -139 222 -139 l 96 -139 l 158 -10 q 38 7 92 -4 q -44 33 -15 18 l 0 246 q 72 217 29 229 q 156 197 114 204 q 228 190 199 190 q 281 192 260 190 q 306 206 303 193 q 288 224 308 217 q 234 239 267 231 q 168 260 201 247 q 67 320 100 288 q 33 407 33 353 q 35 431 33 418 q 39 457 36 443 q 156 617 63 563 q 440 672 249 672 q 536 667 485 672 q 633 656 588 663 q 704 639 679 649 l 660 428 q 570 458 619 447 q 482 468 521 468 q 440 467 463 468 q 400 463 417 467 q 381 450 383 460 q 419 428 379 436 q 508 406 460 421 q 621 347 586 381 q 656 260 656 313 q 653 234 656 247 q 649 206 651 221 q 552 58 629 115 q 325 -10 475 1 l 303 -51 q 395 -81 364 -51 q 426 -154 426 -110 q 426 -169 426 -161 q 424 -185 426 -178 q 342 -293 410 -253 q 157 -333 274 -333 z "},"ŝ":{"ha":703,"x_min":-47,"x_max":761,"o":"m 81 725 l 386 1025 l 582 1025 l 761 725 l 538 725 l 463 874 l 331 725 l 81 725 m 247 -14 q 73 0 153 -14 q -47 33 -7 14 l -3 246 q 69 217 26 229 q 153 197 111 204 q 225 190 196 190 q 278 192 257 190 q 303 206 300 193 q 285 224 306 217 q 231 239 264 231 q 165 260 199 247 q 64 320 97 288 q 31 407 31 353 q 32 431 31 418 q 36 457 33 443 q 153 617 60 563 q 438 672 246 672 q 533 667 482 672 q 631 656 585 663 q 701 639 676 649 l 657 428 q 567 458 617 447 q 479 468 518 468 q 437 467 460 468 q 397 463 414 467 q 378 450 381 460 q 417 428 376 436 q 506 406 457 421 q 618 347 583 381 q 653 260 653 313 q 651 234 653 247 q 646 206 649 221 q 530 45 624 104 q 247 -14 436 -14 z "},"ș":{"ha":706,"x_min":-44,"x_max":704,"o":"m 250 -14 q 76 0 156 -14 q -44 33 -4 14 l 0 246 q 72 217 29 229 q 156 197 114 204 q 228 190 199 190 q 281 192 260 190 q 306 206 303 193 q 288 224 308 217 q 234 239 267 231 q 168 260 201 247 q 67 320 100 288 q 33 407 33 353 q 35 431 33 418 q 39 457 36 443 q 156 617 63 563 q 440 672 249 672 q 536 667 485 672 q 633 656 588 663 q 704 639 679 649 l 660 428 q 570 458 619 447 q 482 468 521 468 q 440 467 463 468 q 400 463 417 467 q 381 450 383 460 q 419 428 379 436 q 508 406 460 421 q 621 347 586 381 q 656 260 656 313 q 653 234 656 247 q 649 206 651 221 q 533 45 626 104 q 250 -14 439 -14 m 24 -335 l 132 -51 l 410 -51 l 279 -335 l 24 -335 z "},"ṡ":{"ha":706,"x_min":-44,"x_max":704,"o":"m 301 767 l 342 963 l 558 963 l 517 767 l 301 767 m 250 -14 q 76 0 156 -14 q -44 33 -4 14 l 0 246 q 72 217 29 229 q 156 197 114 204 q 228 190 199 190 q 281 192 260 190 q 306 206 303 193 q 288 224 308 217 q 234 239 267 231 q 168 260 201 247 q 67 320 100 288 q 33 407 33 353 q 35 431 33 418 q 39 457 36 443 q 156 617 63 563 q 440 672 249 672 q 536 667 485 672 q 633 656 588 663 q 704 639 679 649 l 660 428 q 570 458 619 447 q 482 468 521 468 q 440 467 463 468 q 400 463 417 467 q 381 450 383 460 q 419 428 379 436 q 508 406 460 421 q 621 347 586 381 q 656 260 656 313 q 653 234 656 247 q 649 206 651 221 q 533 45 626 104 q 250 -14 439 -14 z "},"ṣ":{"ha":706,"x_min":-44,"x_max":704,"o":"m 250 -14 q 76 0 156 -14 q -44 33 -4 14 l 0 246 q 72 217 29 229 q 156 197 114 204 q 228 190 199 190 q 281 192 260 190 q 306 206 303 193 q 288 224 308 217 q 234 239 267 231 q 168 260 201 247 q 67 320 100 288 q 33 407 33 353 q 35 431 33 418 q 39 457 36 443 q 156 617 63 563 q 440 672 249 672 q 536 667 485 672 q 633 656 588 663 q 704 639 679 649 l 660 428 q 570 458 619 447 q 482 468 521 468 q 440 467 463 468 q 400 463 417 467 q 381 450 383 460 q 419 428 379 436 q 508 406 460 421 q 621 347 586 381 q 656 260 656 313 q 653 234 656 247 q 649 206 651 221 q 533 45 626 104 q 250 -14 439 -14 m 110 -296 l 151 -100 l 368 -100 l 326 -296 l 110 -296 z "},"ß":{"ha":913,"x_min":-37,"x_max":925,"o":"m 494 -14 q 394 -6 442 -14 q 322 17 346 3 l 368 231 q 408 222 383 225 q 450 218 432 218 q 506 238 488 218 q 529 288 524 257 q 531 296 531 292 q 531 303 531 300 q 468 343 531 343 l 393 343 l 438 551 l 496 551 q 601 624 585 551 q 603 638 603 629 q 521 689 603 689 q 438 661 465 689 q 404 597 411 633 l 278 0 l -37 0 l 94 622 q 249 887 133 801 q 564 972 364 972 q 772 935 693 972 q 888 837 851 897 q 925 706 925 776 q 923 674 925 690 q 918 642 921 657 q 872 528 904 575 q 794 453 839 481 q 853 403 833 432 q 874 322 874 375 q 869 271 874 300 q 758 60 849 133 q 494 -14 668 -14 z "},"t":{"ha":564,"x_min":10,"x_max":611,"o":"m 278 -14 q 106 40 165 -14 q 47 186 47 93 q 56 258 47 221 l 89 417 l 10 417 l 61 658 l 140 658 l 168 788 l 518 856 l 476 658 l 611 658 l 553 417 l 425 417 l 396 276 q 394 267 394 272 q 394 260 394 263 q 449 218 394 218 q 535 232 493 218 l 490 24 q 392 -4 443 6 q 278 -14 342 -14 z "},"ŧ":{"ha":550,"x_min":-32,"x_max":604,"o":"m 271 -14 q 93 36 147 -14 q 39 174 39 86 q 47 251 39 210 l -32 251 l 4 421 l 82 421 l 89 450 l 10 450 l 54 658 l 133 658 l 161 788 l 511 856 l 469 658 l 604 658 l 553 450 l 425 450 l 418 421 l 553 421 l 517 251 l 386 251 q 442 218 393 218 q 528 232 486 218 l 483 24 q 385 -4 436 6 q 271 -14 335 -14 z "},"ť":{"ha":611,"x_min":3,"x_max":961,"o":"m 589 775 l 713 1121 l 961 1121 l 797 775 l 589 775 m 271 -14 q 99 40 158 -14 q 40 186 40 93 q 49 258 40 221 l 82 417 l 3 417 l 54 658 l 133 658 l 161 788 l 511 856 l 469 658 l 604 658 l 546 417 l 418 417 l 389 276 q 388 267 388 272 q 388 260 388 263 q 442 218 388 218 q 528 232 486 218 l 483 24 q 385 -4 436 6 q 271 -14 335 -14 z "},"ţ":{"ha":550,"x_min":3,"x_max":604,"o":"m 186 -333 q 144 -332 169 -333 q 98 -328 119 -331 q 67 -322 76 -325 l 90 -215 q 168 -226 126 -226 q 271 -178 263 -226 q 264 -147 276 -156 q 228 -139 251 -139 l 125 -139 l 190 -4 q 78 62 117 13 q 40 186 40 111 q 49 258 40 219 l 82 417 l 3 417 l 54 658 l 133 658 l 161 788 l 511 856 l 469 658 l 604 658 l 546 417 l 418 417 l 389 276 q 388 267 388 272 q 388 260 388 263 q 442 218 388 218 q 528 232 486 218 l 483 24 q 422 3 453 11 q 356 -8 390 -4 l 332 -51 q 424 -81 393 -51 q 456 -154 456 -110 q 456 -169 456 -161 q 453 -185 456 -178 q 371 -293 439 -253 q 186 -333 303 -333 z "},"ț":{"ha":550,"x_min":3,"x_max":604,"o":"m 271 -14 q 99 40 158 -14 q 40 186 40 93 q 49 258 40 221 l 82 417 l 3 417 l 54 658 l 133 658 l 161 788 l 511 856 l 469 658 l 604 658 l 546 417 l 418 417 l 389 276 q 388 267 388 272 q 388 260 388 263 q 442 218 388 218 q 528 232 486 218 l 483 24 q 385 -4 436 6 q 271 -14 335 -14 m 13 -397 l 136 -51 l 385 -51 l 221 -397 l 13 -397 z "},"ẗ":{"ha":560,"x_min":13,"x_max":688,"o":"m 104 897 l 146 1093 l 361 1093 l 319 897 l 104 897 m 429 897 l 471 1093 l 688 1093 l 646 897 l 429 897 m 281 -14 q 109 40 168 -14 q 50 186 50 93 q 58 258 50 221 l 92 417 l 13 417 l 64 658 l 143 658 l 171 788 l 521 856 l 479 658 l 614 658 l 556 417 l 428 417 l 399 276 q 397 267 397 272 q 397 260 397 263 q 451 218 397 218 q 538 232 496 218 l 493 24 q 395 -4 446 6 q 281 -14 344 -14 z "},"ṭ":{"ha":550,"x_min":3,"x_max":604,"o":"m 271 -14 q 99 40 158 -14 q 40 186 40 93 q 49 258 40 221 l 82 417 l 3 417 l 54 658 l 133 658 l 161 788 l 511 856 l 469 658 l 604 658 l 546 417 l 418 417 l 389 276 q 388 267 388 272 q 388 260 388 263 q 442 218 388 218 q 528 232 486 218 l 483 24 q 385 -4 436 6 q 271 -14 335 -14 m 64 -268 l 106 -72 l 322 -72 l 281 -268 l 64 -268 z "},"ṯ":{"ha":550,"x_min":-97,"x_max":604,"o":"m 271 -14 q 99 40 158 -14 q 40 186 40 93 q 49 258 40 221 l 82 417 l 3 417 l 54 658 l 133 658 l 161 788 l 511 856 l 469 658 l 604 658 l 546 417 l 418 417 l 389 276 q 388 267 388 272 q 388 260 388 263 q 442 218 388 218 q 528 232 486 218 l 483 24 q 385 -4 436 6 q 271 -14 335 -14 m -97 -261 l -56 -67 l 428 -67 l 386 -261 l -97 -261 z "},"u":{"ha":871,"x_min":6,"x_max":882,"o":"m 201 -14 q 59 33 113 -14 q 6 171 6 81 q 14 242 6 204 l 103 658 l 439 658 l 358 278 q 357 269 357 274 q 357 263 357 265 q 394 233 357 233 q 430 242 410 233 q 461 261 450 250 l 546 658 l 882 658 l 743 0 l 428 0 l 428 38 q 328 1 388 15 q 201 -14 268 -14 z "},"ú":{"ha":871,"x_min":6,"x_max":882,"o":"m 353 725 l 553 1039 l 811 1039 l 599 725 l 353 725 m 201 -14 q 59 33 113 -14 q 6 171 6 81 q 14 242 6 204 l 103 658 l 439 658 l 358 278 q 357 269 357 274 q 357 263 357 265 q 394 233 357 233 q 430 242 410 233 q 461 261 450 250 l 546 658 l 882 658 l 743 0 l 428 0 l 428 38 q 328 1 388 15 q 201 -14 268 -14 z "},"ŭ":{"ha":871,"x_min":6,"x_max":886,"o":"m 514 725 q 332 781 399 725 q 265 944 265 838 q 267 986 265 964 q 275 1031 269 1008 l 479 1031 q 475 1008 476 1019 q 474 985 474 996 q 489 931 474 953 q 543 908 504 908 q 624 946 596 908 q 661 1031 651 983 l 886 1031 q 754 803 854 882 q 514 725 654 725 m 201 -14 q 59 33 113 -14 q 6 171 6 81 q 14 242 6 204 l 103 658 l 439 658 l 358 278 q 357 269 357 274 q 357 263 357 265 q 394 233 357 233 q 430 242 410 233 q 461 261 450 250 l 546 658 l 882 658 l 743 0 l 428 0 l 428 38 q 328 1 388 15 q 201 -14 268 -14 z "},"ǔ":{"ha":871,"x_min":6,"x_max":908,"o":"m 407 725 l 228 1025 l 457 1025 l 528 876 l 665 1025 l 908 1025 l 601 725 l 407 725 m 201 -14 q 59 33 113 -14 q 6 171 6 81 q 14 242 6 204 l 103 658 l 439 658 l 358 278 q 357 269 357 274 q 357 263 357 265 q 394 233 357 233 q 430 242 410 233 q 461 261 450 250 l 546 658 l 882 658 l 743 0 l 428 0 l 428 38 q 328 1 388 15 q 201 -14 268 -14 z "},"û":{"ha":871,"x_min":6,"x_max":882,"o":"m 165 725 l 471 1025 l 667 1025 l 846 725 l 622 725 l 547 874 l 415 725 l 165 725 m 201 -14 q 59 33 113 -14 q 6 171 6 81 q 14 242 6 204 l 103 658 l 439 658 l 358 278 q 357 269 357 274 q 357 263 357 265 q 394 233 357 233 q 430 242 410 233 q 461 261 450 250 l 546 658 l 882 658 l 743 0 l 428 0 l 428 38 q 328 1 388 15 q 201 -14 268 -14 z "},"ü":{"ha":871,"x_min":6,"x_max":882,"o":"m 247 767 l 289 963 l 504 963 l 463 767 l 247 767 m 572 767 l 614 963 l 831 963 l 789 767 l 572 767 m 201 -14 q 59 33 113 -14 q 6 171 6 81 q 14 242 6 204 l 103 658 l 439 658 l 358 278 q 357 269 357 274 q 357 263 357 265 q 394 233 357 233 q 430 242 410 233 q 461 261 450 250 l 546 658 l 882 658 l 743 0 l 428 0 l 428 38 q 328 1 388 15 q 201 -14 268 -14 z "},"ǘ":{"ha":871,"x_min":6,"x_max":882,"o":"m 446 1006 l 565 1207 l 813 1207 l 668 1006 l 446 1006 m 250 778 l 289 963 l 500 963 l 461 778 l 250 778 m 568 778 l 607 963 l 818 963 l 779 778 l 568 778 m 201 -14 q 59 33 113 -14 q 6 171 6 81 q 14 242 6 204 l 103 658 l 439 658 l 358 278 q 357 269 357 274 q 357 263 357 265 q 394 233 357 233 q 430 242 410 233 q 461 261 450 250 l 546 658 l 882 658 l 743 0 l 428 0 l 428 38 q 328 1 388 15 q 201 -14 268 -14 z "},"ǚ":{"ha":871,"x_min":6,"x_max":926,"o":"m 450 967 l 285 1168 l 522 1168 l 579 1067 l 681 1168 l 926 1168 l 679 967 l 450 967 m 244 739 l 283 924 l 494 924 l 456 739 l 244 739 m 563 739 l 601 924 l 811 924 l 772 739 l 563 739 m 201 -14 q 59 33 113 -14 q 6 171 6 81 q 14 242 6 204 l 103 658 l 439 658 l 358 278 q 357 269 357 274 q 357 263 357 265 q 394 233 357 233 q 430 242 410 233 q 461 261 450 250 l 546 658 l 882 658 l 743 0 l 428 0 l 428 38 q 328 1 388 15 q 201 -14 268 -14 z "},"ǜ":{"ha":871,"x_min":6,"x_max":882,"o":"m 469 1006 l 408 1207 l 656 1207 l 692 1006 l 469 1006 m 261 778 l 300 963 l 511 963 l 472 778 l 261 778 m 579 778 l 618 963 l 829 963 l 790 778 l 579 778 m 201 -14 q 59 33 113 -14 q 6 171 6 81 q 14 242 6 204 l 103 658 l 439 658 l 358 278 q 357 269 357 274 q 357 263 357 265 q 394 233 357 233 q 430 242 410 233 q 461 261 450 250 l 546 658 l 882 658 l 743 0 l 428 0 l 428 38 q 328 1 388 15 q 201 -14 268 -14 z "},"ǖ":{"ha":871,"x_min":6,"x_max":882,"o":"m 328 1000 l 369 1194 l 853 1194 l 811 1000 l 328 1000 m 243 739 l 285 935 l 500 935 l 458 739 l 243 739 m 568 739 l 610 935 l 826 935 l 785 739 l 568 739 m 201 -14 q 59 33 113 -14 q 6 171 6 81 q 14 242 6 204 l 103 658 l 439 658 l 358 278 q 357 269 357 274 q 357 263 357 265 q 394 233 357 233 q 430 242 410 233 q 461 261 450 250 l 546 658 l 882 658 l 743 0 l 428 0 l 428 38 q 328 1 388 15 q 201 -14 268 -14 z "},"ụ":{"ha":871,"x_min":6,"x_max":882,"o":"m 201 -14 q 59 33 113 -14 q 6 171 6 81 q 14 242 6 204 l 103 658 l 439 658 l 358 278 q 357 269 357 274 q 357 263 357 265 q 394 233 357 233 q 430 242 410 233 q 461 261 450 250 l 546 658 l 882 658 l 743 0 l 428 0 l 428 38 q 328 1 388 15 q 201 -14 268 -14 m 181 -296 l 222 -100 l 439 -100 l 397 -296 l 181 -296 z "},"ù":{"ha":871,"x_min":6,"x_max":882,"o":"m 415 725 l 336 1039 l 594 1039 l 661 725 l 415 725 m 201 -14 q 59 33 113 -14 q 6 171 6 81 q 14 242 6 204 l 103 658 l 439 658 l 358 278 q 357 269 357 274 q 357 263 357 265 q 394 233 357 233 q 430 242 410 233 q 461 261 450 250 l 546 658 l 882 658 l 743 0 l 428 0 l 428 38 q 328 1 388 15 q 201 -14 268 -14 z "},"ủ":{"ha":871,"x_min":6,"x_max":882,"o":"m 388 725 l 411 838 q 508 856 481 842 q 540 892 536 871 q 479 931 550 931 q 399 917 438 931 l 426 1047 q 507 1063 463 1057 q 611 1068 551 1068 q 747 1034 701 1068 q 793 947 793 1000 q 792 933 793 940 q 790 919 792 926 q 743 826 776 857 q 646 775 710 794 l 635 725 l 388 725 m 201 -14 q 59 33 113 -14 q 6 171 6 81 q 14 242 6 204 l 103 658 l 439 658 l 358 278 q 357 269 357 274 q 357 263 357 265 q 394 233 357 233 q 430 242 410 233 q 461 261 450 250 l 546 658 l 882 658 l 743 0 l 428 0 l 428 38 q 328 1 388 15 q 201 -14 268 -14 z "},"ư":{"ha":1121,"x_min":6,"x_max":1221,"o":"m 201 -14 q 59 33 113 -14 q 6 171 6 81 q 14 242 6 204 l 103 658 l 439 658 l 358 278 q 357 269 357 274 q 357 263 357 265 q 394 233 357 233 q 430 242 410 233 q 461 261 450 250 l 546 658 l 882 658 l 872 611 q 952 646 928 617 q 986 744 976 675 l 1221 744 q 1149 549 1196 625 q 1024 438 1103 474 q 826 396 946 401 l 743 0 l 428 0 l 428 38 q 328 1 388 15 q 201 -14 268 -14 z "},"ứ":{"ha":1121,"x_min":6,"x_max":1221,"o":"m 378 725 l 578 1039 l 836 1039 l 624 725 l 378 725 m 201 -14 q 59 33 113 -14 q 6 171 6 81 q 14 242 6 204 l 103 658 l 439 658 l 358 278 q 357 269 357 274 q 357 263 357 265 q 394 233 357 233 q 430 242 410 233 q 461 261 450 250 l 546 658 l 882 658 l 872 611 q 952 646 928 617 q 986 744 976 675 l 1221 744 q 1149 549 1196 625 q 1024 438 1103 474 q 826 396 946 401 l 743 0 l 428 0 l 428 38 q 328 1 388 15 q 201 -14 268 -14 z "},"ự":{"ha":1121,"x_min":6,"x_max":1221,"o":"m 201 -14 q 59 33 113 -14 q 6 171 6 81 q 14 242 6 204 l 103 658 l 439 658 l 358 278 q 357 269 357 274 q 357 263 357 265 q 394 233 357 233 q 430 242 410 233 q 461 261 450 250 l 546 658 l 882 658 l 872 611 q 952 646 928 617 q 986 744 976 675 l 1221 744 q 1149 549 1196 625 q 1024 438 1103 474 q 826 396 946 401 l 743 0 l 428 0 l 428 38 q 328 1 388 15 q 201 -14 268 -14 m 185 -296 l 226 -100 l 443 -100 l 401 -296 l 185 -296 z "},"ừ":{"ha":1121,"x_min":6,"x_max":1221,"o":"m 390 725 l 311 1039 l 569 1039 l 636 725 l 390 725 m 201 -14 q 59 33 113 -14 q 6 171 6 81 q 14 242 6 204 l 103 658 l 439 658 l 358 278 q 357 269 357 274 q 357 263 357 265 q 394 233 357 233 q 430 242 410 233 q 461 261 450 250 l 546 658 l 882 658 l 872 611 q 952 646 928 617 q 986 744 976 675 l 1221 744 q 1149 549 1196 625 q 1024 438 1103 474 q 826 396 946 401 l 743 0 l 428 0 l 428 38 q 328 1 388 15 q 201 -14 268 -14 z "},"ử":{"ha":1121,"x_min":6,"x_max":1221,"o":"m 388 725 l 411 838 q 508 856 481 842 q 540 892 536 871 q 479 931 550 931 q 399 917 438 931 l 426 1047 q 507 1063 463 1057 q 611 1068 551 1068 q 747 1034 701 1068 q 793 947 793 1000 q 792 933 793 940 q 790 919 792 926 q 743 826 776 857 q 646 775 710 794 l 635 725 l 388 725 m 201 -14 q 59 33 113 -14 q 6 171 6 81 q 14 242 6 204 l 103 658 l 439 658 l 358 278 q 357 269 357 274 q 357 263 357 265 q 394 233 357 233 q 430 242 410 233 q 461 261 450 250 l 546 658 l 882 658 l 872 611 q 952 646 928 617 q 986 744 976 675 l 1221 744 q 1149 549 1196 625 q 1024 438 1103 474 q 826 396 946 401 l 743 0 l 428 0 l 428 38 q 328 1 388 15 q 201 -14 268 -14 z "},"ữ":{"ha":1121,"x_min":6,"x_max":1221,"o":"m 656 725 q 560 740 606 725 q 474 771 515 756 q 389 786 432 786 q 301 770 342 786 q 231 729 261 754 l 272 925 q 340 959 297 944 q 425 974 382 974 q 518 958 476 974 q 601 928 560 943 q 690 913 643 913 q 778 930 739 913 q 839 969 817 947 l 797 774 q 740 740 779 756 q 656 725 700 725 m 201 -14 q 59 33 113 -14 q 6 171 6 81 q 14 242 6 204 l 103 658 l 439 658 l 358 278 q 357 269 357 274 q 357 263 357 265 q 394 233 357 233 q 430 242 410 233 q 461 261 450 250 l 546 658 l 882 658 l 872 611 q 952 646 928 617 q 986 744 976 675 l 1221 744 q 1149 549 1196 625 q 1024 438 1103 474 q 826 396 946 401 l 743 0 l 428 0 l 428 38 q 328 1 388 15 q 201 -14 268 -14 z "},"ű":{"ha":869,"x_min":6,"x_max":993,"o":"m 142 725 l 333 1007 l 618 1007 l 401 725 l 142 725 m 515 725 l 707 1007 l 993 1007 l 775 725 l 515 725 m 201 -14 q 59 33 113 -14 q 6 171 6 81 q 14 242 6 204 l 103 658 l 439 658 l 358 278 q 357 269 357 274 q 357 263 357 265 q 394 233 357 233 q 430 242 410 233 q 461 261 450 250 l 546 658 l 882 658 l 743 0 l 428 0 l 428 38 q 328 1 388 15 q 201 -14 268 -14 z "},"ū":{"ha":871,"x_min":6,"x_max":882,"o":"m 283 781 l 325 975 l 808 975 l 767 781 l 283 781 m 201 -14 q 59 33 113 -14 q 6 171 6 81 q 14 242 6 204 l 103 658 l 439 658 l 358 278 q 357 269 357 274 q 357 263 357 265 q 394 233 357 233 q 430 242 410 233 q 461 261 450 250 l 546 658 l 882 658 l 743 0 l 428 0 l 428 38 q 328 1 388 15 q 201 -14 268 -14 z "},"ų":{"ha":871,"x_min":6,"x_max":882,"o":"m 467 -306 q 335 -278 383 -306 q 288 -194 288 -251 q 332 -77 288 -128 q 428 0 376 -26 l 428 38 q 328 1 388 15 q 201 -14 268 -14 q 59 33 113 -14 q 6 171 6 81 q 14 242 6 204 l 103 658 l 439 658 l 358 278 q 357 269 357 274 q 357 263 357 265 q 394 233 357 233 q 430 242 410 233 q 461 261 450 250 l 546 658 l 882 658 l 743 0 l 629 0 q 570 -49 594 -22 q 539 -106 546 -75 q 538 -117 538 -110 q 553 -142 538 -135 q 594 -149 568 -149 q 633 -144 613 -149 q 668 -133 654 -140 l 638 -281 q 565 -297 611 -289 q 467 -306 519 -306 z "},"ů":{"ha":871,"x_min":6,"x_max":882,"o":"m 507 725 q 378 769 424 725 q 333 879 333 813 q 338 924 333 901 q 421 1066 356 1008 q 592 1124 486 1124 q 723 1080 678 1124 q 768 969 768 1036 q 767 947 768 958 q 763 924 765 935 q 678 783 744 840 q 507 725 613 725 m 533 853 q 601 881 578 853 q 625 942 625 908 q 610 979 625 964 q 564 994 596 994 q 496 967 519 994 q 472 906 472 939 q 487 868 472 883 q 533 853 501 853 m 201 -14 q 59 33 113 -14 q 6 171 6 81 q 14 242 6 204 l 103 658 l 439 658 l 358 278 q 357 269 357 274 q 357 263 357 265 q 394 233 357 233 q 430 242 410 233 q 461 261 450 250 l 546 658 l 882 658 l 743 0 l 428 0 l 428 38 q 328 1 388 15 q 201 -14 268 -14 z "},"ũ":{"ha":871,"x_min":6,"x_max":882,"o":"m 651 732 q 556 747 601 732 q 469 778 511 763 q 385 793 428 793 q 297 777 338 793 q 226 736 257 761 l 268 932 q 335 966 293 951 q 421 981 378 981 q 514 965 472 981 q 597 935 556 950 q 686 919 639 919 q 774 937 735 919 q 835 976 813 954 l 793 781 q 735 747 775 763 q 651 732 696 732 m 201 -14 q 59 33 113 -14 q 6 171 6 81 q 14 242 6 204 l 103 658 l 439 658 l 358 278 q 357 269 357 274 q 357 263 357 265 q 394 233 357 233 q 430 242 410 233 q 461 261 450 250 l 546 658 l 882 658 l 743 0 l 428 0 l 428 38 q 328 1 388 15 q 201 -14 268 -14 z "},"v":{"ha":913,"x_min":82,"x_max":953,"o":"m 204 0 l 82 658 l 422 658 l 443 356 l 593 658 l 953 658 l 553 0 l 204 0 z "},"w":{"ha":1131,"x_min":82,"x_max":1171,"o":"m 118 0 l 82 658 l 401 658 l 410 433 l 478 556 l 499 658 l 740 658 l 751 433 l 851 658 l 1171 658 l 857 0 l 571 0 l 543 213 l 426 0 l 118 0 z "},"ẃ":{"ha":1131,"x_min":82,"x_max":1171,"o":"m 511 725 l 711 1039 l 969 1039 l 757 725 l 511 725 m 118 0 l 82 658 l 401 658 l 410 433 l 478 556 l 499 658 l 740 658 l 751 433 l 851 658 l 1171 658 l 857 0 l 571 0 l 543 213 l 426 0 l 118 0 z "},"ŵ":{"ha":1131,"x_min":82,"x_max":1171,"o":"m 303 725 l 608 1025 l 804 1025 l 983 725 l 760 725 l 685 874 l 553 725 l 303 725 m 118 0 l 82 658 l 401 658 l 410 433 l 478 556 l 499 658 l 740 658 l 751 433 l 851 658 l 1171 658 l 857 0 l 571 0 l 543 213 l 426 0 l 118 0 z "},"ẅ":{"ha":1131,"x_min":82,"x_max":1171,"o":"m 381 767 l 422 963 l 638 963 l 596 767 l 381 767 m 706 767 l 747 963 l 964 963 l 922 767 l 706 767 m 118 0 l 82 658 l 401 658 l 410 433 l 478 556 l 499 658 l 740 658 l 751 433 l 851 658 l 1171 658 l 857 0 l 571 0 l 543 213 l 426 0 l 118 0 z "},"ẁ":{"ha":1131,"x_min":82,"x_max":1171,"o":"m 513 725 l 433 1039 l 692 1039 l 758 725 l 513 725 m 118 0 l 82 658 l 401 658 l 410 433 l 478 556 l 499 658 l 740 658 l 751 433 l 851 658 l 1171 658 l 857 0 l 571 0 l 543 213 l 426 0 l 118 0 z "},"x":{"ha":906,"x_min":-65,"x_max":940,"o":"m -65 0 l 261 335 l 85 658 l 447 658 l 494 572 l 578 658 l 940 658 l 626 335 l 813 0 l 446 0 l 393 94 l 301 0 l -65 0 z "},"y":{"ha":869,"x_min":-7,"x_max":882,"o":"m 192 -244 q 129 -242 169 -244 q 50 -237 89 -240 q -7 -231 11 -233 l 40 -12 q 109 -25 67 -19 q 186 -31 151 -31 q 362 -10 301 -31 q 428 38 422 10 l 433 60 q 333 23 392 38 q 207 8 274 8 q 65 58 118 8 q 13 196 13 107 q 14 228 13 211 q 19 264 15 246 l 103 658 l 439 658 l 363 300 q 361 288 361 296 q 400 256 361 256 q 435 264 415 256 q 467 283 456 272 l 546 658 l 882 658 l 765 108 q 681 -79 743 0 q 501 -201 619 -158 q 192 -244 383 -244 z "},"ý":{"ha":869,"x_min":-7,"x_max":882,"o":"m 382 725 l 582 1039 l 840 1039 l 628 725 l 382 725 m 192 -244 q 129 -242 169 -244 q 50 -237 89 -240 q -7 -231 11 -233 l 40 -12 q 109 -25 67 -19 q 186 -31 151 -31 q 362 -10 301 -31 q 428 38 422 10 l 433 60 q 333 23 392 38 q 207 8 274 8 q 65 58 118 8 q 13 196 13 107 q 14 228 13 211 q 19 264 15 246 l 103 658 l 439 658 l 363 300 q 361 288 361 296 q 400 256 361 256 q 435 264 415 256 q 467 283 456 272 l 546 658 l 882 658 l 765 108 q 681 -79 743 0 q 501 -201 619 -158 q 192 -244 383 -244 z "},"ŷ":{"ha":869,"x_min":-7,"x_max":882,"o":"m 168 725 l 474 1025 l 669 1025 l 849 725 l 625 725 l 550 874 l 418 725 l 168 725 m 192 -244 q 129 -242 169 -244 q 50 -237 89 -240 q -7 -231 11 -233 l 40 -12 q 109 -25 67 -19 q 186 -31 151 -31 q 362 -10 301 -31 q 428 38 422 10 l 433 60 q 333 23 392 38 q 207 8 274 8 q 65 58 118 8 q 13 196 13 107 q 14 228 13 211 q 19 264 15 246 l 103 658 l 439 658 l 363 300 q 361 288 361 296 q 400 256 361 256 q 435 264 415 256 q 467 283 456 272 l 546 658 l 882 658 l 765 108 q 681 -79 743 0 q 501 -201 619 -158 q 192 -244 383 -244 z "},"ÿ":{"ha":869,"x_min":-7,"x_max":893,"o":"m 310 806 l 351 1001 l 567 1001 l 525 806 l 310 806 m 635 806 l 676 1001 l 893 1001 l 851 806 l 635 806 m 192 -244 q 129 -242 169 -244 q 50 -237 89 -240 q -7 -231 11 -233 l 40 -12 q 109 -25 67 -19 q 186 -31 151 -31 q 362 -10 301 -31 q 428 38 422 10 l 433 60 q 333 23 392 38 q 207 8 274 8 q 65 58 118 8 q 13 196 13 107 q 14 228 13 211 q 19 264 15 246 l 103 658 l 439 658 l 363 300 q 361 288 361 296 q 400 256 361 256 q 435 264 415 256 q 467 283 456 272 l 546 658 l 882 658 l 765 108 q 681 -79 743 0 q 501 -201 619 -158 q 192 -244 383 -244 z "},"ẏ":{"ha":869,"x_min":-7,"x_max":882,"o":"m 408 767 l 449 963 l 665 963 l 624 767 l 408 767 m 192 -244 q 129 -242 169 -244 q 50 -237 89 -240 q -7 -231 11 -233 l 40 -12 q 109 -25 67 -19 q 186 -31 151 -31 q 362 -10 301 -31 q 428 38 422 10 l 433 60 q 333 23 392 38 q 207 8 274 8 q 65 58 118 8 q 13 196 13 107 q 14 228 13 211 q 19 264 15 246 l 103 658 l 439 658 l 363 300 q 361 288 361 296 q 400 256 361 256 q 435 264 415 256 q 467 283 456 272 l 546 658 l 882 658 l 765 108 q 681 -79 743 0 q 501 -201 619 -158 q 192 -244 383 -244 z "},"ỵ":{"ha":869,"x_min":-7,"x_max":901,"o":"m 192 -244 q 129 -242 169 -244 q 50 -237 89 -240 q -7 -231 11 -233 l 40 -12 q 109 -25 67 -19 q 186 -31 151 -31 q 362 -10 301 -31 q 428 38 422 10 l 433 60 q 333 23 392 38 q 207 8 274 8 q 65 58 118 8 q 13 196 13 107 q 14 228 13 211 q 19 264 15 246 l 103 658 l 439 658 l 363 300 q 361 288 361 296 q 400 256 361 256 q 435 264 415 256 q 467 283 456 272 l 546 658 l 882 658 l 765 108 q 681 -79 743 0 q 501 -201 619 -158 q 192 -244 383 -244 m 643 -296 l 685 -100 l 901 -100 l 860 -296 l 643 -296 z "},"ỳ":{"ha":869,"x_min":-7,"x_max":882,"o":"m 382 725 l 303 1039 l 561 1039 l 628 725 l 382 725 m 192 -244 q 129 -242 169 -244 q 50 -237 89 -240 q -7 -231 11 -233 l 40 -12 q 109 -25 67 -19 q 186 -31 151 -31 q 362 -10 301 -31 q 428 38 422 10 l 433 60 q 333 23 392 38 q 207 8 274 8 q 65 58 118 8 q 13 196 13 107 q 14 228 13 211 q 19 264 15 246 l 103 658 l 439 658 l 363 300 q 361 288 361 296 q 400 256 361 256 q 435 264 415 256 q 467 283 456 272 l 546 658 l 882 658 l 765 108 q 681 -79 743 0 q 501 -201 619 -158 q 192 -244 383 -244 z "},"ỷ":{"ha":869,"x_min":-7,"x_max":882,"o":"m 390 725 l 414 838 q 511 856 483 842 q 543 892 539 871 q 482 931 553 931 q 401 917 440 931 l 429 1047 q 510 1063 465 1057 q 614 1068 554 1068 q 750 1034 704 1068 q 796 947 796 1000 q 795 933 796 940 q 793 919 794 926 q 746 826 779 857 q 649 775 713 794 l 638 725 l 390 725 m 192 -244 q 129 -242 169 -244 q 50 -237 89 -240 q -7 -231 11 -233 l 40 -12 q 109 -25 67 -19 q 186 -31 151 -31 q 362 -10 301 -31 q 428 38 422 10 l 433 60 q 333 23 392 38 q 207 8 274 8 q 65 58 118 8 q 13 196 13 107 q 14 228 13 211 q 19 264 15 246 l 103 658 l 439 658 l 363 300 q 361 288 361 296 q 400 256 361 256 q 435 264 415 256 q 467 283 456 272 l 546 658 l 882 658 l 765 108 q 681 -79 743 0 q 501 -201 619 -158 q 192 -244 383 -244 z "},"ỹ":{"ha":869,"x_min":-7,"x_max":882,"o":"m 657 732 q 562 747 607 732 q 475 778 517 763 q 390 793 433 793 q 303 777 343 793 q 232 736 263 761 l 274 932 q 341 966 299 951 q 426 981 383 981 q 519 965 478 981 q 603 935 561 950 q 692 919 644 919 q 779 937 740 919 q 840 976 818 954 l 799 781 q 741 747 781 763 q 657 732 701 732 m 192 -244 q 129 -242 169 -244 q 50 -237 89 -240 q -7 -231 11 -233 l 40 -12 q 109 -25 67 -19 q 186 -31 151 -31 q 362 -10 301 -31 q 428 38 422 10 l 433 60 q 333 23 392 38 q 207 8 274 8 q 65 58 118 8 q 13 196 13 107 q 14 228 13 211 q 19 264 15 246 l 103 658 l 439 658 l 363 300 q 361 288 361 296 q 400 256 361 256 q 435 264 415 256 q 467 283 456 272 l 546 658 l 882 658 l 765 108 q 681 -79 743 0 q 501 -201 619 -158 q 192 -244 383 -244 z "},"z":{"ha":704,"x_min":-57,"x_max":732,"o":"m -57 0 l -21 176 l 249 401 l 35 401 l 89 658 l 732 658 l 690 464 l 433 242 l 654 242 l 604 0 l -57 0 z "},"ź":{"ha":704,"x_min":-57,"x_max":750,"o":"m 292 725 l 492 1039 l 750 1039 l 538 725 l 292 725 m -57 0 l -21 176 l 249 401 l 35 401 l 89 658 l 732 658 l 690 464 l 433 242 l 654 242 l 604 0 l -57 0 z "},"ž":{"ha":710,"x_min":-43,"x_max":828,"o":"m 326 725 l 147 1025 l 376 1025 l 447 876 l 585 1025 l 828 1025 l 521 725 l 326 725 m -43 0 l -7 176 l 263 401 l 49 401 l 103 658 l 746 658 l 704 464 l 447 242 l 668 242 l 618 0 l -43 0 z "},"ż":{"ha":704,"x_min":-57,"x_max":732,"o":"m 321 767 l 361 963 l 578 963 l 536 767 l 321 767 m -57 0 l -21 176 l 249 401 l 35 401 l 89 658 l 732 658 l 690 464 l 433 242 l 654 242 l 604 0 l -57 0 z "},"ẓ":{"ha":704,"x_min":-57,"x_max":732,"o":"m -57 0 l -21 176 l 249 401 l 35 401 l 89 658 l 732 658 l 690 464 l 433 242 l 654 242 l 604 0 l -57 0 m 82 -296 l 124 -100 l 340 -100 l 299 -296 l 82 -296 z "},"ﬁ":{"ha":863,"x_min":-7,"x_max":874,"o":"m -7 0 l 81 417 l 3 417 l 54 658 l 132 658 l 135 672 q 198 822 153 758 q 324 922 243 886 q 524 958 404 958 q 639 951 588 958 q 729 926 690 943 l 685 713 q 604 726 650 726 q 504 708 533 726 q 471 667 475 690 l 468 658 l 874 658 l 735 0 l 399 0 l 486 417 l 417 417 l 329 0 l -7 0 z "},"ﬂ":{"ha":863,"x_min":-7,"x_max":931,"o":"m -7 0 l 81 417 l 3 417 l 54 658 l 132 658 l 135 672 q 256 881 161 804 q 524 958 350 958 q 629 950 581 958 q 717 928 678 942 l 931 928 l 735 0 l 406 0 l 493 417 l 410 417 l 322 0 l -7 0 m 458 658 l 550 658 l 564 725 q 490 712 511 725 q 461 667 468 699 l 458 658 z "},"ª":{"ha":461,"x_min":76,"x_max":525,"o":"m 183 528 q 107 549 138 528 q 76 617 76 569 q 81 650 76 632 q 265 774 106 774 l 347 774 l 349 778 q 288 800 351 800 q 223 795 258 800 q 154 781 188 790 l 175 881 q 257 901 208 893 q 349 908 306 908 q 481 876 438 908 q 525 789 525 844 q 521 754 525 774 l 475 536 l 311 536 l 307 561 q 256 538 286 547 q 183 528 225 528 m 275 629 q 301 634 290 629 q 319 646 311 639 l 328 681 l 294 681 q 254 656 260 681 q 253 647 253 653 q 275 629 253 629 z "},"º":{"ha":501,"x_min":89,"x_max":560,"o":"m 283 528 q 142 564 194 528 q 89 672 89 600 q 91 694 89 683 q 94 718 93 706 q 179 860 115 813 q 365 908 243 908 q 510 874 460 908 q 560 769 560 839 q 554 718 560 742 q 471 576 535 624 q 283 528 407 528 m 313 661 q 345 674 332 661 q 364 718 358 686 q 368 744 368 733 q 336 775 368 775 q 304 763 317 775 q 285 718 292 750 q 283 705 283 711 q 282 693 282 699 q 313 661 282 661 z "},"ⁿ":{"ha":481,"x_min":64,"x_max":547,"o":"m 64 536 l 140 900 l 314 900 l 313 881 q 373 900 336 892 q 444 908 410 908 q 522 883 496 908 q 547 811 547 857 q 543 771 547 794 l 494 536 l 310 536 l 354 747 l 354 753 q 333 771 354 771 q 293 757 314 771 l 247 536 l 64 536 z "},"Δ":{"ha":879,"x_min":-57,"x_max":815,"o":"m -57 0 l -21 174 l 417 894 l 681 894 l 815 172 l 779 0 l -57 0 m 322 254 l 522 254 l 475 503 l 322 254 z "},"Ω":{"ha":1033,"x_min":-47,"x_max":1057,"o":"m -47 0 l 4 243 l 119 243 q 43 435 43 318 q 51 515 43 474 q 249 847 97 729 q 643 965 401 965 q 952 880 847 965 q 1057 638 1057 794 q 1053 579 1057 610 q 1043 515 1050 549 q 982 362 1025 432 q 861 243 939 292 l 976 243 l 925 0 l 465 0 l 518 254 q 640 358 600 299 q 696 494 679 418 q 704 564 704 535 q 583 681 704 681 q 456 633 503 681 q 390 494 410 585 q 382 418 382 456 q 401 328 382 368 q 465 254 421 288 l 413 0 l -47 0 z "},"μ":{"ha":878,"x_min":-72,"x_max":889,"o":"m -72 -199 l 110 658 l 446 658 l 365 278 q 364 269 364 274 q 364 263 364 265 q 401 233 364 233 q 437 242 417 233 q 468 261 457 250 l 553 658 l 889 658 l 750 0 l 435 0 l 435 38 q 376 1 413 17 q 303 -14 339 -14 l 264 -199 l -72 -199 z "},"π":{"ha":979,"x_min":10,"x_max":965,"o":"m 686 -14 q 513 38 569 -14 q 456 182 456 90 q 464 258 456 217 l 492 388 l 428 388 l 346 0 l 10 0 l 92 388 l 11 388 l 68 658 l 965 658 l 908 388 l 828 388 l 804 276 q 803 267 803 272 q 803 260 803 263 q 857 218 803 218 q 943 232 901 218 l 899 24 q 801 -4 851 6 q 686 -14 750 -14 z "},"ก":{"ha":906,"x_min":-43,"x_max":881,"o":"m -43 0 l 6 235 q 52 322 17 279 q 136 383 88 365 l 32 424 l 78 639 q 269 724 157 685 q 513 764 382 764 q 723 729 642 764 q 842 636 804 694 q 881 508 881 578 q 879 481 881 494 q 875 451 878 467 l 779 0 l 429 0 l 519 431 q 524 453 522 443 q 525 472 525 463 q 507 517 525 503 q 444 531 489 531 q 385 524 414 531 q 333 508 357 518 l 333 506 l 460 456 l 432 324 q 377 290 399 314 q 347 226 356 267 l 300 0 l -43 0 z "},"ข":{"ha":860,"x_min":15,"x_max":892,"o":"m 342 -14 q 104 49 193 -14 q 15 218 15 113 q 17 246 15 232 q 21 274 18 260 l 26 299 q 64 381 38 347 q 115 441 90 415 q 143 489 139 467 q 144 503 144 494 q 114 525 144 525 l 54 525 l 128 750 l 375 750 q 477 723 444 750 q 510 647 510 696 q 506 606 510 629 q 474 531 497 565 q 423 466 450 496 q 374 407 396 436 q 344 347 351 378 l 339 321 q 337 310 338 315 q 336 300 336 306 q 400 257 336 257 q 469 278 449 257 q 496 331 490 300 l 585 750 l 892 750 l 792 279 q 653 61 761 136 q 342 -14 544 -14 z "},"ฃ":{"ha":893,"x_min":40,"x_max":925,"o":"m 375 -14 q 201 14 275 -14 q 85 90 126 42 q 43 201 43 139 q 47 239 43 221 l 51 261 q 91 340 61 303 q 156 406 121 376 q 217 460 190 436 q 249 503 244 485 q 250 514 250 507 q 232 529 250 529 q 206 515 219 529 l 194 464 l 40 464 l 101 750 l 279 750 l 271 711 q 338 737 293 724 q 422 750 382 750 q 523 722 489 750 q 557 644 557 694 q 553 606 557 626 q 515 516 542 554 q 458 447 489 478 q 404 390 428 417 q 375 335 381 363 l 372 321 q 370 310 371 315 q 369 300 369 306 q 433 257 369 257 q 499 278 474 257 q 529 331 524 300 l 618 750 l 925 750 l 825 279 q 685 61 794 136 q 375 -14 575 -14 z "},"ค":{"ha":922,"x_min":-29,"x_max":894,"o":"m -29 0 l 61 425 q 224 684 99 604 q 544 764 349 764 q 803 692 711 764 q 894 499 894 621 q 886 425 894 465 l 796 0 l 460 0 l 543 396 q 547 417 546 407 q 549 435 549 426 q 534 469 549 460 q 485 479 519 479 q 422 462 443 479 q 390 396 401 444 l 382 360 q 415 369 397 367 q 450 372 433 372 l 500 372 l 450 142 l 396 142 q 333 129 361 142 l 307 0 l -29 0 z "},"ฅ":{"ha":922,"x_min":-29,"x_max":918,"o":"m -29 0 l 86 546 q 172 704 107 644 q 357 764 236 764 q 453 748 406 764 q 529 693 500 732 q 629 748 574 732 q 733 764 685 764 q 872 722 825 764 q 918 606 918 679 q 916 576 918 592 q 911 546 914 561 l 796 0 l 460 0 l 551 436 q 556 464 556 453 q 538 479 556 479 q 518 472 526 479 q 503 454 510 465 l 456 454 q 449 472 453 465 q 433 479 446 479 q 411 469 418 479 q 399 436 404 460 l 382 360 q 447 372 414 372 l 500 372 l 450 142 l 396 142 q 365 138 382 142 q 333 128 349 135 l 307 0 l -29 0 z "},"ฆ":{"ha":914,"x_min":-17,"x_max":946,"o":"m 524 -14 q 400 3 453 -14 q 314 44 347 21 l 296 0 l -17 0 l 28 211 q 73 310 39 265 q 146 390 107 354 q 215 454 185 426 q 249 503 244 482 q 250 514 250 507 q 232 529 250 529 q 206 515 219 529 l 194 464 l 40 464 l 101 750 l 308 750 l 300 711 q 365 738 326 725 q 447 750 403 750 q 539 719 506 750 q 572 638 572 689 q 571 618 572 628 q 567 597 569 608 q 523 482 550 525 q 466 412 496 439 q 413 358 436 385 q 381 292 389 332 l 374 261 q 405 242 381 250 q 443 233 429 233 q 521 294 507 233 l 617 750 l 946 750 l 838 242 q 726 47 808 107 q 524 -14 644 -14 z "},"ง":{"ha":831,"x_min":-1,"x_max":828,"o":"m 301 -14 q 192 -6 254 -14 q 89 19 129 3 l -1 532 l 310 532 l 367 211 q 430 274 403 226 q 472 394 457 322 q 478 443 478 421 q 455 503 478 486 q 390 521 432 521 l 340 521 l 389 750 l 517 750 q 747 684 665 750 q 828 494 828 618 q 815 396 828 449 q 635 83 767 181 q 301 -14 503 -14 z "},"จ":{"ha":804,"x_min":-10,"x_max":797,"o":"m 310 -14 q 199 -5 254 -14 q 118 18 143 4 l 85 226 l -10 226 l 51 457 l 324 457 l 360 239 q 409 291 388 258 q 443 379 431 324 q 448 411 446 396 q 450 439 450 426 q 417 510 450 488 q 303 533 385 533 q 181 523 249 533 q 49 496 114 513 l 94 711 q 272 751 181 739 q 436 764 364 764 q 710 691 622 764 q 797 488 797 618 q 785 378 797 436 q 686 160 757 247 q 518 29 615 72 q 310 -14 421 -14 z "},"ฉ":{"ha":872,"x_min":-8,"x_max":839,"o":"m 197 -14 q 47 38 103 -14 q -8 176 -8 89 q -7 208 -8 192 q -1 242 -6 225 l 36 417 l 372 417 l 347 294 q 345 281 346 288 q 344 269 344 275 q 390 233 344 233 q 433 242 413 233 q 464 261 453 250 l 490 379 q 495 410 493 396 q 497 438 497 425 q 461 512 497 490 q 342 533 425 533 q 253 528 306 533 q 145 515 200 524 q 47 496 90 507 l 93 711 q 283 751 179 739 q 475 764 386 764 q 752 696 665 764 q 839 496 839 628 q 825 378 839 439 l 746 0 l 433 0 l 432 44 q 328 3 389 21 q 197 -14 268 -14 z "}}}
